<svg width="26" height="20" viewBox="0 0 26 20" fill="none" xmlns="http://www.w3.org/2000/svg">
<path d="M14.525 17.0833C14.424 17.2353 14.297 17.3619 14.196 17.5139C13.36 18.6285 12.321 19.4138 10.928 19.6418C8.49601 20.0725 6.622 18.8565 6.09 16.526C5.203 12.7009 7.25501 7.71043 12.372 6.67183C14.323 6.26653 16.248 6.46923 18.148 7.05183C18.325 7.10253 18.781 7.33053 18.857 7.38113C18.756 8.09043 18.654 8.82513 18.553 9.53443C18.3 11.3076 18.021 13.0808 17.768 14.8794C17.717 15.31 17.717 15.766 17.793 16.1967C17.92 16.8806 18.401 17.1846 19.085 17.0326C19.592 16.9313 20.048 16.678 20.402 16.3233C20.884 15.8673 21.213 15.3354 21.441 14.7527C21.998 13.3848 22.15 11.9409 22.074 10.497C22.024 9.38243 21.796 8.31843 21.314 7.30513C20.301 5.12663 18.578 3.73333 16.273 3.15073C12.929 2.28943 9.81401 2.82143 7.05201 4.94933C4.89901 6.62123 3.709 8.87573 3.227 11.5102C2.873 13.4861 2.898 15.4367 3.506 17.3619C3.683 17.9446 3.962 18.5019 4.215 19.0845C4.266 19.2112 4.34201 19.3378 4.41801 19.4898C4.24101 19.4898 4.11401 19.4898 4.01301 19.4898C3.17701 19.4898 2.36601 19.4898 1.53001 19.4898C1.20101 19.4898 1.049 19.3632 0.922004 19.0845C0.441004 17.9192 0.137004 16.678 0.0610038 15.4367C-0.167296 12.1182 0.542006 9.02773 2.41701 6.26653C4.51901 3.17603 7.40701 1.30153 11.08 0.592228C13.588 0.110928 16.045 0.212228 18.426 1.17483C22.176 2.69473 24.379 5.48123 24.937 9.50903C25.241 11.6876 24.962 13.8155 23.999 15.7913C23.189 17.4886 21.922 18.7299 20.124 19.3378C19.11 19.6925 18.046 19.7938 16.983 19.5911C15.868 19.3632 15.159 18.6792 14.804 17.6153C14.753 17.4126 14.703 17.2353 14.627 17.0326C14.601 17.0833 14.551 17.0833 14.525 17.0833ZM14.601 9.78773C14.424 9.73703 14.272 9.68633 14.145 9.68633C13.031 9.55973 12.119 9.93973 11.359 10.7503C10.624 11.5356 10.244 12.4729 10.092 13.5368C9.99101 14.1701 9.99101 14.8034 10.194 15.4114C10.472 16.2473 11.257 16.6273 12.093 16.3487C12.524 16.1967 12.853 15.918 13.157 15.5634C13.613 15.0061 13.892 14.3728 14.044 13.6888C14.145 13.1568 14.221 12.6249 14.297 12.0929C14.399 11.3076 14.5 10.573 14.601 9.78773Z" fill="white"/>
</svg>
