<svg width="40" height="40" viewBox="0 0 40 40" fill="none" xmlns="http://www.w3.org/2000/svg">
<path d="M24.2616 39.5152C21.2724 40.1738 18.3592 40.1738 15.3447 39.4392C15.5474 39.2872 15.674 39.1859 15.8007 39.0845C17.8019 37.514 19.4232 35.6141 20.4618 33.2582C21.1458 31.7383 21.3737 30.117 21.1458 28.4451C21.1204 28.2931 21.1711 28.1158 21.2471 28.0145C22.311 26.3679 23.527 24.848 25.1229 23.6574C26.1868 22.8467 27.3774 22.2894 28.72 22.1374C29.7333 22.0108 30.7212 22.1374 31.6585 22.5428C34.597 23.8094 36.8516 25.8359 37.9662 28.9011C39.5621 33.3089 37.1049 37.4633 33.5078 39.0592C31.7599 39.8445 30.012 39.6925 28.34 38.7299C27.0481 37.9953 26.0602 36.9567 25.3762 35.6394C25.1482 35.2088 24.9962 34.7021 24.8696 34.1955C24.7682 33.7395 24.8442 33.2835 25.0975 32.8529C25.3509 32.4222 25.6295 32.3716 25.9842 32.7009C26.2881 32.9795 26.5668 33.2835 26.8201 33.6128C27.9347 35.0821 28.9987 36.5767 30.1133 38.0713C30.4173 38.4766 30.4933 38.5272 30.8986 38.3246C33.3304 37.1846 35.2303 35.4874 35.965 32.8275C36.6996 30.1677 35.9143 27.8371 34.0397 25.8612C33.3558 25.152 32.5452 24.62 31.5825 24.392C30.5946 24.164 29.6826 24.3667 28.872 24.9493C27.6814 25.8106 27.0481 27.0012 26.9974 28.4704C26.9974 28.6984 26.9974 28.9517 26.9974 29.2051C26.8455 29.1797 26.7441 29.1797 26.6428 29.1291C25.7815 28.8504 24.9962 29.0277 24.2869 29.5344C23.0203 30.4717 22.2604 31.7383 22.0324 33.3342C21.7791 35.0568 22.311 36.602 23.223 38.0459C23.5016 38.5526 23.8816 38.9832 24.2616 39.5152Z" fill="white"/>
<path d="M12.9131 10.738C13.1918 10.7887 13.4197 10.8647 13.6477 10.89C14.433 10.9913 15.1676 10.7887 15.7756 10.282C17.2195 9.06613 17.9795 7.49553 17.9035 5.59563C17.8528 3.82243 17.0675 2.30243 15.9783 0.959829C15.8516 0.807929 15.7503 0.681229 15.573 0.478529C18.5875 -0.180071 21.5006 -0.154772 24.5405 0.529228C24.3378 0.681228 24.2112 0.782528 24.1098 0.883928C22.1086 2.45443 20.5127 4.32903 19.4488 6.65953C18.7648 8.17953 18.4861 9.80073 18.7141 11.4473C18.7395 11.7006 18.7141 11.8779 18.5621 12.0806C17.7515 13.2965 16.8396 14.4618 15.7756 15.4751C15.0157 16.1844 14.1797 16.7923 13.2424 17.2483C11.5705 18.0336 9.84793 18.1603 8.17603 17.451C5.36423 16.2604 3.18563 14.3098 2.02033 11.4473C0.272433 7.14093 2.47633 2.75843 6.27613 1.01053C8.22673 0.123928 10.1519 0.351928 11.9251 1.54253C12.9384 2.22653 13.7491 3.11313 14.3824 4.17703C14.7117 4.73433 14.9397 5.31703 15.0157 5.97563C15.0663 6.43163 14.9903 6.86223 14.737 7.24223C14.4837 7.59683 14.2557 7.64753 13.9517 7.36883C13.6224 7.09023 13.3437 6.76093 13.0904 6.43163C11.9758 4.96233 10.9119 3.46773 9.79733 1.97313C9.49333 1.56783 9.39203 1.51723 8.96133 1.71983C6.50413 2.88513 4.62953 4.60773 3.89493 7.34353C3.05903 10.434 4.65493 13.6005 6.93473 15.0444C9.59463 16.767 12.0771 14.9684 12.7358 12.7392C12.8624 12.3086 12.8878 11.8273 12.9384 11.3713C12.9384 11.118 12.9131 10.9407 12.9131 10.738Z" fill="white"/>
<path d="M20.0314 15.019C21.298 17.0709 22.9699 18.6415 24.8698 20.0601C22.8432 21.3267 21.2726 22.9986 19.854 24.9238C18.5874 22.872 16.9409 21.3014 15.0156 19.8828C17.0422 18.6415 18.6128 16.9696 20.0314 15.019Z" fill="white"/>
<path d="M31.7349 33.6128C31.6335 33.5115 31.5575 33.4355 31.4815 33.3342C31.0762 32.8022 30.6456 32.2449 30.2403 31.6876C29.8856 31.2063 29.607 30.649 29.531 30.041C29.5057 29.737 29.531 29.4077 29.607 29.1037C29.759 28.5971 30.2909 28.4198 30.7722 28.6731C31.2789 28.9517 31.6335 29.357 31.9375 29.8383C32.4188 30.6236 32.6975 31.4849 32.4695 32.4222C32.3935 32.9035 32.1655 33.3088 31.7349 33.6128Z" fill="white"/>
<path d="M8.15049 6.35559C8.20119 6.43159 8.27719 6.48219 8.32789 6.55819C8.75849 7.14089 9.21449 7.72349 9.64509 8.30609C10.0251 8.81279 10.2784 9.37009 10.3291 10.0034C10.3544 10.2314 10.3291 10.4594 10.2784 10.662C10.1518 11.27 9.56909 11.5233 9.03719 11.2193C8.47989 10.9153 8.09988 10.434 7.79588 9.87669C7.36528 9.11679 7.16258 8.28079 7.39058 7.39419C7.51718 6.96359 7.74519 6.63419 8.15049 6.35559Z" fill="white"/>
<path d="M29.2015 12.8659C29.1509 13.0179 29.1255 13.1192 29.1002 13.1952C28.8215 14.0818 28.9735 14.9178 29.5308 15.6271C30.4681 16.8683 31.7347 17.6283 33.28 17.8309C34.7746 18.0336 36.1425 17.6536 37.4344 16.919C37.9664 16.615 38.4477 16.2097 38.9543 15.8551C39.081 15.7537 39.2077 15.6524 39.3343 15.5511C40.0689 17.4256 40.0183 22.948 39.2583 24.5946C39.157 24.4679 39.081 24.3666 39.005 24.2399C37.6624 22.416 35.9905 20.9721 34.0146 19.8575C32.52 19.0216 30.8988 18.5656 29.1762 18.6669C29.0242 18.6669 28.8722 18.6669 28.7455 18.6922C28.2896 18.8442 27.9349 18.6922 27.5549 18.4136C26.3643 17.5776 25.2497 16.6657 24.2618 15.6017C23.5778 14.8418 22.9952 14.0058 22.5899 13.0685C21.8806 11.4726 21.7539 9.85138 22.4125 8.23008C23.5525 5.34228 25.503 3.13838 28.3909 1.92248C31.5827 0.579879 34.5212 1.23848 37.0544 3.59438C37.8144 4.30368 38.4224 5.13958 38.853 6.10218C39.6636 7.95148 39.5876 9.74998 38.5997 11.5233C37.8651 12.8152 36.8265 13.8032 35.5345 14.5125C34.9266 14.8671 34.2679 15.0698 33.5333 15.0444C33.1533 15.0191 32.824 14.9178 32.5453 14.6391C32.3174 14.4111 32.2667 14.2085 32.4693 13.9552C32.748 13.6258 33.0773 13.2965 33.432 13.0432C34.9012 11.9286 36.3705 10.8647 37.8397 9.77538C38.3464 9.39538 38.397 9.34468 38.1184 8.78738C37.1051 6.71018 35.6612 5.03828 33.4826 4.12628C30.1641 2.73308 26.643 4.30368 24.9711 6.83688C23.2738 9.44608 24.9204 11.9286 27.2256 12.6379C27.6816 12.7646 28.1629 12.7899 28.6442 12.8406C28.7962 12.8912 28.9735 12.8659 29.2015 12.8659Z" fill="white"/>
<path d="M10.6584 27.0772C10.6838 26.9758 10.6838 26.9252 10.7091 26.8492C11.0891 25.8359 10.8864 24.924 10.2025 24.1133C8.83453 22.4921 7.08663 21.8081 4.98413 22.0868C3.41353 22.2894 2.09623 23.0241 0.905628 24.0373C0.779028 24.1387 0.677625 24.24 0.551025 24.3413C-0.183675 23.1001 -0.183675 17.7043 0.551025 15.2725C0.652325 15.4245 0.753626 15.5258 0.855026 15.6524C2.19763 17.451 3.84413 18.8949 5.79473 20.0095C7.56793 20.9975 9.49323 21.4535 11.5197 21.1495C11.6464 21.1242 11.7984 21.1748 11.925 21.2508C13.4703 22.2641 14.8889 23.404 16.0288 24.848C16.5355 25.4813 16.9408 26.1399 17.2701 26.8745C17.9541 28.4451 18.0554 30.041 17.4474 31.6116C16.3075 34.5248 14.3316 36.754 11.4437 37.9699C7.08663 39.8192 2.70423 37.5393 0.956325 33.7395C0.525625 32.8529 0.373627 31.8903 0.449627 30.9023C0.500327 30.1677 0.677627 29.4837 1.00693 28.8504C1.79223 27.2798 2.98283 26.0892 4.52813 25.2786C5.16143 24.9493 5.82003 24.772 6.55473 24.8986C6.65603 24.924 6.78263 24.9493 6.88403 25C7.59333 25.2786 7.66933 25.6839 7.16263 26.2159C6.90933 26.4692 6.63072 26.7225 6.32672 26.9252C4.85742 28.0145 3.38823 29.1037 1.91893 30.193C1.53893 30.4717 1.48833 30.5477 1.66563 30.953C2.85623 33.5115 4.62942 35.4114 7.46662 36.1207C8.58122 36.3993 9.69582 36.3487 10.8104 36.0194C12.229 35.6141 13.4196 34.8034 14.4076 33.6888C14.7876 33.2582 15.0915 32.7769 15.2942 32.2196C15.8008 30.8263 15.5728 29.585 14.5849 28.4958C13.6729 27.5078 12.533 27.0265 11.1904 27.0518C11.0384 27.0772 10.8611 27.0772 10.6584 27.0772Z" fill="white"/>
<path d="M33.5837 8.15413C32.8238 8.73673 32.0891 9.29403 31.3292 9.82603C30.9492 10.1046 30.4932 10.3073 30.0119 10.358C29.6826 10.3833 29.3279 10.3833 29.024 10.282C28.492 10.1046 28.3147 9.57273 28.5427 9.09143C28.5933 8.99003 28.644 8.88873 28.72 8.81273C29.5559 7.82483 30.5692 7.21683 31.8865 7.26753C32.5704 7.26753 33.1277 7.54613 33.5837 8.15413Z" fill="white"/>
<path d="M6.3013 31.7889C7.0866 31.2063 7.8465 30.6236 8.6318 30.0663C9.1891 29.6864 9.8224 29.4837 10.5317 29.585C10.7344 29.6104 10.9624 29.7117 11.1397 29.8384C11.4437 30.0663 11.5197 30.421 11.3677 30.7756C11.3423 30.8263 11.317 30.9023 11.2917 30.953C10.6584 32.1182 8.8598 32.9288 7.5679 32.6249C7.0612 32.5235 6.6306 32.2702 6.3013 31.7889Z" fill="white"/>
</svg>
