<svg width="745" height="631" viewBox="0 -250 745 631" fill="none" xmlns="http://www.w3.org/2000/svg">
<path d="M13.751 374.62C57.932 294.39 159.844 343.66 206.1 289.09C252.357 234.52 170.475 175.19 222.35 103.57C274.225 31.96 371.53 -10.7999 479.82 3.42009C588.11 17.6401 699.82 110.64 767.32 97.5401C834.82 84.4401 1022.09 -39.66 1170.63 184.19C1319.16 408.03 890.05 406.61 928.39 463.32C966.73 520.04 981.31 595.56 852.68 615.52C724.05 635.47 521.78 646.99 502.41 568.43C483.03 489.87 266.875 561.77 184.807 562.69C92.894 563.71 -42.737 477.17 13.751 374.62Z" fill="#E9EAEC"/>
<path d="M178.125 211.68C141.132 171.16 79.55 210.37 78.457 236.06C76.363 284.94 141.894 312.26 168.563 301.8C195.232 291.34 217.375 254.66 178.125 211.68Z" fill="#E9EAEC"/>
<path d="M557.87 61.39C572.49 59.02 582.42 45.26 580.05 30.65C577.69 16.04 563.93 6.10999 549.32 8.46999C534.71 10.83 524.78 24.59 527.14 39.2C529.5 53.82 543.26 63.75 557.87 61.39Z" stroke="#A8B4C6" stroke-width="1.875" stroke-miterlimit="10" stroke-dasharray="4.42 4.42"/>
<path opacity="0.11" d="M532.93 73.3101L532.92 73.3199L478.13 129.35H384.94V46.37L384.93 46.39H302.675L293.225 50.89V130.2L273.538 139.57V326.51H460.48L481.98 325.37V146.04L530.92 193.9L585.86 137.72L586.49 125.81L532.93 73.3101Z" fill="black"/>
<path d="M519.94 180.46C521.71 183.87 528.93 184.83 532.32 183.94C535.71 183.04 525.2 179.36 524 178.89C522.7 178.46 521.58 177.62 520.81 176.5C520.08 175.27 518.81 178.25 519.94 180.46Z" fill="#FFA988"/>
<path d="M466.1 143.95H279.162V330.89H466.1V143.95Z" fill="#BFA384"/>
<path d="M381.56 143.95V192.41L360.12 180.27V143.95H381.56Z" fill="#A07F56"/>
<path d="M487.61 329.75L466.1 330.89V143.95L487.61 133.7V329.75Z" fill="#A88662"/>
<path d="M487.57 133.72H300.637L279.162 143.95H466.1L487.57 133.72Z" fill="#CEB493"/>
<path d="M360.12 143.95L383.27 133.78H404.71L381.56 143.95H360.12Z" fill="#A07F56"/>
<path d="M381.11 55.26H298.85V137.52H381.11V55.26Z" fill="#BFA384"/>
<path d="M343.91 55.26V76.59L334.47 71.24V55.26H343.91Z" fill="#A07F56"/>
<path d="M390.57 137.01L381.11 137.52V55.26L390.57 50.75V137.01Z" fill="#A88662"/>
<path d="M390.56 50.76H308.3L298.85 55.26H381.11L390.56 50.76Z" fill="#CEB493"/>
<path d="M334.47 55.26L344.66 50.79H354.09L343.91 55.26H334.47Z" fill="#A07F56"/>
<path d="M537.05 82.9399L482.11 139.13L538.29 194.07L593.23 137.88L537.05 82.9399Z" fill="#BFA384"/>
<path d="M512.23 108.39L526.79 122.64L516.85 125.51L505.93 114.84L512.23 108.39Z" fill="#A07F56"/>
<path d="M593.89 126.02L593.26 137.93L537.08 82.99L540.33 73.51L593.89 126.02Z" fill="#A88662"/>
<path d="M540.32 73.53L485.38 129.71L482.14 139.16L537.08 82.99L540.32 73.53Z" fill="#CEB493"/>
<path d="M505.93 114.84L509.68 104.89L515.98 98.45L512.23 108.39L505.93 114.84Z" fill="#A07F56"/>
<path d="M581.47 199.16C581.47 199.16 562.79 197.04 563.54 197.97C564.29 198.91 556.87 240.89 555.55 257.62C554.22 274.36 566.28 319.96 566.28 319.96L570.97 319.74C570.97 319.74 572.05 300.29 571.38 283C570.71 265.71 567.99 269.4 570.53 259.39C573.07 249.37 579.08 233.92 581.24 215.92C583.41 197.92 585.06 199.4 585.06 199.4L581.47 199.16Z" fill="#253B59"/>
<path d="M587 196.05C587 196.05 568.31 198.09 569.22 198.84C570.12 199.59 575.52 244.11 577.25 260.79C578.98 277.46 589.84 319.81 589.84 319.81L594.07 319.54C594.07 319.54 595.95 297.23 592.16 280.43C588.37 263.63 593.79 230.22 592.69 212.11C591.58 193.99 590.56 195.49 590.56 195.49L587 196.05Z" fill="#253B59"/>
<path d="M578.91 134.94L569.07 136.32C569.07 136.32 554.07 161.81 562.11 206.85L592.66 206.35C592.66 206.35 593.08 187.82 591.81 166.89C591.02 153.84 587.5 141.62 578.91 134.94Z" fill="#1050CC"/>
<path d="M566.6 319.83L570.82 319.65C570.82 319.65 572.59 324.69 570.46 325.9H553.06C553.06 325.9 551.73 322.84 557.59 322.71C563.46 322.57 566.6 319.83 566.6 319.83Z" fill="#601B13"/>
<path d="M589.94 319.7L594.17 319.51C594.17 319.51 595.93 324.56 593.8 325.76H576.41C576.41 325.76 575.07 322.7 580.94 322.57C586.8 322.44 589.94 319.7 589.94 319.7Z" fill="#601B13"/>
<path d="M305.55 248.84H302.475V305.41H305.55V248.84Z" fill="#847361"/>
<path d="M353.74 248.84H350.66V305.41H353.74V248.84Z" fill="#847361"/>
<path d="M314.61 248.84H309.08V305.41H314.61V248.84Z" fill="#847361"/>
<path d="M347.05 248.84H341.52V305.41H347.05V248.84Z" fill="#847361"/>
<path d="M366.65 248.84H361.12V305.41H366.65V248.84Z" fill="#847361"/>
<path d="M321.53 248.84H319.69V305.41H321.53V248.84Z" fill="#847361"/>
<path d="M357.96 248.84H356.12V305.41H357.96V248.84Z" fill="#847361"/>
<path d="M336.6 248.84H334.76V305.41H336.6V248.84Z" fill="#847361"/>
<path d="M330.91 248.84H327.84V305.41H330.91V248.84Z" fill="#847361"/>
<path d="M312.42 309.14C312.42 309.9 312.29 310.46 312.03 310.83C311.77 311.2 311.37 311.38 310.82 311.38C310.27 311.38 309.87 311.2 309.61 310.84C309.35 310.48 309.21 309.94 309.2 309.22V308.36C309.2 307.61 309.33 307.05 309.59 306.69C309.85 306.32 310.26 306.14 310.81 306.14C311.36 306.14 311.76 306.32 312.02 306.67C312.28 307.02 312.42 307.56 312.42 308.3V309.14ZM311.77 308.25C311.77 307.7 311.7 307.3 311.54 307.05C311.39 306.8 311.15 306.67 310.81 306.67C310.48 306.67 310.24 306.8 310.09 307.05C309.93 307.3 309.86 307.68 309.85 308.2V309.24C309.85 309.79 309.93 310.2 310.09 310.46C310.25 310.72 310.49 310.85 310.82 310.85C311.14 310.85 311.38 310.73 311.53 310.48C311.69 310.23 311.77 309.84 311.77 309.31V308.25ZM316.45 309.14C316.45 309.9 316.32 310.46 316.06 310.83C315.8 311.2 315.4 311.38 314.85 311.38C314.3 311.38 313.9 311.2 313.64 310.84C313.38 310.48 313.24 309.94 313.23 309.22V308.36C313.23 307.61 313.36 307.05 313.62 306.69C313.88 306.32 314.29 306.14 314.84 306.14C315.39 306.14 315.79 306.32 316.05 306.67C316.31 307.02 316.44 307.56 316.45 308.3V309.14ZM315.8 308.25C315.8 307.7 315.73 307.3 315.57 307.05C315.42 306.8 315.17 306.67 314.84 306.67C314.51 306.67 314.27 306.8 314.11 307.05C313.96 307.3 313.88 307.68 313.88 308.2V309.24C313.88 309.79 313.96 310.2 314.12 310.46C314.28 310.72 314.52 310.85 314.85 310.85C315.17 310.85 315.4 310.73 315.56 310.48C315.71 310.23 315.8 309.84 315.8 309.31V308.25ZM320.48 309.14C320.48 309.9 320.35 310.46 320.09 310.83C319.83 311.2 319.43 311.38 318.88 311.38C318.33 311.38 317.93 311.2 317.67 310.84C317.41 310.48 317.27 309.94 317.26 309.22V308.36C317.26 307.61 317.39 307.05 317.65 306.69C317.91 306.32 318.32 306.14 318.87 306.14C319.42 306.14 319.82 306.32 320.08 306.67C320.34 307.02 320.47 307.56 320.48 308.3V309.14ZM319.83 308.25C319.83 307.7 319.76 307.3 319.6 307.05C319.45 306.8 319.2 306.67 318.87 306.67C318.54 306.67 318.3 306.8 318.14 307.05C317.99 307.3 317.91 307.68 317.91 308.2V309.24C317.91 309.79 317.99 310.2 318.15 310.46C318.31 310.72 318.55 310.85 318.88 310.85C319.2 310.85 319.43 310.73 319.59 310.48C319.74 310.23 319.83 309.84 319.83 309.31V308.25ZM324.51 309.14C324.51 309.9 324.38 310.46 324.12 310.83C323.86 311.2 323.46 311.38 322.91 311.38C322.36 311.38 321.96 311.2 321.7 310.84C321.43 310.48 321.3 309.94 321.29 309.22V308.36C321.29 307.61 321.42 307.05 321.68 306.69C321.94 306.32 322.34 306.14 322.9 306.14C323.45 306.14 323.85 306.32 324.11 306.67C324.37 307.02 324.5 307.56 324.51 308.3V309.14ZM323.86 308.25C323.86 307.7 323.78 307.3 323.63 307.05C323.48 306.8 323.23 306.67 322.9 306.67C322.57 306.67 322.32 306.8 322.17 307.05C322.02 307.3 321.94 307.68 321.94 308.2V309.24C321.94 309.79 322.02 310.2 322.18 310.46C322.34 310.72 322.58 310.85 322.91 310.85C323.23 310.85 323.46 310.73 323.62 310.48C323.77 310.23 323.85 309.84 323.86 309.31V308.25ZM328.54 309.14C328.54 309.9 328.41 310.46 328.15 310.83C327.89 311.2 327.49 311.38 326.93 311.38C326.39 311.38 325.99 311.2 325.73 310.84C325.46 310.48 325.33 309.94 325.32 309.22V308.36C325.32 307.61 325.45 307.05 325.71 306.69C325.97 306.32 326.37 306.14 326.93 306.14C327.48 306.14 327.88 306.32 328.14 306.67C328.4 307.02 328.53 307.56 328.54 308.3V309.14ZM327.89 308.25C327.89 307.7 327.81 307.3 327.66 307.05C327.51 306.8 327.26 306.67 326.93 306.67C326.6 306.67 326.35 306.8 326.2 307.05C326.05 307.3 325.97 307.68 325.97 308.2V309.24C325.97 309.79 326.05 310.2 326.21 310.46C326.37 310.72 326.61 310.85 326.93 310.85C327.25 310.85 327.49 310.73 327.65 310.48C327.8 310.23 327.88 309.84 327.89 309.31V308.25ZM332.57 309.14C332.57 309.9 332.44 310.46 332.18 310.83C331.92 311.2 331.51 311.38 330.96 311.38C330.42 311.38 330.02 311.2 329.75 310.84C329.49 310.48 329.36 309.94 329.35 309.22V308.36C329.35 307.61 329.48 307.05 329.74 306.69C330 306.32 330.4 306.14 330.96 306.14C331.5 306.14 331.91 306.32 332.17 306.67C332.43 307.02 332.56 307.56 332.57 308.3V309.14ZM331.92 308.25C331.92 307.7 331.84 307.3 331.69 307.05C331.53 306.8 331.29 306.67 330.96 306.67C330.62 306.67 330.38 306.8 330.23 307.05C330.08 307.3 330 307.68 330 308.2V309.24C330 309.79 330.08 310.2 330.23 310.46C330.4 310.72 330.64 310.85 330.96 310.85C331.28 310.85 331.52 310.73 331.67 310.48C331.83 310.23 331.91 309.84 331.92 309.31V308.25ZM336.6 309.14C336.6 309.9 336.47 310.46 336.21 310.83C335.95 311.2 335.54 311.38 334.99 311.38C334.45 311.38 334.04 311.2 333.78 310.84C333.52 310.48 333.39 309.94 333.38 309.22V308.36C333.38 307.61 333.51 307.05 333.77 306.69C334.02 306.32 334.43 306.14 334.98 306.14C335.53 306.14 335.94 306.32 336.2 306.67C336.46 307.02 336.59 307.56 336.6 308.3V309.14ZM335.95 308.25C335.95 307.7 335.87 307.3 335.72 307.05C335.56 306.8 335.32 306.67 334.98 306.67C334.65 306.67 334.41 306.8 334.26 307.05C334.11 307.3 334.03 307.68 334.02 308.2V309.24C334.02 309.79 334.1 310.2 334.26 310.46C334.42 310.72 334.67 310.85 334.99 310.85C335.31 310.85 335.55 310.73 335.7 310.48C335.86 310.23 335.94 309.84 335.95 309.31V308.25ZM340.63 309.14C340.63 309.9 340.5 310.46 340.24 310.83C339.98 311.2 339.57 311.38 339.02 311.38C338.48 311.38 338.07 311.2 337.81 310.84C337.55 310.48 337.42 309.94 337.41 309.22V308.36C337.41 307.61 337.54 307.05 337.79 306.69C338.05 306.32 338.46 306.14 339.01 306.14C339.56 306.14 339.97 306.32 340.23 306.67C340.49 307.02 340.62 307.56 340.63 308.3V309.14ZM339.98 308.25C339.98 307.7 339.9 307.3 339.75 307.05C339.59 306.8 339.35 306.67 339.01 306.67C338.68 306.67 338.44 306.8 338.29 307.05C338.14 307.3 338.06 307.68 338.05 308.2V309.24C338.05 309.79 338.13 310.2 338.29 310.46C338.45 310.72 338.7 310.85 339.02 310.85C339.34 310.85 339.58 310.73 339.73 310.48C339.89 310.23 339.97 309.84 339.98 309.31V308.25ZM344.65 309.14C344.65 309.9 344.52 310.46 344.27 310.83C344.01 311.2 343.6 311.38 343.05 311.38C342.51 311.38 342.1 311.2 341.84 310.84C341.58 310.48 341.44 309.94 341.43 309.22V308.36C341.43 307.61 341.56 307.05 341.82 306.69C342.08 306.32 342.49 306.14 343.04 306.14C343.59 306.14 344 306.32 344.25 306.67C344.51 307.02 344.65 307.56 344.65 308.3V309.14ZM344.01 308.25C344.01 307.7 343.93 307.3 343.77 307.05C343.62 306.8 343.38 306.67 343.04 306.67C342.71 306.67 342.47 306.8 342.32 307.05C342.17 307.3 342.09 307.68 342.08 308.2V309.24C342.08 309.79 342.16 310.2 342.32 310.46C342.48 310.72 342.73 310.85 343.05 310.85C343.37 310.85 343.61 310.73 343.76 310.48C343.92 310.23 344 309.84 344.01 309.31V308.25ZM348.68 309.14C348.68 309.9 348.55 310.46 348.29 310.83C348.04 311.2 347.63 311.38 347.08 311.38C346.53 311.38 346.13 311.2 345.87 310.84C345.61 310.48 345.47 309.94 345.46 309.22V308.36C345.46 307.61 345.59 307.05 345.85 306.69C346.11 306.32 346.52 306.14 347.07 306.14C347.62 306.14 348.02 306.32 348.28 306.67C348.54 307.02 348.68 307.56 348.68 308.3V309.14ZM348.04 308.25C348.04 307.7 347.96 307.3 347.8 307.05C347.65 306.8 347.41 306.67 347.07 306.67C346.74 306.67 346.5 306.8 346.35 307.05C346.19 307.3 346.12 307.68 346.11 308.2V309.24C346.11 309.79 346.19 310.2 346.35 310.46C346.51 310.72 346.75 310.85 347.08 310.85C347.4 310.85 347.64 310.73 347.79 310.48C347.95 310.23 348.03 309.84 348.04 309.31V308.25ZM352.71 309.14C352.71 309.9 352.58 310.46 352.32 310.83C352.06 311.2 351.66 311.38 351.11 311.38C350.56 311.38 350.16 311.2 349.9 310.84C349.64 310.48 349.5 309.94 349.49 309.22V308.36C349.49 307.61 349.62 307.05 349.88 306.69C350.14 306.32 350.55 306.14 351.1 306.14C351.65 306.14 352.05 306.32 352.31 306.67C352.57 307.02 352.71 307.56 352.71 308.3V309.14ZM352.06 308.25C352.06 307.7 351.99 307.3 351.83 307.05C351.68 306.8 351.43 306.67 351.1 306.67C350.77 306.67 350.53 306.8 350.38 307.05C350.22 307.3 350.15 307.68 350.14 308.2V309.24C350.14 309.79 350.22 310.2 350.38 310.46C350.54 310.72 350.78 310.85 351.11 310.85C351.43 310.85 351.66 310.73 351.82 310.48C351.98 310.23 352.06 309.84 352.06 309.31V308.25ZM356.74 309.14C356.74 309.9 356.61 310.46 356.35 310.83C356.09 311.2 355.69 311.38 355.14 311.38C354.59 311.38 354.19 311.2 353.93 310.84C353.67 310.48 353.53 309.94 353.52 309.22V308.36C353.52 307.61 353.65 307.05 353.91 306.69C354.17 306.32 354.58 306.14 355.13 306.14C355.68 306.14 356.08 306.32 356.34 306.67C356.6 307.02 356.73 307.56 356.74 308.3V309.14ZM356.09 308.25C356.09 307.7 356.02 307.3 355.86 307.05C355.71 306.8 355.46 306.67 355.13 306.67C354.8 306.67 354.56 306.8 354.4 307.05C354.25 307.3 354.17 307.68 354.17 308.2V309.24C354.17 309.79 354.25 310.2 354.41 310.46C354.57 310.72 354.81 310.85 355.14 310.85C355.46 310.85 355.69 310.73 355.85 310.48C356 310.23 356.09 309.84 356.09 309.31V308.25ZM360.77 309.14C360.77 309.9 360.64 310.46 360.38 310.83C360.12 311.2 359.72 311.38 359.17 311.38C358.62 311.38 358.22 311.2 357.96 310.84C357.7 310.48 357.56 309.94 357.55 309.22V308.36C357.55 307.61 357.68 307.05 357.94 306.69C358.2 306.32 358.6 306.14 359.16 306.14C359.71 306.14 360.11 306.32 360.37 306.67C360.63 307.02 360.76 307.56 360.77 308.3V309.14ZM360.12 308.25C360.12 307.7 360.04 307.3 359.89 307.05C359.74 306.8 359.49 306.67 359.16 306.67C358.83 306.67 358.59 306.8 358.43 307.05C358.28 307.3 358.2 307.68 358.2 308.2V309.24C358.2 309.79 358.28 310.2 358.44 310.46C358.6 310.72 358.84 310.85 359.17 310.85C359.49 310.85 359.72 310.73 359.88 310.48C360.03 310.23 360.11 309.84 360.12 309.31V308.25ZM364.8 309.14C364.8 309.9 364.67 310.46 364.41 310.83C364.15 311.2 363.75 311.38 363.19 311.38C362.65 311.38 362.25 311.2 361.99 310.84C361.72 310.48 361.59 309.94 361.58 309.22V308.36C361.58 307.61 361.71 307.05 361.97 306.69C362.23 306.32 362.63 306.14 363.19 306.14C363.74 306.14 364.14 306.32 364.4 306.67C364.66 307.02 364.79 307.56 364.8 308.3V309.14ZM364.15 308.25C364.15 307.7 364.07 307.3 363.92 307.05C363.77 306.8 363.52 306.67 363.19 306.67C362.86 306.67 362.61 306.8 362.46 307.05C362.31 307.3 362.23 307.68 362.23 308.2V309.24C362.23 309.79 362.31 310.2 362.47 310.46C362.63 310.72 362.87 310.85 363.19 310.85C363.51 310.85 363.75 310.73 363.91 310.48C364.06 310.23 364.14 309.84 364.15 309.31V308.25Z" fill="#847361"/>
<path d="M308.59 103.27H307.21V128.54H308.59V103.27Z" fill="#847361"/>
<path d="M330.12 103.27H328.74V128.54H330.12V103.27Z" fill="#847361"/>
<path d="M312.64 103.27H310.17V128.54H312.64V103.27Z" fill="#847361"/>
<path d="M327.13 103.27H324.66V128.54H327.13V103.27Z" fill="#847361"/>
<path d="M335.89 103.27H333.41V128.54H335.89V103.27Z" fill="#847361"/>
<path d="M315.73 103.27H314.91V128.54H315.73V103.27Z" fill="#847361"/>
<path d="M332.01 103.27H331.18V128.54H332.01V103.27Z" fill="#847361"/>
<path d="M322.46 103.27H321.64V128.54H322.46V103.27Z" fill="#847361"/>
<path d="M319.92 103.27H318.54V128.54H319.92V103.27Z" fill="#847361"/>
<path d="M313.82 128.48C313.82 129.28 313.69 129.86 313.42 130.25C313.15 130.64 312.72 130.83 312.15 130.83C311.58 130.83 311.16 130.64 310.88 130.27C310.61 129.89 310.47 129.32 310.46 128.57V127.67C310.46 126.89 310.59 126.3 310.87 125.92C311.14 125.54 311.56 125.35 312.14 125.35C312.71 125.35 313.14 125.54 313.41 125.9C313.68 126.27 313.82 126.84 313.82 127.6V128.48ZM313.15 127.56C313.15 126.98 313.07 126.56 312.91 126.3C312.74 126.04 312.49 125.91 312.14 125.91C311.79 125.91 311.54 126.04 311.38 126.3C311.22 126.56 311.14 126.96 311.14 127.5V128.59C311.14 129.16 311.22 129.59 311.39 129.87C311.55 130.14 311.81 130.28 312.15 130.28C312.48 130.28 312.73 130.15 312.89 129.89C313.05 129.63 313.14 129.22 313.15 128.66V127.56ZM318.04 128.48C318.04 129.28 317.9 129.86 317.63 130.25C317.36 130.64 316.93 130.83 316.36 130.83C315.79 130.83 315.37 130.64 315.09 130.27C314.82 129.89 314.68 129.32 314.67 128.57V127.67C314.67 126.89 314.81 126.3 315.08 125.92C315.35 125.54 315.77 125.35 316.35 125.35C316.92 125.35 317.35 125.54 317.62 125.9C317.89 126.27 318.03 126.84 318.04 127.6V128.48ZM317.36 127.56C317.36 126.98 317.28 126.56 317.12 126.3C316.96 126.04 316.7 125.91 316.35 125.91C316 125.91 315.75 126.04 315.59 126.3C315.43 126.56 315.35 126.96 315.35 127.5V128.59C315.35 129.16 315.43 129.59 315.6 129.87C315.77 130.14 316.02 130.28 316.36 130.28C316.69 130.28 316.94 130.15 317.1 129.89C317.27 129.63 317.35 129.22 317.36 128.66V127.56ZM322.25 128.48C322.25 129.28 322.11 129.86 321.84 130.25C321.57 130.64 321.15 130.83 320.57 130.83C320 130.83 319.58 130.64 319.31 130.27C319.03 129.89 318.89 129.32 318.88 128.57V127.67C318.88 126.89 319.02 126.3 319.29 125.92C319.56 125.54 319.98 125.35 320.56 125.35C321.14 125.35 321.56 125.54 321.83 125.9C322.1 126.27 322.24 126.84 322.25 127.6V128.48ZM321.57 127.56C321.57 126.98 321.49 126.56 321.33 126.3C321.17 126.04 320.91 125.91 320.56 125.91C320.22 125.91 319.96 126.04 319.8 126.3C319.65 126.56 319.56 126.96 319.56 127.5V128.59C319.56 129.16 319.64 129.59 319.81 129.87C319.98 130.14 320.23 130.28 320.57 130.28C320.9 130.28 321.15 130.15 321.31 129.89C321.48 129.63 321.56 129.22 321.57 128.66V127.56ZM326.46 128.48C326.46 129.28 326.32 129.86 326.05 130.25C325.78 130.64 325.36 130.83 324.78 130.83C324.21 130.83 323.79 130.64 323.52 130.27C323.24 129.89 323.1 129.32 323.09 128.57V127.67C323.09 126.89 323.23 126.3 323.5 125.92C323.77 125.54 324.2 125.35 324.77 125.35C325.35 125.35 325.77 125.54 326.04 125.9C326.31 126.27 326.45 126.84 326.46 127.6V128.48ZM325.78 127.56C325.78 126.98 325.7 126.56 325.54 126.3C325.38 126.04 325.12 125.91 324.77 125.91C324.43 125.91 324.17 126.04 324.02 126.3C323.86 126.56 323.78 126.96 323.77 127.5V128.59C323.77 129.16 323.85 129.59 324.02 129.87C324.19 130.14 324.44 130.28 324.78 130.28C325.12 130.28 325.36 130.15 325.52 129.89C325.69 129.63 325.77 129.22 325.78 128.66V127.56ZM330.67 128.48C330.67 129.28 330.53 129.86 330.26 130.25C329.99 130.64 329.57 130.83 328.99 130.83C328.42 130.83 328 130.64 327.73 130.27C327.46 129.89 327.31 129.32 327.3 128.57V127.67C327.3 126.89 327.44 126.3 327.71 125.92C327.98 125.54 328.41 125.35 328.99 125.35C329.56 125.35 329.98 125.54 330.25 125.9C330.52 126.27 330.66 126.84 330.67 127.6V128.48ZM329.99 127.56C329.99 126.98 329.91 126.56 329.75 126.3C329.59 126.04 329.33 125.91 328.99 125.91C328.64 125.91 328.39 126.04 328.23 126.3C328.07 126.56 327.99 126.96 327.98 127.5V128.59C327.98 129.16 328.06 129.59 328.23 129.87C328.4 130.14 328.65 130.28 328.99 130.28C329.33 130.28 329.57 130.15 329.74 129.89C329.9 129.63 329.99 129.22 329.99 128.66V127.56ZM334.88 128.48C334.88 129.28 334.75 129.86 334.47 130.25C334.2 130.64 333.78 130.83 333.2 130.83C332.64 130.83 332.21 130.64 331.94 130.27C331.67 129.89 331.53 129.32 331.52 128.57V127.67C331.52 126.89 331.65 126.3 331.92 125.92C332.19 125.54 332.62 125.35 333.2 125.35C333.77 125.35 334.19 125.54 334.46 125.9C334.73 126.27 334.87 126.84 334.88 127.6V128.48ZM334.2 127.56C334.2 126.98 334.12 126.56 333.96 126.3C333.8 126.04 333.55 125.91 333.2 125.91C332.85 125.91 332.6 126.04 332.44 126.3C332.28 126.56 332.2 126.96 332.19 127.5V128.59C332.19 129.16 332.28 129.59 332.44 129.87C332.61 130.14 332.86 130.28 333.2 130.28C333.54 130.28 333.79 130.15 333.95 129.89C334.11 129.63 334.2 129.22 334.2 128.66V127.56ZM339.09 128.48C339.09 129.28 338.96 129.86 338.69 130.25C338.42 130.64 337.99 130.83 337.42 130.83C336.85 130.83 336.43 130.64 336.15 130.27C335.88 129.89 335.74 129.32 335.73 128.57V127.67C335.73 126.89 335.86 126.3 336.13 125.92C336.4 125.54 336.83 125.35 337.41 125.35C337.98 125.35 338.4 125.54 338.68 125.9C338.95 126.27 339.09 126.84 339.09 127.6V128.48ZM338.42 127.56C338.42 126.98 338.33 126.56 338.17 126.3C338.01 126.04 337.76 125.91 337.41 125.91C337.06 125.91 336.81 126.04 336.65 126.3C336.49 126.56 336.41 126.96 336.4 127.5V128.59C336.4 129.16 336.49 129.59 336.65 129.87C336.82 130.14 337.08 130.28 337.42 130.28C337.75 130.28 338 130.15 338.16 129.89C338.32 129.63 338.41 129.22 338.42 128.66V127.56ZM343.3 128.48C343.3 129.28 343.17 129.86 342.9 130.25C342.63 130.64 342.2 130.83 341.63 130.83C341.06 130.83 340.64 130.64 340.36 130.27C340.09 129.89 339.95 129.32 339.94 128.57V127.67C339.94 126.89 340.07 126.3 340.35 125.92C340.62 125.54 341.04 125.35 341.62 125.35C342.19 125.35 342.62 125.54 342.89 125.9C343.16 126.27 343.3 126.84 343.3 127.6V128.48ZM342.63 127.56C342.63 126.98 342.55 126.56 342.39 126.3C342.22 126.04 341.97 125.91 341.62 125.91C341.27 125.91 341.02 126.04 340.86 126.3C340.7 126.56 340.62 126.96 340.62 127.5V128.59C340.62 129.16 340.7 129.59 340.87 129.87C341.03 130.14 341.29 130.28 341.63 130.28C341.96 130.28 342.21 130.15 342.37 129.89C342.53 129.63 342.62 129.22 342.63 128.66V127.56ZM347.52 128.48C347.52 129.28 347.38 129.86 347.11 130.25C346.84 130.64 346.41 130.83 345.84 130.83C345.27 130.83 344.85 130.64 344.57 130.27C344.3 129.89 344.16 129.32 344.15 128.57V127.67C344.15 126.89 344.29 126.3 344.56 125.92C344.83 125.54 345.25 125.35 345.83 125.35C346.4 125.35 346.83 125.54 347.1 125.9C347.37 126.27 347.51 126.84 347.52 127.6V128.48ZM346.84 127.56C346.84 126.98 346.76 126.56 346.6 126.3C346.44 126.04 346.18 125.91 345.83 125.91C345.48 125.91 345.23 126.04 345.07 126.3C344.91 126.56 344.83 126.96 344.83 127.5V128.59C344.83 129.16 344.91 129.59 345.08 129.87C345.25 130.14 345.5 130.28 345.84 130.28C346.17 130.28 346.42 130.15 346.58 129.89C346.75 129.63 346.83 129.22 346.84 128.66V127.56ZM351.73 128.48C351.73 129.28 351.59 129.86 351.32 130.25C351.05 130.64 350.63 130.83 350.05 130.83C349.48 130.83 349.06 130.64 348.79 130.27C348.51 129.89 348.37 129.32 348.36 128.57V127.67C348.36 126.89 348.5 126.3 348.77 125.92C349.04 125.54 349.46 125.35 350.04 125.35C350.62 125.35 351.04 125.54 351.31 125.9C351.58 126.27 351.72 126.84 351.73 127.6V128.48ZM351.05 127.56C351.05 126.98 350.97 126.56 350.81 126.3C350.65 126.04 350.39 125.91 350.04 125.91C349.7 125.91 349.44 126.04 349.28 126.3C349.13 126.56 349.04 126.96 349.04 127.5V128.59C349.04 129.16 349.12 129.59 349.29 129.87C349.46 130.14 349.71 130.28 350.05 130.28C350.38 130.28 350.63 130.15 350.79 129.89C350.96 129.63 351.04 129.22 351.05 128.66V127.56ZM355.94 128.48C355.94 129.28 355.8 129.86 355.53 130.25C355.26 130.64 354.84 130.83 354.26 130.83C353.69 130.83 353.27 130.64 353 130.27C352.72 129.89 352.58 129.32 352.57 128.57V127.67C352.57 126.89 352.71 126.3 352.98 125.92C353.25 125.54 353.68 125.35 354.25 125.35C354.83 125.35 355.25 125.54 355.52 125.9C355.79 126.27 355.93 126.84 355.94 127.6V128.48ZM355.26 127.56C355.26 126.98 355.18 126.56 355.02 126.3C354.86 126.04 354.6 125.91 354.25 125.91C353.91 125.91 353.65 126.04 353.5 126.3C353.34 126.56 353.26 126.96 353.25 127.5V128.59C353.25 129.16 353.33 129.59 353.5 129.87C353.67 130.14 353.92 130.28 354.26 130.28C354.6 130.28 354.84 130.15 355 129.89C355.17 129.63 355.25 129.22 355.26 128.66V127.56ZM360.15 128.48C360.15 129.28 360.01 129.86 359.74 130.25C359.47 130.64 359.05 130.83 358.47 130.83C357.9 130.83 357.48 130.64 357.21 130.27C356.94 129.89 356.79 129.32 356.78 128.57V127.67C356.78 126.89 356.92 126.3 357.19 125.92C357.46 125.54 357.89 125.35 358.47 125.35C359.04 125.35 359.46 125.54 359.73 125.9C360 126.27 360.14 126.84 360.15 127.6V128.48ZM359.47 127.56C359.47 126.98 359.39 126.56 359.23 126.3C359.07 126.04 358.81 125.91 358.47 125.91C358.12 125.91 357.87 126.04 357.71 126.3C357.55 126.56 357.47 126.96 357.46 127.5V128.59C357.46 129.16 357.54 129.59 357.71 129.87C357.88 130.14 358.13 130.28 358.47 130.28C358.81 130.28 359.05 130.15 359.22 129.89C359.38 129.63 359.47 129.22 359.47 128.66V127.56ZM364.36 128.48C364.36 129.28 364.23 129.86 363.95 130.25C363.68 130.64 363.26 130.83 362.68 130.83C362.12 130.83 361.69 130.64 361.42 130.27C361.15 129.89 361.01 129.32 361 128.57V127.67C361 126.89 361.13 126.3 361.4 125.92C361.67 125.54 362.1 125.35 362.68 125.35C363.25 125.35 363.67 125.54 363.94 125.9C364.21 126.27 364.35 126.84 364.36 127.6V128.48ZM363.68 127.56C363.68 126.98 363.6 126.56 363.44 126.3C363.28 126.04 363.03 125.91 362.68 125.91C362.33 125.91 362.08 126.04 361.92 126.3C361.76 126.56 361.68 126.96 361.67 127.5V128.59C361.67 129.16 361.76 129.59 361.92 129.87C362.09 130.14 362.34 130.28 362.68 130.28C363.02 130.28 363.27 130.15 363.43 129.89C363.59 129.63 363.68 129.22 363.68 128.66V127.56ZM368.57 128.48C368.57 129.28 368.44 129.86 368.17 130.25C367.9 130.64 367.47 130.83 366.9 130.83C366.33 130.83 365.91 130.64 365.63 130.27C365.36 129.89 365.22 129.32 365.21 128.57V127.67C365.21 126.89 365.34 126.3 365.61 125.92C365.88 125.54 366.31 125.35 366.89 125.35C367.46 125.35 367.88 125.54 368.16 125.9C368.43 126.27 368.57 126.84 368.57 127.6V128.48ZM367.9 127.56C367.9 126.98 367.81 126.56 367.65 126.3C367.49 126.04 367.24 125.91 366.89 125.91C366.54 125.91 366.29 126.04 366.13 126.3C365.97 126.56 365.89 126.96 365.88 127.5V128.59C365.88 129.16 365.97 129.59 366.13 129.87C366.3 130.14 366.56 130.28 366.9 130.28C367.23 130.28 367.48 130.15 367.64 129.89C367.8 129.63 367.89 129.22 367.9 128.66V127.56Z" fill="#847361"/>
<path d="M523.11 168.92L522.29 169.74L537.45 184.9L538.27 184.08L523.11 168.92Z" fill="#847361"/>
<path d="M536.02 156.01L535.2 156.83L550.36 171.99L551.18 171.16L536.02 156.01Z" fill="#847361"/>
<path d="M525.54 166.48L524.06 167.96L539.22 183.12L540.7 181.63L525.54 166.48Z" fill="#847361"/>
<path d="M534.23 157.79L532.75 159.27L547.9 174.43L549.39 172.95L534.23 157.79Z" fill="#847361"/>
<path d="M539.49 152.54L538.01 154.02L553.16 169.18L554.65 167.69L539.49 152.54Z" fill="#847361"/>
<path d="M527.4 164.63L526.9 165.13L542.06 180.28L542.56 179.79L527.4 164.63Z" fill="#847361"/>
<path d="M537.15 154.87L536.66 155.36L551.82 170.52L552.31 170.03L537.15 154.87Z" fill="#847361"/>
<path d="M531.43 160.59L530.93 161.08L546.09 176.24L546.59 175.75L531.43 160.59Z" fill="#847361"/>
<path d="M529.91 162.11L529.08 162.93L544.24 178.09L545.06 177.27L529.91 162.11Z" fill="#847361"/>
<path d="M541.55 180.25C542.11 180.81 542.44 181.32 542.52 181.79C542.6 182.25 542.43 182.69 542.03 183.09C541.63 183.5 541.19 183.66 540.74 183.59C540.27 183.51 539.78 183.22 539.24 182.69L538.6 182.05C538.04 181.5 537.73 180.99 537.65 180.53C537.57 180.07 537.74 179.63 538.15 179.23C538.55 178.82 538.98 178.65 539.44 178.72C539.89 178.79 540.38 179.09 540.93 179.63L541.55 180.25ZM540.42 180.07C540.01 179.67 539.66 179.43 539.36 179.36C539.06 179.28 538.79 179.37 538.54 179.62C538.3 179.86 538.21 180.14 538.28 180.43C538.36 180.73 538.58 181.07 538.96 181.46L539.73 182.22C540.14 182.63 540.5 182.87 540.81 182.95C541.12 183.03 541.4 182.94 541.64 182.7C541.87 182.47 541.96 182.2 541.89 181.9C541.82 181.6 541.59 181.26 541.2 180.86L540.42 180.07ZM544.53 177.27C545.09 177.83 545.41 178.34 545.49 178.81C545.58 179.27 545.41 179.71 545.01 180.12C544.6 180.52 544.17 180.68 543.71 180.61C543.25 180.54 542.75 180.24 542.22 179.71L541.58 179.08C541.02 178.52 540.71 178.01 540.63 177.55C540.55 177.09 540.72 176.66 541.13 176.25C541.53 175.84 541.96 175.67 542.41 175.74C542.86 175.81 543.36 176.11 543.91 176.65L544.53 177.27ZM543.4 177.09C542.99 176.69 542.64 176.45 542.34 176.38C542.04 176.31 541.77 176.39 541.52 176.64C541.27 176.89 541.19 177.16 541.26 177.45C541.33 177.75 541.56 178.09 541.94 178.48L542.71 179.25C543.11 179.65 543.47 179.9 543.79 179.97C544.1 180.05 544.37 179.97 544.61 179.73C544.85 179.49 544.93 179.22 544.87 178.92C544.8 178.63 544.57 178.28 544.18 177.88L543.4 177.09ZM547.51 174.29C548.07 174.85 548.39 175.37 548.47 175.83C548.55 176.29 548.39 176.73 547.98 177.14C547.58 177.54 547.15 177.71 546.69 177.63C546.23 177.56 545.73 177.26 545.19 176.74L544.55 176.1C544 175.54 543.68 175.04 543.61 174.57C543.53 174.11 543.69 173.68 544.1 173.27C544.51 172.86 544.94 172.7 545.39 172.76C545.84 172.83 546.34 173.13 546.89 173.67L547.51 174.29ZM546.38 174.12C545.97 173.71 545.62 173.47 545.32 173.4C545.02 173.33 544.74 173.42 544.5 173.66C544.25 173.91 544.17 174.18 544.24 174.48C544.31 174.77 544.54 175.11 544.92 175.5L545.68 176.27C546.09 176.68 546.45 176.92 546.76 177C547.08 177.07 547.35 176.99 547.59 176.75C547.83 176.51 547.91 176.24 547.84 175.95C547.78 175.65 547.55 175.3 547.16 174.9L546.38 174.12ZM550.49 171.31C551.05 171.88 551.37 172.39 551.45 172.85C551.53 173.32 551.37 173.75 550.96 174.16C550.56 174.56 550.13 174.73 549.67 174.65C549.21 174.58 548.71 174.28 548.17 173.76L547.53 173.12C546.98 172.57 546.66 172.06 546.58 171.6C546.51 171.14 546.67 170.7 547.08 170.29C547.49 169.89 547.92 169.72 548.37 169.79C548.82 169.85 549.32 170.16 549.87 170.69L550.49 171.31ZM549.35 171.14C548.95 170.73 548.6 170.49 548.3 170.42C548 170.35 547.72 170.44 547.48 170.69C547.23 170.93 547.14 171.2 547.22 171.5C547.29 171.8 547.52 172.14 547.9 172.52L548.66 173.29C549.07 173.7 549.43 173.94 549.74 174.02C550.05 174.09 550.33 174.01 550.57 173.77C550.81 173.53 550.89 173.27 550.82 172.97C550.75 172.67 550.53 172.32 550.14 171.92L549.35 171.14ZM553.47 168.34C554.03 168.9 554.35 169.41 554.43 169.87C554.51 170.34 554.35 170.77 553.94 171.18C553.54 171.58 553.11 171.75 552.65 171.68C552.19 171.6 551.69 171.3 551.15 170.78L550.51 170.14C549.96 169.59 549.64 169.08 549.56 168.62C549.49 168.16 549.65 167.72 550.06 167.31C550.47 166.91 550.89 166.74 551.35 166.81C551.8 166.88 552.3 167.18 552.84 167.72L553.47 168.34ZM552.33 168.16C551.93 167.75 551.57 167.52 551.27 167.45C550.97 167.37 550.7 167.46 550.45 167.71C550.21 167.95 550.12 168.22 550.19 168.52C550.27 168.82 550.49 169.16 550.87 169.55L551.64 170.31C552.05 170.72 552.41 170.96 552.72 171.04C553.03 171.11 553.31 171.03 553.55 170.79C553.78 170.55 553.87 170.29 553.8 169.99C553.73 169.69 553.5 169.34 553.12 168.95L552.33 168.16ZM556.44 165.36C557 165.92 557.33 166.43 557.41 166.9C557.49 167.36 557.32 167.8 556.92 168.2C556.51 168.61 556.08 168.77 555.62 168.7C555.16 168.62 554.66 168.33 554.13 167.8L553.49 167.16C552.93 166.61 552.62 166.1 552.54 165.64C552.46 165.18 552.63 164.74 553.04 164.34C553.44 163.93 553.87 163.76 554.32 163.83C554.78 163.9 555.27 164.2 555.82 164.74L556.44 165.36ZM555.31 165.18C554.9 164.78 554.55 164.54 554.25 164.47C553.95 164.4 553.68 164.48 553.43 164.73C553.19 164.97 553.1 165.25 553.17 165.54C553.24 165.84 553.47 166.18 553.85 166.57L554.62 167.33C555.02 167.74 555.38 167.98 555.7 168.06C556.01 168.14 556.29 168.05 556.53 167.81C556.76 167.58 556.85 167.31 556.78 167.01C556.71 166.71 556.48 166.37 556.09 165.97L555.31 165.18ZM559.42 162.38C559.98 162.94 560.3 163.45 560.38 163.92C560.47 164.38 560.3 164.82 559.89 165.23C559.49 165.63 559.06 165.79 558.6 165.72C558.14 165.65 557.64 165.35 557.11 164.83L556.47 164.19C555.91 163.63 555.6 163.12 555.52 162.66C555.44 162.2 555.61 161.77 556.02 161.36C556.42 160.95 556.85 160.78 557.3 160.85C557.75 160.92 558.25 161.22 558.8 161.76L559.42 162.38ZM558.29 162.2C557.88 161.8 557.53 161.56 557.23 161.49C556.93 161.42 556.66 161.5 556.41 161.75C556.16 162 556.08 162.27 556.15 162.56C556.22 162.86 556.45 163.2 556.83 163.59L557.6 164.36C558 164.76 558.36 165.01 558.68 165.08C558.99 165.16 559.26 165.08 559.5 164.84C559.74 164.6 559.82 164.33 559.75 164.04C559.69 163.74 559.46 163.39 559.07 162.99L558.29 162.2ZM562.4 159.4C562.96 159.96 563.28 160.48 563.36 160.94C563.44 161.41 563.28 161.84 562.87 162.25C562.47 162.65 562.04 162.82 561.58 162.74C561.12 162.67 560.62 162.37 560.08 161.85L559.44 161.21C558.89 160.65 558.57 160.15 558.5 159.68C558.42 159.22 558.58 158.79 558.99 158.38C559.4 157.97 559.83 157.81 560.28 157.87C560.73 157.94 561.23 158.24 561.78 158.78L562.4 159.4ZM561.26 159.23C560.86 158.82 560.51 158.58 560.21 158.51C559.91 158.44 559.63 158.53 559.39 158.77C559.14 159.02 559.06 159.29 559.13 159.59C559.2 159.88 559.43 160.23 559.81 160.61L560.57 161.38C560.98 161.79 561.34 162.03 561.65 162.11C561.97 162.18 562.24 162.1 562.48 161.86C562.72 161.62 562.8 161.35 562.73 161.06C562.67 160.76 562.44 160.41 562.05 160.01L561.26 159.23ZM565.38 156.42C565.94 156.99 566.26 157.5 566.34 157.96C566.42 158.43 566.26 158.86 565.85 159.27C565.45 159.67 565.02 159.84 564.56 159.77C564.1 159.69 563.6 159.39 563.06 158.87L562.42 158.23C561.87 157.68 561.55 157.17 561.47 156.71C561.4 156.25 561.56 155.81 561.97 155.4C562.38 155 562.81 154.83 563.26 154.9C563.71 154.96 564.21 155.27 564.76 155.8L565.38 156.42ZM564.24 156.25C563.84 155.84 563.48 155.6 563.19 155.53C562.89 155.46 562.61 155.55 562.37 155.8C562.12 156.04 562.03 156.31 562.11 156.61C562.18 156.91 562.4 157.25 562.78 157.63L563.55 158.4C563.96 158.81 564.32 159.05 564.63 159.13C564.94 159.2 565.22 159.12 565.46 158.88C565.7 158.64 565.78 158.38 565.71 158.08C565.64 157.78 565.42 157.43 565.03 157.03L564.24 156.25ZM568.35 153.45C568.92 154.01 569.24 154.52 569.32 154.99C569.4 155.45 569.24 155.89 568.83 156.29C568.43 156.69 568 156.86 567.54 156.79C567.08 156.71 566.58 156.41 566.04 155.89L565.4 155.25C564.85 154.7 564.53 154.19 564.45 153.73C564.37 153.27 564.54 152.83 564.95 152.42C565.36 152.02 565.78 151.85 566.24 151.92C566.69 151.99 567.19 152.29 567.73 152.83L568.35 153.45ZM567.22 153.27C566.81 152.87 566.46 152.63 566.16 152.56C565.86 152.48 565.59 152.57 565.34 152.82C565.1 153.06 565.01 153.33 565.08 153.63C565.16 153.93 565.38 154.27 565.76 154.66L566.53 155.42C566.94 155.83 567.3 156.07 567.61 156.15C567.92 156.22 568.2 156.14 568.44 155.9C568.67 155.67 568.76 155.4 568.69 155.1C568.62 154.8 568.39 154.45 568.01 154.06L567.22 153.27ZM571.33 150.47C571.89 151.03 572.21 151.54 572.3 152.01C572.38 152.47 572.21 152.91 571.81 153.31C571.4 153.72 570.97 153.88 570.51 153.81C570.05 153.74 569.55 153.44 569.02 152.91L568.38 152.27C567.82 151.72 567.51 151.21 567.43 150.75C567.35 150.29 567.52 149.86 567.93 149.45C568.33 149.04 568.76 148.87 569.21 148.94C569.67 149.01 570.16 149.31 570.71 149.85L571.33 150.47ZM570.2 150.29C569.79 149.89 569.44 149.65 569.14 149.58C568.84 149.51 568.57 149.59 568.32 149.84C568.08 150.08 567.99 150.36 568.06 150.65C568.13 150.95 568.36 151.29 568.74 151.68L569.51 152.44C569.91 152.85 570.27 153.09 570.59 153.17C570.9 153.25 571.18 153.16 571.42 152.92C571.65 152.69 571.74 152.42 571.67 152.12C571.6 151.82 571.37 151.48 570.98 151.08L570.2 150.29ZM574.31 147.49C574.87 148.05 575.19 148.56 575.27 149.03C575.36 149.49 575.19 149.93 574.78 150.34C574.38 150.74 573.95 150.9 573.49 150.83C573.03 150.76 572.53 150.46 572 149.94L571.36 149.3C570.8 148.74 570.49 148.23 570.41 147.77C570.33 147.31 570.5 146.88 570.91 146.47C571.31 146.06 571.74 145.89 572.19 145.96C572.64 146.03 573.14 146.33 573.69 146.87L574.31 147.49ZM573.18 147.31C572.77 146.91 572.42 146.67 572.12 146.6C571.82 146.53 571.55 146.61 571.3 146.86C571.05 147.11 570.97 147.38 571.04 147.67C571.11 147.97 571.34 148.31 571.72 148.7L572.48 149.47C572.89 149.87 573.25 150.12 573.56 150.19C573.88 150.27 574.15 150.19 574.39 149.95C574.63 149.71 574.71 149.44 574.64 149.15C574.58 148.85 574.35 148.5 573.96 148.1L573.18 147.31ZM577.29 144.51C577.85 145.07 578.17 145.59 578.25 146.05C578.33 146.52 578.17 146.95 577.76 147.36C577.36 147.76 576.93 147.93 576.47 147.85C576.01 147.78 575.51 147.48 574.97 146.96L574.33 146.32C573.78 145.76 573.46 145.26 573.39 144.8C573.31 144.33 573.47 143.9 573.88 143.49C574.29 143.08 574.72 142.92 575.17 142.99C575.62 143.05 576.12 143.35 576.67 143.89L577.29 144.51ZM576.15 144.34C575.75 143.93 575.4 143.69 575.1 143.62C574.8 143.55 574.52 143.64 574.28 143.88C574.03 144.13 573.95 144.4 574.02 144.7C574.09 144.99 574.32 145.34 574.7 145.72L575.46 146.49C575.87 146.9 576.23 147.14 576.54 147.22C576.86 147.29 577.13 147.21 577.37 146.97C577.61 146.73 577.69 146.46 577.62 146.17C577.56 145.87 577.33 145.52 576.94 145.12L576.15 144.34ZM580.27 141.54C580.83 142.1 581.15 142.61 581.23 143.07C581.31 143.54 581.15 143.97 580.74 144.38C580.34 144.78 579.91 144.95 579.45 144.88C578.99 144.8 578.49 144.5 577.95 143.98L577.31 143.34C576.76 142.79 576.44 142.28 576.36 141.82C576.29 141.36 576.45 140.92 576.86 140.51C577.27 140.11 577.7 139.94 578.15 140.01C578.6 140.07 579.1 140.38 579.64 140.91L580.27 141.54ZM579.13 141.36C578.73 140.95 578.37 140.72 578.08 140.64C577.78 140.57 577.5 140.66 577.25 140.91C577.01 141.15 576.92 141.42 577 141.72C577.07 142.02 577.29 142.36 577.67 142.74L578.44 143.51C578.85 143.92 579.21 144.16 579.52 144.24C579.83 144.31 580.11 144.23 580.35 143.99C580.59 143.75 580.67 143.49 580.6 143.19C580.53 142.89 580.31 142.54 579.92 142.14L579.13 141.36Z" fill="#847361"/>
<path d="M535.14 180.3C535.14 180.3 522.64 176.92 522.32 183.15C521.99 189.37 534.76 183.46 534.76 183.46L535.14 180.3Z" fill="#FFA988"/>
<path d="M560.08 117.84C560.08 117.84 558.01 132.03 563.53 132.29C569.06 132.54 573.26 127.54 574.02 125.41C574.78 123.29 578.64 114.84 574.99 111.55C572.4 109.24 562.89 104.5 560.08 117.84Z" fill="#FFA988"/>
<path d="M577.41 118.49C577.77 118.23 578.07 117.89 578.29 117.5C578.5 117.1 578.61 116.66 578.62 116.21C578.63 115.76 578.53 115.31 578.34 114.91C578.14 114.5 577.86 114.15 577.5 113.87C578.01 113.44 578.34 112.82 578.42 112.16C578.53 111.48 578.37 110.79 577.97 110.24C577.57 109.68 576.96 109.31 576.29 109.2C576.06 109.17 575.84 109.17 575.61 109.2C575.58 108.62 575.33 108.08 574.92 107.68C574.51 107.28 573.96 107.04 573.39 107.02C572.81 107 572.25 107.19 571.81 107.56C571.36 107.93 571.08 108.45 571 109.02C571 109.05 571 109.08 571 109.11C570.81 108.74 570.53 108.42 570.2 108.18C569.86 107.95 569.47 107.79 569.06 107.73C568.65 107.67 568.24 107.7 567.84 107.83C567.45 107.97 567.1 108.19 566.81 108.48C566.66 108.16 566.44 107.88 566.17 107.67C565.9 107.45 565.58 107.3 565.24 107.22C564.9 107.15 564.54 107.16 564.21 107.25C563.87 107.33 563.56 107.5 563.29 107.73C562.67 107.23 561.92 106.91 561.13 106.81C559.93 106.72 558.73 107.08 557.78 107.82C556.83 108.57 556.19 109.64 555.99 110.83C555.78 112.02 556.03 113.25 556.68 114.27C557.33 115.28 558.34 116.02 559.51 116.34C559.51 116.67 559.6 118.37 560.13 117.84C563.38 114.65 569.89 115.47 569.89 115.47L572.13 120.39C572.13 120.39 574.25 117.31 575.4 119.36C576.55 121.42 573.68 123 573.68 123L574.31 124.69C575.47 123.53 576.11 121.86 576.54 119.97C576.59 120 576.65 120.01 576.71 120.02C576.82 120.03 576.93 120.02 577.03 119.99C577.14 119.96 577.24 119.91 577.32 119.84C577.41 119.77 577.48 119.68 577.53 119.59C577.59 119.49 577.62 119.38 577.63 119.27C577.66 119.14 577.65 118.99 577.61 118.86C577.58 118.72 577.5 118.6 577.41 118.49Z" fill="#252D4A"/>
<path d="M579.51 135.82C576.41 132.06 574.38 127.52 573.64 122.7C573.24 120.2 567.81 127.74 567.81 127.74L567.56 131.03C567.56 131.03 571.65 130.32 568.94 136.66C568.84 136.89 579.51 135.82 579.51 135.82Z" fill="#FFA988"/>
<path d="M577.04 118.87C578.57 119.11 579.63 117.54 579.41 116.12C579.18 114.71 577.44 113.15 575.91 113.69C575.88 113.7 575.85 113.72 575.84 113.74C575.82 113.77 575.81 113.8 575.81 113.83C575.81 113.86 575.82 113.89 575.84 113.91C575.85 113.94 575.88 113.96 575.91 113.97C577.1 114.29 578.33 114.33 578.83 115.72C579.33 117.11 578.42 118.29 577.04 118.67C576.94 118.67 576.93 118.86 577.04 118.87Z" fill="#252D4A"/>
<path d="M560.09 116.1C558.11 116.49 556.21 115.52 556.26 113.26C556.29 111.63 557.51 110.4 558.82 109.63C558.97 109.54 558.87 109.28 558.71 109.34C556.74 110.07 555.32 111.99 555.81 114.14C556.22 115.96 558.45 117.57 560.18 116.36C560.22 116.34 560.24 116.32 560.26 116.28C560.27 116.25 560.27 116.21 560.26 116.17C560.24 116.14 560.22 116.11 560.18 116.1C560.15 116.09 560.11 116.09 560.07 116.1H560.09Z" fill="#252D4A"/>
<path d="M568.96 134.29L567.66 138.91L582.49 138.1L577.27 131.56L568.96 134.29Z" fill="#E6E9E6"/>
<path opacity="0.5" d="M558.71 175.33C558.71 175.33 576.54 144.66 579.07 144.21C582.4 143.59 587.92 144.28 587.94 152.11C587.94 155.47 564.19 184.22 560.87 184.82C560.13 184.96 536.78 187.62 532.72 182.5C531.21 180.6 558.71 175.33 558.71 175.33Z" fill="black"/>
<path d="M557.59 175.29C557.59 175.29 575.56 144.21 578.11 143.76C581.47 143.13 587.05 143.84 587.07 151.77C587.07 155.18 563.14 184.32 559.79 184.89C559.04 185.02 535.48 187.71 531.37 182.51C529.85 180.61 557.59 175.29 557.59 175.29Z" fill="#FFA988"/>
<path d="M578.13 143.76C581.48 143.13 587.06 143.84 587.08 151.77C587.08 154.57 571.01 174.64 563.33 182.12C562.22 179.12 560.52 176.37 558.33 174.04C561.71 168.25 575.87 144.16 578.13 143.76Z" fill="#E6E9E6"/>
<path opacity="0.5" d="M561.51 168.62C564.76 170.12 567.57 172.43 569.68 175.32C569.68 175.32 569.48 175.57 568.83 176.28C568.18 176.99 560.64 170.23 560.84 169.81C561.04 169.4 561.27 169 561.51 168.62Z" fill="black"/>
<path d="M556.41 173.76C556.41 173.76 563.13 181.49 563.09 183.56C563.09 183.56 568.39 178.47 570.24 177.46C570.24 177.46 566.49 171.25 560.32 168.86C558.86 170.33 557.53 171.91 556.33 173.59" fill="#E6E9E6"/>
<path d="M119.125 341.11C133.885 341.11 145.85 329.15 145.85 314.39C145.85 299.63 133.885 287.66 119.125 287.66C104.365 287.66 92.4 299.63 92.4 314.39C92.4 329.15 104.365 341.11 119.125 341.11Z" stroke="#A8B4C6" stroke-width="1.875" stroke-miterlimit="10" stroke-dasharray="4.42 4.42"/>
</svg>
