<svg width="100" height="100" viewBox="0 0 100 100" fill="none" xmlns="http://www.w3.org/2000/svg">
<path d="M99 50C99 22.938 77.062 1 50 1C22.938 1 1 22.938 1 50C1 77.062 22.938 99 50 99C77.062 99 99 77.062 99 50Z" fill="white" stroke="#EAEDF3" stroke-width="2"/>
<path fill-rule="evenodd" clip-rule="evenodd" d="M42 26H29C27.343 26 26 27.34 26 29V42H28V29C28 28.45 28.448 28 29 28H42V26ZM58 28V26H71C72.657 26 74 27.34 74 29V42H72V29C72 28.45 71.552 28 71 28H58ZM58 72H71C71.552 72 72 71.55 72 71V58H74V71C74 72.66 72.657 74 71 74H58V72ZM28 58V71C28 71.55 28.448 72 29 72H42V74H29C27.343 74 26 72.66 26 71V58H28Z" fill="#8894AA"/>
<path d="M56.707 46.21L55.293 44.79L49 51.09L46.707 48.79L45.293 50.21L49 53.91L56.707 46.21Z" fill="#8894AA"/>
<path fill-rule="evenodd" clip-rule="evenodd" d="M35 60V34H37V60H35ZM39 60V34H41V44.41C40.358 45.81 40 47.36 40 49C40 50.64 40.358 52.19 41 53.59V60H39ZM43 56.55V60H45V58.22C44.268 57.74 43.597 57.18 43 56.55ZM46 58.8V60H48V59.59C47.303 59.39 46.634 59.12 46 58.8ZM48 38.41C47.303 38.61 46.634 38.88 46 39.2V34H48V38.41ZM49 59.8199V60H51C50.317 60 49.649 59.9399 49 59.8199ZM51 38C50.317 38 49.649 38.0601 49 38.1801V34H51V38ZM52 59.96V60H54V59.59C53.355 59.77 52.687 59.89 52 59.96ZM54 38.41C53.355 38.23 52.687 38.11 52 38.04V34H54V38.41ZM57 58.22V60H59V56.55C58.403 57.18 57.732 57.74 57 58.22ZM59 41.45C58.403 40.82 57.732 40.26 57 39.78V34H59V41.45ZM61 53.59C61.642 52.19 62 50.64 62 49C62 47.36 61.642 45.81 61 44.41V34H63V60H61V53.59ZM45 39.78C44.268 40.26 43.597 40.82 43 41.45V34H45V39.78ZM64 34V60H66V34H64ZM35 66V62H37V66H35ZM39 62V66H41V62H39ZM43 66V62H45V66H43ZM46 62V66H48V62H46ZM49 66V62H51V66H49ZM52 62V66H54V62H52ZM57 66V62H59V66H57ZM61 62V66H63V62H61ZM64 66V62H66V66H64Z" fill="#8894AA"/>
</svg>
