<svg width="100" height="100" viewBox="0 0 100 100" fill="none" xmlns="http://www.w3.org/2000/svg">
	<path id="path1" d="M99 50C99 22.938 77.062 1 50 1C22.938 1 1 22.938 1 50C1 77.062 22.938 99 50 99C77.062 99 99 77.062 99 50Z" fill="white" stroke="#EAEDF3" stroke-width="2"/>
	<path fill-rule="evenodd" clip-rule="evenodd" d="M63.143 60.5C63.264 60.526 63.392 60.552 63.527 60.578C64.898 60.835 66.833 61 69 61C71.167 61 73.102 60.835 74.473 60.578C74.608 60.552 74.736 60.526 74.857 60.5C74.736 60.474 74.608 60.448 74.473 60.422C73.102 60.165 71.167 60 69 60C66.833 60 64.898 60.165 63.527 60.422C63.392 60.448 63.264 60.474 63.143 60.5ZM63.159 58.457C64.684 58.171 66.748 58 69 58C71.252 58 73.316 58.171 74.841 58.457C75.595 58.598 76.268 58.777 76.777 59.002C77.027 59.113 77.294 59.26 77.513 59.46C77.73 59.66 78 60.008 78 60.5V65.5V70.5V75.5C78 75.992 77.73 76.341 77.513 76.54C77.294 76.74 77.027 76.887 76.777 76.998C76.268 77.223 75.595 77.402 74.841 77.544C73.316 77.83 71.252 78 69 78C66.748 78 64.684 77.83 63.159 77.544C62.405 77.402 61.732 77.223 61.223 76.998C61.15 76.965 61.075 76.93 61 76.891C60.925 76.93 60.85 76.965 60.777 76.998C60.268 77.223 59.595 77.402 58.841 77.544C57.316 77.83 55.252 78 53 78C50.748 78 48.684 77.83 47.159 77.544C46.405 77.402 45.732 77.223 45.223 76.998C44.973 76.887 44.706 76.74 44.487 76.54C44.27 76.341 44 75.992 44 75.5V70.5C44 70.008 44.27 69.66 44.487 69.46C44.706 69.26 44.973 69.113 45.223 69.002C45.732 68.777 46.405 68.598 47.159 68.457C48.684 68.171 50.748 68 53 68C55.252 68 57.316 68.171 58.841 68.457C59.257 68.534 59.648 68.624 60 68.726V65.5V60.5C60 60.008 60.27 59.66 60.487 59.46C60.706 59.26 60.973 59.113 61.223 59.002C61.732 58.777 62.405 58.598 63.159 58.457ZM62 72.274V75.154C62.011 75.159 62.022 75.164 62.034 75.17C62.335 75.303 62.834 75.448 63.527 75.578C64.898 75.835 66.833 76 69 76C71.167 76 73.102 75.835 74.473 75.578C75.166 75.448 75.665 75.303 75.966 75.17C75.978 75.164 75.989 75.159 76 75.154V72.274C75.648 72.376 75.257 72.466 74.841 72.544C73.316 72.83 71.252 73 69 73C66.748 73 64.684 72.83 63.159 72.544C62.743 72.466 62.352 72.376 62 72.274ZM60 72.274C59.648 72.376 59.257 72.466 58.841 72.544C57.316 72.83 55.252 73 53 73C50.748 73 48.684 72.83 47.159 72.544C46.743 72.466 46.352 72.376 46 72.274V75.154C46.011 75.159 46.022 75.164 46.034 75.17C46.335 75.303 46.834 75.448 47.527 75.578C48.898 75.835 50.833 76 53 76C55.167 76 57.102 75.835 58.473 75.578C59.166 75.448 59.665 75.303 59.966 75.17C59.978 75.164 59.989 75.159 60 75.154V72.274ZM74.841 62.544C75.257 62.466 75.648 62.376 76 62.274V65.154C75.989 65.159 75.978 65.164 75.966 65.17C75.665 65.303 75.166 65.448 74.473 65.578C73.102 65.835 71.167 66 69 66C66.833 66 64.898 65.835 63.527 65.578C62.834 65.448 62.335 65.303 62.034 65.17C62.022 65.164 62.011 65.159 62 65.154V62.274C62.352 62.376 62.743 62.466 63.159 62.544C64.684 62.83 66.748 63 69 63C71.252 63 73.316 62.83 74.841 62.544ZM74.841 67.544C75.257 67.466 75.648 67.376 76 67.274V70.154C75.991 70.159 75.981 70.163 75.972 70.167L75.966 70.17C75.665 70.303 75.166 70.448 74.473 70.578C73.102 70.835 71.167 71 69 71C66.833 71 64.898 70.835 63.527 70.578C62.834 70.448 62.335 70.303 62.034 70.17C62.022 70.164 62.011 70.159 62 70.154V67.274C62.352 67.376 62.743 67.466 63.159 67.544C64.684 67.83 66.748 68 69 68C71.252 68 73.316 67.83 74.841 67.544ZM47.143 70.5C47.264 70.526 47.392 70.552 47.527 70.578C48.898 70.835 50.833 71 53 71C55.167 71 57.102 70.835 58.473 70.578C58.608 70.552 58.736 70.526 58.857 70.5C58.736 70.474 58.608 70.448 58.473 70.422C57.102 70.165 55.167 70 53 70C50.833 70 48.898 70.165 47.527 70.422C47.392 70.448 47.264 70.474 47.143 70.5Z" fill="#8894AA"/>
	<path fill-rule="evenodd" clip-rule="evenodd" d="M32 24.412L34.25 26L38.5 23L42.75 26L47 23L51.25 26L55.5 23L59.75 26L62 24.412L64 23V25.448V46H68H70V48V54.01C69.669 54.004 69.336 54 69 54C68.664 54 68.331 54.004 68 54.01V48H64V53V54.283C63.444 54.352 62.915 54.433 62.422 54.525C61.826 54.637 61.162 54.787 60.509 55H32H30V53V48H26V76H40.023C40.095 76.786 40.333 77.453 40.626 78H26H24V76V48V46H26H30V25.448V23L32 24.412ZM56.214 59C56.082 59.448 56 59.948 56 60.5V61H52V59H56.214ZM62 26.86V46V48V51V53H60H34H32V51V48V46V26.86L33.097 27.634L34.25 28.448L35.403 27.634L38.5 25.448L41.597 27.634L42.75 28.448L43.903 27.634L47 25.448L50.097 27.634L51.25 28.448L52.403 27.634L55.5 25.448L58.597 27.634L59.75 28.448L60.903 27.634L62 26.86ZM48 61H34V59H48V61Z" fill="#8894AA"/>
</svg>
