<svg width="927" height="459" viewBox="0 0 927 459" fill="none" xmlns="http://www.w3.org/2000/svg">
<path d="M16.4444 268.37C63.4621 210.58 155.977 247.12 203.2 207.92C250.424 168.72 177.465 125.09 231.097 73.59C284.73 22.1 379.246 -8.13003 480.131 3.06997C581.001 14.26 679.757 82.55 744.156 73.59C808.554 64.64 993.183 -23.79 1117.69 139.64C1242.21 303.07 838.646 298.59 870.839 340.01C903.032 381.43 911.625 436.26 789.268 449.71C666.899 463.16 475.841 469.86 462.971 412.77C450.089 355.67 241.86 406.06 164.585 406.06C78.0517 406.06 -43.6351 342.25 16.4444 268.37Z" fill="#E9EAEC"/>
<path d="M133.319 148.25C81.4508 145.89 62.7972 196.96 78.3194 210.75C107.859 237 171.514 218.25 183.736 199.5C195.958 180.75 188.32 150.75 133.319 148.25Z" fill="#E9EAEC"/>
<path d="M615.737 69.5899C633.593 67.2299 645.73 53.47 642.845 38.86C639.961 24.25 623.143 14.3201 605.274 16.6801C587.418 19.0401 575.281 32.8 578.165 47.41C581.05 62.02 597.868 71.9499 615.737 69.5899Z" stroke="#A8B4C6" stroke-width="1.875" stroke-miterlimit="10" stroke-dasharray="4.42 4.42"/>
<path d="M133.014 254.86C151.054 254.86 165.678 242.9 165.678 228.14C165.678 213.38 151.054 201.41 133.014 201.41C114.974 201.41 100.35 213.38 100.35 228.14C100.35 242.9 114.974 254.86 133.014 254.86Z" stroke="#A8B4C6" stroke-width="1.875" stroke-miterlimit="10" stroke-dasharray="4.42 4.42"/>
<path d="M767.94 142.67H537.661V331.08H767.94V142.67Z" fill="#BFA384"/>
<path d="M663.794 142.67V191.52L637.395 179.28V142.67H663.794Z" fill="#A07F56"/>
<path d="M794.438 329.94L767.94 331.09V142.67L794.438 132.34V329.94Z" fill="#A88662"/>
<path d="M794.401 132.37H564.11L537.661 142.67H767.94L794.401 132.37Z" fill="#CEB493"/>
<path d="M637.395 142.67L665.921 132.42H692.309L663.795 142.67H637.395Z" fill="#A07F56"/>
<path d="M734.744 41.04H616.898V137.46H734.744V41.04Z" fill="#BFA384"/>
<path d="M681.443 41.04V66.03L667.938 59.77V41.04H681.443Z" fill="#A07F56"/>
<path d="M748.299 132.76L734.744 137.46V41.04L748.299 35.75V132.76Z" fill="#A88662"/>
<path d="M748.287 35.76H630.428L616.898 41.04H734.744L748.287 35.76Z" fill="#CEB493"/>
<path d="M667.938 41.04L682.519 35.79H696.037L681.443 41.04H667.938Z" fill="#A07F56"/>
<path d="M211.732 362.1H831.936V338.86H211.732V362.1Z" fill="#405263"/>
<path d="M218.875 331.81L218.569 304.5C218.569 304.5 216.882 292.62 239.194 282.94C263.333 272.49 337.323 240.94 337.323 240.94L355.214 184.81C355.214 184.81 359.079 178.86 372.615 175.89C386.151 172.92 436.901 164.74 436.901 164.74H633.227L433.247 317.86L433.051 326.06L422.149 326.36L414.791 331.98L221.167 331.95L218.875 332V331.94V331.81Z" fill="#8099BC"/>
<path d="M421.452 93.61H421.526C422.552 92.69 423.799 91.9501 425.192 91.4301C426.586 90.9201 428.089 90.64 429.617 90.62L517.287 90.33C524.314 90.33 530.279 95.96 530.499 102.83L530.951 115.37C531.098 119.37 529.167 122.43 526.368 125.26L523.19 128.71L422.552 131.51L416.649 98.92L421.452 93.61Z" fill="#0E47A1"/>
<path d="M426.647 132.51L514.317 132.22C521.332 132.22 526.881 126.54 526.625 119.64L526.185 107.09C525.94 100.22 519.988 94.59 512.972 94.59L425.302 94.88C418.275 94.88 412.738 100.57 412.982 107.47L413.434 120.01C413.667 126.91 419.619 132.53 426.647 132.51Z" fill="#8099BC"/>
<path d="M230.378 331.82H406.981V298.06H230.378V331.82Z" fill="#223244"/>
<path d="M399.489 332.14L393.378 332.26L221.616 306.24L227.728 302.84H399.489V332.14Z" fill="#0E47A1"/>
<path d="M221.609 332.26H393.366V306.24H221.609V332.26Z" fill="#8099BC"/>
<path d="M305.324 327.13C310.665 327.13 314.995 323.8 314.995 319.7C314.995 315.6 310.665 312.27 305.324 312.27C299.983 312.27 295.654 315.6 295.654 319.7C295.654 323.8 299.983 327.13 305.324 327.13Z" fill="#0E47A1"/>
<path d="M304.476 323.32H306.165V316.07H304.476V323.32Z" fill="#223244"/>
<path d="M473.054 169.71H476.269C479.471 169.71 482.074 167.59 482.074 164.96V133.82C482.074 131.2 479.471 129.07 476.269 129.07H473.054C469.84 129.07 467.249 131.2 467.249 133.82V164.96C467.249 167.59 469.84 169.71 473.054 169.71Z" fill="#8099BC"/>
<path d="M423.42 122.13H515.184V103.42H423.42V122.13Z" fill="#1050CC"/>
<path d="M515.184 103.42V122.13H490.251C490.251 122.13 515.062 103.52 515.184 103.42Z" fill="#0D4EB7"/>
<path d="M505.333 103.42L480.974 122.17H474.032L498.477 103.38C498.477 103.38 505.468 103.33 505.333 103.42Z" fill="#0D4EB7"/>
<path d="M364.594 243.42V246.37L354.465 250.61H332.382V247.67L364.594 243.42Z" fill="#B9C4D6"/>
<path d="M332.382 247.67H354.465L364.594 243.42H342.503L332.382 247.67Z" fill="#D1DBEF"/>
<path d="M398.438 243.42V246.37L388.306 250.61H366.214V247.67L398.438 243.42Z" fill="#B9C4D6"/>
<path d="M366.214 247.67H388.306L398.438 243.42H376.342L366.214 247.67Z" fill="#D1DBEF"/>
<path d="M432.269 243.42V246.37L422.149 250.61H400.051V247.67L432.269 243.42Z" fill="#B9C4D6"/>
<path d="M400.051 247.67H422.149L432.269 243.42H410.183L400.051 247.67Z" fill="#D1DBEF"/>
<path d="M466.112 243.42V246.37L455.98 250.61H433.894V247.67L466.112 243.42Z" fill="#B9C4D6"/>
<path d="M433.894 247.67H455.98L466.112 243.42H444.027L433.894 247.67Z" fill="#D1DBEF"/>
<path d="M499.943 243.42V246.37L489.823 250.61H467.738V247.67L499.943 243.42Z" fill="#B9C4D6"/>
<path d="M467.738 247.67H489.823L499.943 243.42H477.858L467.738 247.67Z" fill="#D1DBEF"/>
<path d="M339.455 252.6V255.54L329.333 259.78H307.242V256.84L339.455 252.6Z" fill="#B9C4D6"/>
<path d="M307.242 256.84H329.333L339.455 252.6H317.363L307.242 256.84Z" fill="#D1DBEF"/>
<path d="M373.295 252.6V255.54L363.173 259.78H341.081V256.84L373.295 252.6Z" fill="#B9C4D6"/>
<path d="M341.081 256.84H363.173L373.295 252.6H351.204L341.081 256.84Z" fill="#D1DBEF"/>
<path d="M407.14 252.6V255.54L397.008 259.78H374.922V256.84L407.14 252.6Z" fill="#B9C4D6"/>
<path d="M374.922 256.84H397.008L407.14 252.6H385.043L374.922 256.84Z" fill="#D1DBEF"/>
<path d="M440.971 252.6V255.54L430.851 259.78H408.753V256.84L440.971 252.6Z" fill="#B9C4D6"/>
<path d="M408.753 256.84H430.851L440.971 252.6H418.886L408.753 256.84Z" fill="#D1DBEF"/>
<path d="M474.802 252.6V255.54L464.682 259.78H442.597V256.84L474.802 252.6Z" fill="#B9C4D6"/>
<path d="M442.597 256.84H464.682L474.802 252.6H452.729L442.597 256.84Z" fill="#D1DBEF"/>
<path d="M315.285 262.51V265.45L305.164 269.69H283.072V266.76L315.285 262.51Z" fill="#B9C4D6"/>
<path d="M283.072 266.76H305.164L315.285 262.51H293.193L283.072 266.76Z" fill="#D1DBEF"/>
<path d="M349.126 262.51V265.45L338.996 269.69H316.912V266.76L349.126 262.51Z" fill="#B9C4D6"/>
<path d="M316.912 266.76H338.996L349.126 262.51H327.034L316.912 266.76Z" fill="#D1DBEF"/>
<path d="M382.966 262.51V265.45L372.836 269.69H350.744V266.76L382.966 262.51Z" fill="#B9C4D6"/>
<path d="M350.744 266.76H372.836L382.966 262.51H360.874L350.744 266.76Z" fill="#D1DBEF"/>
<path d="M416.808 262.51V265.45L406.676 269.69H384.585V266.76L416.808 262.51Z" fill="#B9C4D6"/>
<path d="M384.585 266.76H406.676L416.808 262.51H394.71L384.585 266.76Z" fill="#D1DBEF"/>
<path d="M450.639 262.51V265.45L440.519 269.69H418.421V266.76L450.639 262.51Z" fill="#B9C4D6"/>
<path d="M418.421 266.76H440.519L450.639 262.51H428.553L418.421 266.76Z" fill="#D1DBEF"/>
<path d="M295.302 273.66V276.6L285.181 280.84H263.089V277.91L295.302 273.66Z" fill="#9B2727"/>
<path d="M263.089 277.91H285.181L295.302 273.66H273.217L263.089 277.91Z" fill="#F98282"/>
<path d="M329.143 273.66V276.6L319.02 280.84H296.929V277.91L329.143 273.66Z" fill="#46896F"/>
<path d="M296.929 277.91H319.02L329.143 273.66H307.051L296.929 277.91Z" fill="#89D3BC"/>
<path d="M362.982 273.66V276.6L352.861 280.84H330.769V277.91L362.982 273.66Z" fill="#B9C4D6"/>
<path d="M330.769 277.91H352.861L362.982 273.66H340.891L330.769 277.91Z" fill="#D1DBEF"/>
<path d="M396.824 273.66V276.6L386.693 280.84H364.61V277.91L396.824 273.66Z" fill="#B9C4D6"/>
<path d="M364.61 277.91H386.693L396.824 273.66H374.732L364.61 277.91Z" fill="#D1DBEF"/>
<path d="M430.668 273.66V276.6L420.536 280.84H398.438V277.91L430.668 273.66Z" fill="#B9C4D6"/>
<path d="M398.438 277.91H420.536L430.668 273.66H408.57L398.438 277.91Z" fill="#D1DBEF"/>
<path d="M356.871 222.24H521.931L530.89 195.97H365.824L356.871 222.24Z" fill="#1050CC"/>
<path d="M608.978 183.37H356.596C358.651 181.41 363.387 177.97 372.638 175.94C386.174 172.96 436.938 164.78 436.938 164.78H633.251L608.978 183.37Z" fill="#8CA3BF"/>
<path d="M628.863 333.13L414.718 332V304.5C414.718 304.5 413.019 292.54 435.019 282.94C459.109 272.42 533.151 240.94 533.151 240.94L551.032 184.81C551.032 184.81 554.907 178.86 568.437 175.89C581.979 172.92 632.738 164.74 632.738 164.74L628.863 333.13Z" fill="#0E47A1"/>
<path d="M679.231 331.27H580.61V274.77C580.61 274.77 580.61 263.62 600.923 268.08L671.494 306.74C671.494 306.74 680.197 309.71 680.197 320.86C680.197 332.01 679.231 331.27 679.231 331.27Z" fill="#1A3765"/>
<path d="M591.696 267.06L509.196 267.16L510.675 300.51C510.675 300.51 570.625 324.3 573.521 323.56C576.43 322.81 646.036 322.07 646.036 322.07L668.268 314.64L591.696 267.06Z" fill="#1A3765"/>
<path d="M594.152 331.27H495.531V274.77C495.531 274.77 495.531 263.62 515.832 268.08L586.415 306.74C586.415 306.74 595.118 309.71 595.118 320.86C595.118 332.01 594.152 331.27 594.152 331.27Z" fill="#223244"/>
<path d="M595.961 274.96H542.538L553.293 280.62H606.24L595.961 274.96Z" fill="#223244"/>
<path d="M620.723 283.32L636.893 286.45V289.65C636.893 289.94 636.429 290.14 635.61 290.14H628.729C626.969 290.06 625.258 289.58 623.803 288.75L621.518 287.31C621.005 286.99 620.748 286.69 620.748 286.46L620.723 283.32Z" fill="#B9C4D6"/>
<path d="M628.68 287.04H635.561C637.089 287.04 637.309 286.41 636.099 285.65L633.813 284.21C632.359 283.38 630.648 282.9 628.876 282.82H622.007C620.479 282.82 620.247 283.45 621.457 284.21L623.742 285.65C625.197 286.49 626.908 286.97 628.68 287.04Z" fill="#D1DBEF"/>
<path d="M600.813 283.32L616.996 286.45V289.65C616.996 289.94 616.519 290.14 615.7 290.14H608.819C607.059 290.06 605.348 289.58 603.893 288.75L601.596 287.31C601.082 286.99 600.838 286.69 600.838 286.46L600.813 283.32Z" fill="#B9C4D6"/>
<path d="M608.758 287.04H615.639C617.167 287.04 617.386 286.41 616.189 285.65L613.891 284.21C612.449 283.38 610.738 282.9 608.966 282.82H602.097C600.569 282.82 600.349 283.45 601.547 284.21L603.844 285.65C605.287 286.48 606.998 286.96 608.758 287.04Z" fill="#D1DBEF"/>
<path d="M580.879 283.32L597.037 286.45V289.65C597.037 289.94 596.56 290.14 595.741 290.14H588.86C587.1 290.06 585.389 289.58 583.934 288.75L581.649 287.31C581.135 286.99 580.879 286.69 580.879 286.46V283.32Z" fill="#B9C4D6"/>
<path d="M588.836 287.04H595.704C597.232 287.04 597.465 286.41 596.255 285.65L593.969 284.21C592.515 283.38 590.803 282.9 589.043 282.82H582.162C580.634 282.82 580.402 283.45 581.612 284.21L583.91 285.65C585.352 286.49 587.063 286.97 588.836 287.04Z" fill="#D1DBEF"/>
<path d="M560.944 283.32L577.115 286.45V289.65C577.078 289.94 576.65 290.14 575.819 290.14H568.95C567.178 290.06 565.479 289.58 564.024 288.75L561.727 287.31C561.226 286.99 560.969 286.69 560.969 286.46L560.944 283.32Z" fill="#B9C4D6"/>
<path d="M568.901 287.04H575.782C577.31 287.04 577.53 286.41 576.32 285.65L574.034 284.21C572.58 283.38 570.869 282.9 569.097 282.82H562.216C560.688 282.82 560.468 283.45 561.665 284.21L563.963 285.65C565.418 286.49 567.129 286.97 568.901 287.04Z" fill="#D1DBEF"/>
<path d="M638.776 291.37L654.946 294.5V297.7C654.946 297.99 654.469 298.19 653.638 298.19H646.769C644.997 298.11 643.286 297.63 641.831 296.8L639.546 295.36C639.032 295.04 638.776 294.73 638.776 294.51V291.37Z" fill="#B9C4D6"/>
<path d="M646.732 295.12H653.613C655.141 295.12 655.373 294.5 654.163 293.74L651.866 292.3C650.423 291.47 648.712 290.99 646.94 290.91H640.071C638.543 290.91 638.311 291.54 639.521 292.3L641.807 293.74C643.261 294.57 644.972 295.05 646.732 295.12Z" fill="#D1DBEF"/>
<path d="M618.853 291.37L635.011 294.5V297.7C635.011 297.99 634.547 298.19 633.716 298.19H626.834C625.074 298.11 623.363 297.63 621.909 296.8L619.623 295.36C619.11 295.04 618.853 294.73 618.853 294.51V291.37Z" fill="#B9C4D6"/>
<path d="M626.786 295.12H633.667C635.194 295.12 635.427 294.5 634.217 293.74L631.919 292.3C630.477 291.47 628.766 290.99 626.993 290.91H620.112C618.585 290.91 618.352 291.54 619.562 292.3L621.86 293.74C623.314 294.57 625.026 295.05 626.786 295.12Z" fill="#D1DBEF"/>
<path d="M598.919 291.37L615.089 294.5V297.7C615.089 297.99 614.624 298.19 613.793 298.19H606.924C605.152 298.11 603.441 297.63 601.987 296.8L599.701 295.36C599.188 295.04 598.931 294.73 598.931 294.51L598.919 291.37Z" fill="#B9C4D6"/>
<path d="M606.888 295.12H613.757C615.284 295.12 615.504 294.5 614.307 293.74L612.009 292.3C610.554 291.47 608.843 290.99 607.071 290.91H600.202C598.674 290.91 598.454 291.54 599.652 292.3L601.95 293.74C603.404 294.57 605.115 295.05 606.888 295.12Z" fill="#D1DBEF"/>
<path d="M578.997 291.37L595.154 294.5V297.7C595.118 297.99 594.69 298.19 593.859 298.19H586.99C585.218 298.11 583.507 297.63 582.052 296.8L579.754 295.36C579.253 295.04 578.997 294.73 578.997 294.51V291.37Z" fill="#B9C4D6"/>
<path d="M586.953 295.12H593.834C595.362 295.12 595.582 294.5 594.384 293.74L592.087 292.3C590.632 291.47 588.933 290.99 587.161 290.91H580.28C578.752 290.91 578.532 291.54 579.73 292.3L582.028 293.74C583.482 294.57 585.181 295.05 586.953 295.12Z" fill="#D1DBEF"/>
<path d="M653.76 299.74L669.93 302.86V306.06C669.93 306.36 669.466 306.55 668.634 306.55H661.766C659.993 306.48 658.282 305.99 656.828 305.16L654.53 303.72C654.029 303.4 653.772 303.1 653.772 302.87L653.76 299.74Z" fill="#B9C4D6"/>
<path d="M661.729 303.46H668.598C670.125 303.46 670.345 302.83 669.148 302.07L666.862 300.63C665.408 299.8 663.697 299.32 661.924 299.24H655.055C653.528 299.24 653.308 299.87 654.518 300.63L656.803 302.07C658.258 302.9 659.957 303.38 661.729 303.46Z" fill="#D1DBEF"/>
<path d="M633.838 299.74L649.995 302.86V306.06C649.995 306.36 649.531 306.55 648.7 306.55H641.831C640.059 306.48 638.348 306 636.893 305.16L634.608 303.72C634.107 303.4 633.838 303.1 633.838 302.87V299.74Z" fill="#9B2727"/>
<path d="M641.794 303.46H648.663C650.191 303.46 650.423 302.83 649.213 302.07L646.928 300.63C645.473 299.8 643.774 299.32 642.002 299.24H635.121C633.593 299.24 633.373 299.87 634.571 300.63L636.869 302.07C638.311 302.9 640.022 303.38 641.794 303.46Z" fill="#F98282"/>
<path d="M594.03 304.61V300.12L628.668 303.16V307.62H628.619C628.619 308.06 627.299 308.34 625.013 308.34H609.027C605.531 308.34 600.997 307.67 598.931 306.86L595.032 305.31C594.421 305.06 594.091 304.83 594.03 304.62V304.61Z" fill="#46896F"/>
<path d="M609.027 303.87H625.013C628.509 303.87 629.682 303.21 627.617 302.39L623.73 300.84C621.665 300.02 617.118 299.36 613.634 299.36H597.636C594.152 299.36 592.979 300.02 595.032 300.84L598.931 302.39C600.997 303.25 605.531 303.87 609.027 303.87Z" fill="#89D3BC"/>
<path d="M615.431 323.09H672.142V317.64H615.431V323.09Z" fill="#223244" stroke="#596084" stroke-width="1.53125" stroke-miterlimit="10"/>
<path d="M186.867 344.75H856.82V330.19H186.867V344.75Z" fill="#53667A"/>
</svg>
