<svg width="746" height="561" viewBox="0 -140 746 561" fill="none" xmlns="http://www.w3.org/2000/svg">
<path d="M19.787 285.75C66.55 234.44 135.856 282 179.969 249.08C224.081 216.16 171.625 164 222.837 119.75C274.05 75.5 354.97 57.28 434.89 80.82C514.8 104.36 584.34 184.06 637.77 183.17C691.21 182.27 853.89 117.68 929.89 294.62C1005.89 471.57 680.17 417.26 699.96 462.17C719.74 507.09 718.4 562.38 617.41 560.54C516.41 558.69 360.89 541.71 359.09 483.66C357.3 425.61 181.281 449.69 118.781 440.14C48.794 429.47 -39.988 351.35 19.787 285.75Z" fill="#E9EAEC"/>
<path d="M139.125 175.25C96.687 172.89 81.425 223.96 94.125 237.75C118.294 264 170.375 245.25 180.375 226.5C190.375 207.75 184.125 177.75 139.125 175.25Z" fill="#E9EAEC"/>
<path d="M613.87 200.61C628.63 200.61 640.6 188.65 640.6 173.89C640.6 159.13 628.63 147.16 613.87 147.16C599.11 147.16 587.15 159.13 587.15 173.89C587.15 188.65 599.11 200.61 613.87 200.61Z" stroke="#A8B4C6" stroke-width="1.875" stroke-miterlimit="10" stroke-dasharray="4.42 4.42"/>
<path d="M290.125 340.61C304.885 340.61 316.85 328.65 316.85 313.89C316.85 299.13 304.885 287.16 290.125 287.16C275.365 287.16 263.4 299.13 263.4 313.89C263.4 328.65 275.365 340.61 290.125 340.61Z" stroke="#A8B4C6" stroke-width="1.875" stroke-miterlimit="10" stroke-dasharray="4.42 4.42"/>
<g opacity="0.48">
<path opacity="0.48" d="M471.51 8.27002H406.65V29.8H471.51V8.27002Z" fill="#474747"/>
<path opacity="0.48" d="M507.29 12.51H365.72C359.04 12.51 353.62 17.93 353.62 24.61V232.48C353.62 239.16 359.04 244.58 365.72 244.58H507.29C513.97 244.58 519.39 239.16 519.39 232.48V24.61C519.39 17.93 513.97 12.51 507.29 12.51Z" fill="#A88662"/>
<path opacity="0.48" d="M511.27 16.5H369.71C363.03 16.5 357.61 21.92 357.61 28.6V236.47C357.61 243.15 363.03 248.57 369.71 248.57H511.27C517.96 248.57 523.37 243.15 523.37 236.47V28.6C523.37 21.92 517.96 16.5 511.27 16.5Z" fill="#CEB493"/>
<path opacity="0.48" d="M541.86 218.38C512.59 216.43 509.33 185.43 509.33 179V23.38H371.79C371.79 23.38 371.96 140.33 372.22 179.42C372.49 218.51 393.32 218.44 393.32 218.44H541.87C541.86 218.42 541.86 218.4 541.86 218.38Z" fill="#E2E8ED"/>
<path opacity="0.48" d="M393.32 218.42C393.32 218.42 408.37 220.04 410.97 198.93H557.69C557.69 198.93 554.95 216.91 541.87 218.42H393.32Z" fill="#CED6DB"/>
<path opacity="0.48" d="M441.91 0.25C441.85 0.97 441.52 1.65001 440.99 2.14001C440.46 2.64001 439.75 2.90997 439.03 2.90997C438.3 2.90997 437.6 2.64001 437.07 2.14001C436.53 1.65001 436.2 0.97 436.14 0.25H426.88V8.31006H451.17V0.25H441.91Z" fill="#4F4F4F"/>
<path opacity="0.48" d="M462.99 5.08002H415.03C413.21 5.08002 411.73 6.56 411.73 8.38V33.67C411.73 35.5 413.21 36.97 415.03 36.97H462.99C464.82 36.97 466.29 35.5 466.29 33.67V8.38C466.29 6.56 464.82 5.08002 462.99 5.08002Z" stroke="#888889" stroke-width="3.1875" stroke-miterlimit="10"/>
</g>
<path d="M423.98 55.63H355.18V78.47H423.98V55.63Z" fill="#474747"/>
<path d="M461.92 60.13H311.77C304.685 60.13 298.938 65.88 298.938 72.97V293.45C298.938 300.54 304.685 306.29 311.77 306.29H461.92C469.01 306.29 474.76 300.54 474.76 293.45V72.97C474.76 65.88 469.01 60.13 461.92 60.13Z" fill="#A88662"/>
<path d="M466.16 64.36H316.01C308.92 64.36 303.168 70.11 303.168 77.2V297.68C303.168 304.77 308.92 310.52 316.01 310.52H466.16C473.25 310.52 478.99 304.77 478.99 297.68V77.2C478.99 70.11 473.25 64.36 466.16 64.36Z" fill="#CEB493"/>
<path d="M498.6 278.47C467.56 276.41 464.1 243.52 464.1 236.68V71.64H318.2C318.2 71.64 318.39 195.69 318.67 237.15C318.95 278.61 341.04 278.54 341.04 278.54H498.61C498.61 278.54 498.6 278.49 498.6 278.47Z" fill="#E2E8ED"/>
<path d="M341.04 278.54C341.04 278.54 357.01 280.26 359.79 257.87H515.41C515.41 257.87 512.5 276.94 498.62 278.54H341.04Z" fill="#CED6DB"/>
<path d="M392.58 47.12C392.53 47.9 392.19 48.63 391.62 49.16C391.05 49.7 390.3 49.99 389.52 49.99C388.75 49.99 388 49.7 387.43 49.16C386.86 48.63 386.52 47.9 386.47 47.12H376.62V55.6801H402.39V47.12H392.58Z" fill="#4F4F4F"/>
<path d="M414.94 52.25H364.07C362.14 52.25 360.57 53.82 360.57 55.76V82.5699C360.57 84.5099 362.14 86.08 364.07 86.08H414.94C416.87 86.08 418.44 84.5099 418.44 82.5699V55.76C418.44 53.82 416.87 52.25 414.94 52.25Z" stroke="#888889" stroke-width="3.38125" stroke-miterlimit="10"/>
<path opacity="0.85" d="M333.84 110.21C329.05 110.2 324.43 112.03 320.94 115.32C320.34 107.5 316.74 100.22 310.89 95C305.036 89.79 297.389 87.04 289.555 87.34C281.721 87.64 274.309 90.97 268.877 96.62C263.445 102.28 260.415 109.82 260.425 117.66C260.428 119.44 260.585 121.21 260.894 122.97C260.148 122.83 259.39 122.76 258.631 122.76C255.337 122.83 252.203 124.19 249.899 126.55C247.595 128.9 246.305 132.06 246.305 135.36C246.305 138.65 247.595 141.82 249.899 144.17C252.203 146.53 255.337 147.89 258.631 147.96H333.84C338.79 147.87 343.51 145.84 346.97 142.31C350.44 138.78 352.38 134.03 352.38 129.08C352.38 124.14 350.44 119.39 346.97 115.86C343.51 112.32 338.79 110.3 333.84 110.21Z" fill="#D1DBEF"/>
<path opacity="0.85" d="M535.14 91.6C530.35 91.6 525.73 93.42 522.24 96.71C521.92 92.61 520.78 88.62 518.88 84.98C516.98 81.34 514.35 78.12 511.17 75.53C507.98 72.93 504.31 71.01 500.36 69.88C496.41 68.75 492.27 68.44 488.2 68.96C484.12 69.48 480.19 70.82 476.65 72.9C473.11 74.99 470.03 77.77 467.6 81.08C465.17 84.39 463.44 88.16 462.51 92.16C461.58 96.16 461.48 100.31 462.2 104.36C461.45 104.22 460.7 104.15 459.94 104.15C456.64 104.22 453.51 105.58 451.2 107.94C448.9 110.29 447.61 113.46 447.61 116.75C447.61 120.05 448.9 123.21 451.2 125.57C453.51 127.92 456.64 129.28 459.94 129.36H535.14C537.65 129.4 540.14 128.95 542.47 128.02C544.8 127.09 546.93 125.71 548.72 123.95C550.51 122.19 551.93 120.1 552.9 117.78C553.87 115.47 554.37 112.99 554.37 110.48C554.37 107.97 553.87 105.49 552.9 103.17C551.93 100.86 550.51 98.76 548.72 97.01C546.93 95.25 544.8 93.8699 542.47 92.9399C540.14 92.0099 537.65 91.55 535.14 91.6Z" fill="#94CDFF"/>
<path d="M475.47 241.46C477.09 244.59 483.71 245.47 486.81 244.66C489.92 243.84 480.29 240.46 479.19 240.02C478 239.63 476.97 238.86 476.26 237.83C475.59 236.71 474.43 239.46 475.47 241.46Z" fill="#DF9E88"/>
<path d="M517.38 243.84C510.31 249.35 501.76 250.85 492 247.09C482.24 243.34 483.71 243.09 483.71 243.09L483.64 241.52C483.64 241.52 501.27 237.83 511.52 238.33C521.77 238.83 517.38 243.84 517.38 243.84Z" fill="#DF9E88"/>
<path d="M531.9 258.61C531.9 258.61 514.77 256.67 515.46 257.53C516.14 258.39 509.31 296.91 508.12 312.22C506.93 327.53 517.96 369.38 517.96 369.38L522.26 369.18C522.26 369.18 523.26 351.35 522.64 335.49C522.02 319.62 519.51 322.99 521.86 313.84C524.21 304.69 529.7 290.48 531.69 273.98C533.67 257.48 535.19 258.82 535.19 258.82L531.9 258.61Z" fill="#253B59"/>
<path d="M536.96 255.76C536.96 255.76 519.82 257.64 520.66 258.32C521.49 259 526.43 299.84 528.02 315.13C529.62 330.42 539.57 369.26 539.57 369.26L543.45 369.01C543.45 369.01 545.15 348.56 541.7 333.14C538.25 317.73 543.19 287.1 542.17 270.49C541.16 253.87 540.22 255.25 540.22 255.25L536.96 255.76Z" fill="#253B59"/>
<path d="M513.64 184.17C513.64 184.17 511.88 196.54 516.57 196.76C521.26 196.97 524.83 192.62 525.47 190.79C526.12 188.96 529.4 181.58 526.3 178.71C524.12 176.68 516 172.56 513.64 184.17Z" fill="#DF9E88"/>
<path d="M530.14 199.84C527.48 196.54 525.76 192.59 525.14 188.41C524.79 186.24 520.18 192.78 520.18 192.78L519.97 195.64C519.97 195.64 523.44 195.02 521.15 200.53C521.07 200.76 530.14 199.84 530.14 199.84Z" fill="#DF9E88"/>
<path d="M525.52 190.67L524.99 189.16C524.99 189.16 527.44 187.73 526.46 185.89C525.49 184.04 523.55 186.91 523.55 186.91H522.78L522.01 182.16C524.42 182.39 526.52 183.7 528.66 184.84C527.55 187.17 526.1 190.06 525.52 190.67Z" fill="#563736"/>
<path d="M517.05 175.29C526.01 169.16 530.14 181.82 530.14 181.82C530.25 181.88 529.26 184.22 528.21 185.77C526.06 184.64 521.82 182.48 521.82 182.48C521.82 182.48 516.72 180.14 513.95 183.01C513.5 183.49 514.39 177.12 517.05 175.29Z" fill="#281814"/>
<path d="M513.85 182.75C513.85 182.75 511.42 166.82 525.9 174.62C525.9 174.62 513.79 169.69 513.85 182.75Z" fill="#281814"/>
<path d="M523.42 187.83C522.96 190.57 522.09 193.24 520.86 195.74C519.56 198.24 518.31 198.92 516.64 198.92C514.96 198.92 513.19 199.58 513.34 196.22C513.47 193.15 513.41 191.65 513.41 191.65C513.41 191.65 521.31 192.84 522.66 188.16L523.42 187.83Z" fill="#281814"/>
<path d="M518.24 190.56C514.57 191 513.11 188.48 513.17 189.94C513.34 193.73 518.24 190.56 518.24 190.56Z" fill="#281814"/>
<path d="M530.26 199.45L520.48 200.16C520.48 200.16 506.73 224.36 514.13 265.67L542.15 265.21C542.15 265.21 542.54 248.21 541.37 229.02C540.65 217.05 538.13 205.58 530.26 199.45Z" fill="#B5AAA7"/>
<path d="M518.26 369.28L522.12 369.11C522.12 369.11 523.75 373.73 521.79 374.83H505.84C505.84 374.83 504.59 372.02 509.99 371.9C515.39 371.77 518.26 369.28 518.26 369.28Z" fill="#601B13"/>
<path d="M539.66 369.16L543.54 368.99C543.54 368.99 545.16 373.61 543.2 374.71H527.25C527.25 374.71 526 371.9 531.4 371.77C536.8 371.65 539.66 369.16 539.66 369.16Z" fill="#601B13"/>
<path d="M475.48 214.79L470.94 219.34C467.2 223.08 467.2 229.14 470.94 232.88L504.3 266.25C508.04 269.99 514.11 269.99 517.84 266.25L522.39 261.7C526.13 257.96 526.13 251.9 522.39 248.16L489.03 214.79C485.29 211.05 479.22 211.05 475.48 214.79Z" fill="#0E47A1"/>
<path d="M477.89 212.39L473.34 216.94C469.6 220.68 469.6 226.74 473.34 230.48L506.71 263.85C510.45 267.59 516.51 267.59 520.25 263.85L524.8 259.3C528.54 255.56 528.54 249.5 524.8 245.76L491.43 212.39C487.69 208.65 481.63 208.65 477.89 212.39Z" fill="#1050CC"/>
<path d="M478.6 212.76L470.94 220.42L469.81 221.16L460.86 212.22L462.01 211.47L469.66 203.82L478.6 212.76Z" fill="#223244"/>
<path d="M470.96 202.51L462.02 211.45L470.96 220.39L479.9 211.45L470.96 202.51Z" fill="#8099BC"/>
<path d="M460.86 212.22L469.44 203.65L470.96 202.52L462.02 211.46L460.86 212.22Z" fill="#394756"/>
<path d="M471.12 216.88C471.44 216.88 471.7 216.62 471.7 216.31C471.7 215.99 471.44 215.73 471.12 215.73C470.81 215.73 470.55 215.99 470.55 216.31C470.55 216.62 470.81 216.88 471.12 216.88Z" fill="#394756"/>
<path d="M473.74 214.27C474.05 214.27 474.31 214.01 474.31 213.69C474.31 213.38 474.05 213.12 473.74 213.12C473.42 213.12 473.16 213.38 473.16 213.69C473.16 214.01 473.42 214.27 473.74 214.27Z" fill="#394756"/>
<path d="M476.36 211.66C476.67 211.66 476.93 211.4 476.93 211.08C476.93 210.76 476.67 210.51 476.36 210.51C476.04 210.51 475.78 210.76 475.78 211.08C475.78 211.4 476.04 211.66 476.36 211.66Z" fill="#394756"/>
<path d="M529.62 224.91L519.92 216.69C519.92 216.69 518.04 216.2 514.45 228.04C510.86 239.87 511.42 240.26 509.79 241.91C508.16 243.56 506.21 240.39 489.41 241.32L489.06 244.22C489.06 244.22 507.56 254.59 513.76 249.84C519.96 245.1 526.45 235.87 529.62 224.91Z" fill="#DF9E88"/>
<path d="M530.14 228.76C530.14 228.76 521.39 221.16 516.14 221.67C516.14 221.67 517.67 206.93 528.17 211.29C538.68 215.64 530.14 228.76 530.14 228.76Z" fill="#BFB6B4"/>
<path d="M489.41 241.32C489.41 241.32 477.96 238.19 477.65 243.93C477.34 249.67 489.06 244.22 489.06 244.22L489.41 241.32Z" fill="#DF9E88"/>
<path d="M445.37 102.12H339.75V105.01H445.37V102.12Z" fill="#BFCADB"/>
<path d="M445.37 109.81H339.75V112.7H445.37V109.81Z" fill="#BFCADB"/>
<path d="M445.37 117.51H339.75V120.39H445.37V117.51Z" fill="#BFCADB"/>
<path d="M445.37 125.19H339.75V128.08H445.37V125.19Z" fill="#BFCADB"/>
<path d="M445.37 132.88H339.75V135.77H445.37V132.88Z" fill="#BFCADB"/>
<path d="M445.37 140.57H339.75V143.46H445.37V140.57Z" fill="#BFCADB"/>
<path d="M445.37 148.26H339.75V151.15H445.37V148.26Z" fill="#BFCADB"/>
<path d="M445.37 155.95H339.75V158.84H445.37V155.95Z" fill="#BFCADB"/>
<path d="M445.37 163.64H339.75V166.52H445.37V163.64Z" fill="#BFCADB"/>
<path d="M445.37 171.33H339.75V174.22H445.37V171.33Z" fill="#BFCADB"/>
<path d="M445.37 179.02H339.75V181.91H445.37V179.02Z" fill="#BFCADB"/>
<path d="M445.37 186.71H339.75V189.59H445.37V186.71Z" fill="#BFCADB"/>
<path d="M445.37 194.39H339.75V197.28H445.37V194.39Z" fill="#BFCADB"/>
<path d="M445.37 202.09H339.75V204.97H445.37V202.09Z" fill="#BFCADB"/>
<path d="M445.37 209.77H339.75V212.66H445.37V209.77Z" fill="#BFCADB"/>
<path d="M445.37 217.46H339.75V220.35H445.37V217.46Z" fill="#BFCADB"/>
<path d="M445.37 225.16H339.75V228.04H445.37V225.16Z" fill="#BFCADB"/>
<path d="M445.37 232.84H339.75V235.73H445.37V232.84Z" fill="#BFCADB"/>
<path d="M445.37 240.53H339.75V243.42H445.37V240.53Z" fill="#BFCADB"/>
<path d="M422.1 173.94C422.1 166.17 419.01 158.71 413.52 153.22C408.02 147.72 400.57 144.64 392.8 144.64C385.03 144.64 377.58 147.72 372.08 153.22C366.59 158.71 363.5 166.17 363.5 173.94C363.5 174.81 363.54 175.68 363.62 176.54V232.09H421.98V176.54C422.06 175.68 422.1 174.81 422.1 173.94ZM392.8 149.39C399.27 149.39 405.48 151.95 410.08 156.51C414.67 161.07 417.28 167.25 417.34 173.72H368.26C368.32 167.25 370.93 161.07 375.53 156.51C380.12 151.96 386.33 149.4 392.8 149.39Z" fill="#8099BC"/>
<path d="M399.45 218.07L394.12 203.81C395.08 203.49 395.9 202.85 396.42 201.99C396.95 201.13 397.15 200.11 396.99 199.11C396.84 198.12 396.33 197.21 395.56 196.55C394.79 195.9 393.82 195.54 392.81 195.54C391.8 195.54 390.83 195.9 390.06 196.55C389.29 197.21 388.78 198.12 388.62 199.11C388.47 200.11 388.67 201.13 389.19 201.99C389.72 202.85 390.53 203.49 391.49 203.81L386.16 218.07H399.45Z" fill="#223244"/>
</svg>
