<svg width="100" height="100" viewBox="0 0 100 100" fill="none" xmlns="http://www.w3.org/2000/svg">
	<g id="lol">
	<path d="M99 50C99 22.938 77.062 1 50 1C22.938 1 1 22.938 1 50C1 77.062 22.938 99 50 99C77.062 99 99 77.062 99 50Z" fill="white" stroke="#EAEDF3" stroke-width="2"/>
	<path d="M96.931 67.25C99.711 59.68 100.621 51.56 99.585 43.57C98.548 35.58 95.596 27.96 90.978 21.35C86.361 14.75 80.216 9.36005 73.066 5.64005C65.916 1.92005 57.974 -0.00996134 49.915 3.86621e-05L49.919 1.99003C57.657 1.98003 65.283 3.83006 72.148 7.40006C79.013 10.9701 84.914 16.15 89.348 22.49C93.781 28.83 96.616 36.15 97.612 43.82C98.607 51.5 97.733 59.3001 95.063 66.5601L96.931 67.25Z" fill="#EAEDF3"/>
	<path  fill-rule="evenodd" clip-rule="evenodd" d="M76 67C76 71.97 71.971 76 67 76C62.029 76 58 71.97 58 67C58 62.03 62.029 58 67 58C71.971 58 76 62.03 76 67ZM78 67C78 73.08 73.075 78 67 78C60.925 78 56 73.08 56 67C56 60.92 60.925 56 67 56C73.075 56 78 60.92 78 67ZM65.707 71.21L72.707 64.21L71.293 62.79L65 69.09L62.707 66.79L61.293 68.21L64.293 71.21L65 71.91L65.707 71.21Z" fill="#8894AA"/>
	<path fill-rule="evenodd" clip-rule="evenodd" d="M74.208 34.96L64.036 24.79L55.343 33.49L65.515 43.66L74.208 34.96ZM62.622 23.38L53.929 32.0699L51.341 29.48L49.927 28.0699L48.513 29.48L26.5 51.5C20.7 57.3 20.7 66.7 26.5 72.5C32.3 78.3 41.704 78.3 47.504 72.5L52.031 67.97C52.01 67.65 52 67.33 52 67C52 66.34 52.043 65.69 52.126 65.05L46.089 71.09C41.07 76.1 32.933 76.1 27.914 71.09C22.895 66.07 22.895 57.93 27.914 52.91L49.927 30.9L52.515 33.49L37.363 48.64C33.773 52.23 33.773 58.05 37.363 61.64C40.953 65.23 46.773 65.23 50.363 61.64L65.515 46.49L68.102 49.0699L65.05 52.13C65.688 52.04 66.339 52 67 52C67.327 52 67.651 52.01 67.973 52.03L69.517 50.49L70.931 49.0699L69.517 47.66L66.929 45.0699L75.622 36.38L77.036 34.96L75.622 33.55L65.451 23.38L64.036 21.96L62.622 23.38ZM48.949 60.22L64.101 45.0699L53.929 34.9L38.777 50.05C35.969 52.86 35.969 57.41 38.777 60.22C41.586 63.03 46.14 63.03 48.949 60.22ZM65.142 31.03L63.728 29.62L60.192 33.15L61.607 34.5699L65.142 31.03ZM67.971 33.86L69.385 35.27L65.849 38.8101L64.435 37.39L67.971 33.86Z" fill="#8894AA"/>
</g>
</svg>
