<svg width="1480" height="669" viewBox="0 0 1440 669" fill="none" xmlns="http://www.w3.org/2000/svg">




<g transform="translate(20,-125)">


<path d="M1290.93 518.633H1282.07V596.735H1290.93V518.633Z" fill="#0E47A1"/>
<path opacity="0.4" d="M1419.85 413.238L1420.11 414.204L1421.85 413.733L1420.52 412.504L1419.85 413.238ZM1326.72 277.689L1327.31 276.879L1326.72 277.689ZM1168.15 231.558L1168.22 230.561L1168.15 231.558ZM965.287 271.199L964.873 272.109L965.287 271.199ZM894.331 181.244L895.3 180.998L893.331 181.258L894.331 181.244ZM1412.22 447.407L1411.55 448.141L1413.75 450.176L1413.21 447.227L1412.22 447.407ZM1319.1 311.858L1318.52 312.667L1319.1 311.858ZM1160.52 265.727L1160.6 264.729L1160.52 265.727ZM957.665 305.367L957.252 306.278L957.665 305.367ZM886.709 215.413L886.464 214.443L885.494 214.689L885.74 215.659L886.709 215.413ZM1410.5 426L1410.16 425.058L1409.16 425.414L1409.58 426.392L1410.5 426ZM1417.56 423.489L1417.89 424.431L1418.96 424.052L1418.45 423.041L1417.56 423.489ZM1413.31 415L1413.05 414.035L1411.87 414.353L1412.42 415.448L1413.31 415ZM1414.76 436.017L1415.19 436.924L1416.06 436.516L1415.68 435.626L1414.76 436.017ZM1410.5 438L1410.08 437.093L1409.38 437.419L1409.52 438.18L1410.5 438ZM893.756 202.5L893.927 203.485L895.136 203.275L894.686 202.133L893.756 202.5ZM890.712 194.785L890.509 193.805L889.345 194.046L889.781 195.151L890.712 194.785ZM888 203.5L887.829 202.515L886.604 202.728L887.074 203.879L888 203.5ZM892.294 214L892.539 214.97L893.655 214.687L893.219 213.622L892.294 214ZM894.5 194L894.703 194.979L895.511 194.812L895.5 193.987L894.5 194ZM1420.52 412.504C1420.06 412.075 1419.6 411.631 1419.14 411.173L1417.73 412.588C1418.2 413.063 1418.68 413.525 1419.17 413.973L1420.52 412.504ZM1416.49 408.333C1415.66 407.375 1414.83 406.372 1414.02 405.324L1412.44 406.553C1413.28 407.627 1414.12 408.66 1414.99 409.647L1416.49 408.333ZM1411.69 402.188C1410.95 401.144 1410.21 400.065 1409.48 398.954L1407.81 400.052C1408.55 401.182 1409.3 402.28 1410.06 403.345L1411.69 402.188ZM1407.38 395.644C1406.7 394.546 1406.03 393.422 1405.36 392.274L1403.63 393.282C1404.31 394.443 1404.99 395.58 1405.67 396.692L1407.38 395.644ZM1403.41 388.856C1402.78 387.724 1402.15 386.571 1401.51 385.399L1399.75 386.348C1400.39 387.528 1401.02 388.689 1401.66 389.831L1403.41 388.856ZM1399.66 381.912C1399.06 380.762 1398.46 379.596 1397.85 378.416L1396.07 379.328C1396.68 380.513 1397.28 381.684 1397.89 382.84L1399.66 381.912ZM1396.07 374.903C1395.48 373.739 1394.89 372.563 1394.3 371.375L1392.51 372.268C1393.1 373.458 1393.69 374.637 1394.28 375.804L1396.07 374.903ZM1392.53 367.834C1391.95 366.661 1391.37 365.479 1390.78 364.289L1388.98 365.177C1389.57 366.367 1390.16 367.55 1390.74 368.723L1392.53 367.834ZM1389.02 360.755C1388.44 359.582 1387.85 358.402 1387.26 357.217L1385.47 358.112C1386.06 359.295 1386.65 360.473 1387.23 361.645L1389.02 360.755ZM1385.48 353.678C1384.89 352.506 1384.29 351.33 1383.68 350.15L1381.9 351.062C1382.51 352.238 1383.1 353.412 1383.69 354.581L1385.48 353.678ZM1381.87 346.636C1381.26 345.47 1380.65 344.301 1380.02 343.131L1378.26 344.069C1378.88 345.234 1379.49 346.398 1380.09 347.56L1381.87 346.636ZM1378.15 339.637C1377.52 338.481 1376.89 337.324 1376.24 336.167L1374.49 337.14C1375.13 338.29 1375.77 339.441 1376.39 340.591L1378.15 339.637ZM1374.29 332.716C1373.64 331.571 1372.98 330.427 1372.3 329.284L1370.58 330.299C1371.25 331.434 1371.91 332.571 1372.56 333.709L1374.29 332.716ZM1370.27 325.882C1369.58 324.754 1368.89 323.629 1368.18 322.508L1366.49 323.573C1367.19 324.685 1367.88 325.801 1368.56 326.92L1370.27 325.882ZM1366.04 319.165C1365.32 318.058 1364.59 316.955 1363.85 315.858L1362.19 316.979C1362.93 318.067 1363.65 319.16 1364.37 320.257L1366.04 319.165ZM1361.59 312.592C1360.83 311.511 1360.06 310.436 1359.27 309.367L1357.66 310.552C1358.44 311.609 1359.2 312.673 1359.96 313.744L1361.59 312.592ZM1356.88 306.19C1356.08 305.141 1355.26 304.099 1354.43 303.066L1352.87 304.319C1353.69 305.34 1354.5 306.37 1355.3 307.408L1356.88 306.19ZM1351.9 299.996C1351.05 298.984 1350.18 297.98 1349.3 296.987L1347.81 298.313C1348.68 299.294 1349.53 300.285 1350.37 301.286L1351.9 299.996ZM1346.63 294.046C1345.72 293.078 1344.81 292.121 1343.87 291.174L1342.45 292.578C1343.37 293.511 1344.27 294.456 1345.17 295.411L1346.63 294.046ZM1341.04 288.377C1340.08 287.461 1339.11 286.557 1338.13 285.665L1336.79 287.148C1337.76 288.026 1338.71 288.917 1339.65 289.82L1341.04 288.377ZM1335.14 283.038C1334.13 282.178 1333.1 281.332 1332.06 280.499L1330.81 282.061C1331.84 282.881 1332.85 283.714 1333.84 284.561L1335.14 283.038ZM1328.92 278.064C1328.39 277.666 1327.85 277.271 1327.31 276.879L1326.14 278.499C1326.67 278.884 1327.2 279.273 1327.72 279.665L1328.92 278.064ZM1327.31 276.879C1326.76 276.482 1326.21 276.088 1325.67 275.698L1324.5 277.326C1325.05 277.713 1325.59 278.104 1326.14 278.499L1327.31 276.879ZM1322.4 273.402C1321.28 272.631 1320.17 271.876 1319.07 271.135L1317.95 272.797C1319.05 273.532 1320.15 274.281 1321.26 275.046L1322.4 273.402ZM1315.71 268.928C1314.58 268.197 1313.46 267.482 1312.34 266.782L1311.28 268.479C1312.39 269.173 1313.51 269.883 1314.63 270.608L1315.71 268.928ZM1308.91 264.684C1307.75 263.989 1306.59 263.31 1305.44 262.646L1304.44 264.378C1305.59 265.036 1306.73 265.71 1307.88 266.399L1308.91 264.684ZM1301.95 260.673C1300.77 260.023 1299.6 259.388 1298.42 258.769L1297.49 260.537C1298.65 261.151 1299.81 261.78 1300.98 262.424L1301.95 260.673ZM1294.85 256.925C1293.64 256.319 1292.44 255.728 1291.24 255.152L1290.38 256.956C1291.57 257.526 1292.76 258.111 1293.95 258.712L1294.85 256.925ZM1287.6 253.453C1286.38 252.896 1285.15 252.355 1283.93 251.829L1283.14 253.665C1284.35 254.187 1285.56 254.723 1286.77 255.274L1287.6 253.453ZM1280.23 250.279C1278.98 249.772 1277.73 249.28 1276.49 248.802L1275.77 250.67C1277.01 251.143 1278.24 251.63 1279.47 252.131L1280.23 250.279ZM1272.72 247.403C1271.46 246.949 1270.19 246.508 1268.93 246.081L1268.29 247.976C1269.54 248.399 1270.79 248.835 1272.04 249.285L1272.72 247.403ZM1265.11 244.836C1263.83 244.433 1262.55 244.043 1261.27 243.665L1260.7 245.584C1261.97 245.958 1263.24 246.344 1264.51 246.743L1265.11 244.836ZM1257.4 242.568C1256.11 242.214 1254.82 241.873 1253.52 241.542L1253.03 243.481C1254.32 243.808 1255.6 244.146 1256.88 244.497L1257.4 242.568ZM1249.62 240.586C1248.32 240.279 1247.02 239.983 1245.71 239.697L1245.28 241.651C1246.58 241.935 1247.88 242.229 1249.17 242.533L1249.62 240.586ZM1241.78 238.871C1240.48 238.606 1239.16 238.351 1237.84 238.104L1237.48 240.07C1238.79 240.315 1240.09 240.568 1241.39 240.831L1241.78 238.871ZM1233.9 237.395C1232.59 237.168 1231.27 236.949 1229.94 236.738L1229.63 238.713C1230.95 238.923 1232.25 239.14 1233.56 239.366L1233.9 237.395ZM1225.98 236.13C1224.67 235.936 1223.34 235.748 1222.01 235.566L1221.74 237.548C1223.07 237.728 1224.38 237.915 1225.69 238.108L1225.98 236.13ZM1218.03 235.043C1216.72 234.876 1215.39 234.715 1214.06 234.559L1213.83 236.545C1215.16 236.701 1216.47 236.861 1217.78 237.027L1218.03 235.043ZM1210.09 234.107C1208.77 233.962 1207.44 233.822 1206.1 233.685L1205.9 235.674C1207.23 235.811 1208.55 235.951 1209.87 236.095L1210.09 234.107ZM1202.11 233.288C1200.79 233.161 1199.47 233.038 1198.13 232.916L1197.95 234.908C1199.28 235.029 1200.61 235.153 1201.92 235.279L1202.11 233.288ZM1194.15 232.564C1192.83 232.45 1191.5 232.337 1190.16 232.227L1190 234.22C1191.33 234.331 1192.66 234.442 1193.98 234.556L1194.15 232.564ZM1186.17 231.904C1184.85 231.8 1183.52 231.697 1182.19 231.594L1182.04 233.588C1183.37 233.691 1184.69 233.794 1186.01 233.898L1186.17 231.904ZM1178.2 231.292C1176.88 231.193 1175.54 231.095 1174.2 230.996L1174.05 232.991C1175.4 233.089 1176.73 233.188 1178.05 233.287L1178.2 231.292ZM1170.23 230.706C1169.56 230.658 1168.89 230.609 1168.22 230.561L1168.07 232.556C1168.75 232.604 1169.41 232.653 1170.08 232.701L1170.23 230.706ZM1168.22 230.561C1167.53 230.511 1166.85 230.467 1166.17 230.429L1166.06 232.426C1166.73 232.464 1167.4 232.507 1168.07 232.556L1168.22 230.561ZM1162.09 230.26C1160.73 230.224 1159.37 230.209 1158.01 230.214L1158.02 232.214C1159.35 232.209 1160.7 232.224 1162.04 232.259L1162.09 230.26ZM1153.93 230.289C1152.57 230.333 1151.21 230.397 1149.85 230.48L1149.98 232.476C1151.31 232.395 1152.65 232.332 1154 232.288L1153.93 230.289ZM1145.79 230.783C1144.43 230.903 1143.08 231.041 1141.73 231.196L1141.96 233.183C1143.29 233.03 1144.63 232.894 1145.97 232.776L1145.79 230.783ZM1137.69 231.712C1136.34 231.901 1135 232.106 1133.66 232.327L1133.98 234.3C1135.31 234.082 1136.63 233.879 1137.97 233.692L1137.69 231.712ZM1129.64 233.036C1128.31 233.287 1126.98 233.553 1125.65 233.833L1126.06 235.79C1127.37 235.513 1128.69 235.25 1130.01 235.001L1129.64 233.036ZM1121.67 234.714C1120.35 235.021 1119.03 235.341 1117.72 235.673L1118.2 237.612C1119.51 237.283 1120.81 236.967 1122.12 236.662L1121.67 234.714ZM1113.78 236.706C1112.47 237.061 1111.16 237.428 1109.86 237.805L1110.42 239.726C1111.71 239.352 1113 238.988 1114.3 238.636L1113.78 236.706ZM1105.96 238.968C1104.66 239.366 1103.37 239.772 1102.08 240.187L1102.69 242.091C1103.97 241.679 1105.26 241.275 1106.55 240.88L1105.96 238.968ZM1098.22 241.46C1096.93 241.893 1095.65 242.333 1094.37 242.78L1095.03 244.668C1096.31 244.223 1097.58 243.786 1098.86 243.356L1098.22 241.46ZM1090.55 244.142C1089.27 244.603 1088 245.071 1086.73 245.542L1087.43 247.417C1088.69 246.947 1089.96 246.482 1091.23 246.023L1090.55 244.142ZM1082.94 246.974C1081.67 247.458 1080.4 247.946 1079.14 248.436L1079.87 250.3C1081.13 249.811 1082.39 249.325 1083.65 248.842L1082.94 246.974ZM1075.37 249.918C1074.11 250.418 1072.85 250.92 1071.6 251.422L1072.34 253.279C1073.59 252.777 1074.85 252.276 1076.11 251.778L1075.37 249.918ZM1067.84 252.937C1066.58 253.446 1065.33 253.954 1064.08 254.461L1064.83 256.314C1066.08 255.807 1067.33 255.299 1068.59 254.792L1067.84 252.937ZM1060.32 255.989C1059.07 256.499 1057.82 257.006 1056.58 257.51L1057.33 259.364C1058.57 258.859 1059.82 258.352 1061.08 257.842L1060.32 255.989ZM1052.81 259.032C1051.56 259.537 1050.3 260.038 1049.06 260.533L1049.79 262.392C1051.04 261.895 1052.3 261.393 1053.56 260.887L1052.81 259.032ZM1045.29 262.017C1044.03 262.51 1042.77 262.997 1041.51 263.475L1042.22 265.344C1043.48 264.863 1044.75 264.375 1046.02 263.88L1045.29 262.017ZM1037.74 264.893C1036.47 265.365 1035.2 265.827 1033.93 266.278L1034.6 268.161C1035.87 267.708 1037.15 267.243 1038.43 266.768L1037.74 264.893ZM1030.12 267.607C1028.84 268.043 1027.56 268.466 1026.3 268.875L1026.91 270.778C1028.19 270.366 1029.47 269.94 1030.76 269.5L1030.12 267.607ZM1022.43 270.078C1021.14 270.467 1019.85 270.84 1018.57 271.194L1019.1 273.122C1020.4 272.763 1021.7 272.387 1023.01 271.993L1022.43 270.078ZM1014.68 272.216C1013.36 272.543 1012.05 272.849 1010.75 273.133L1011.17 275.087C1012.5 274.799 1013.83 274.488 1015.16 274.157L1014.68 272.216ZM1006.81 273.922C1005.49 274.164 1004.17 274.38 1002.86 274.569L1003.15 276.548C1004.48 276.356 1005.82 276.135 1007.17 275.889L1006.81 273.922ZM998.871 275.06C997.532 275.195 996.201 275.299 994.877 275.37L994.984 277.367C996.341 277.294 997.703 277.188 999.072 277.049L998.871 275.06ZM990.885 275.482C989.546 275.484 988.216 275.449 986.893 275.376L986.782 277.373C988.144 277.448 989.513 277.484 990.888 277.482L990.885 275.482ZM982.915 275.034C981.594 274.88 980.281 274.683 978.976 274.443L978.614 276.41C979.963 276.658 981.319 276.861 982.682 277.021L982.915 275.034ZM975.087 273.589C973.805 273.262 972.531 272.889 971.264 272.468L970.634 274.366C971.946 274.802 973.265 275.188 974.591 275.527L975.087 273.589ZM967.541 271.085C966.926 270.832 966.312 270.566 965.7 270.288L964.873 272.109C965.507 272.397 966.142 272.672 966.78 272.935L967.541 271.085ZM965.7 270.288C965.106 270.019 964.516 269.744 963.93 269.463L963.067 271.268C963.665 271.554 964.267 271.834 964.873 272.109L965.7 270.288ZM960.452 267.713C959.3 267.105 958.164 266.476 957.044 265.828L956.042 267.559C957.184 268.22 958.342 268.861 959.518 269.482L960.452 267.713ZM953.71 263.813C952.609 263.118 951.523 262.404 950.454 261.673L949.325 263.324C950.414 264.069 951.52 264.796 952.644 265.504L953.71 263.813ZM947.276 259.414C946.227 258.64 945.194 257.85 944.178 257.044L942.935 258.61C943.969 259.431 945.02 260.235 946.088 261.024L947.276 259.414ZM941.164 254.567C940.17 253.722 939.193 252.863 938.233 251.991L936.888 253.471C937.864 254.358 938.857 255.232 939.868 256.091L941.164 254.567ZM935.385 249.321C934.447 248.413 933.526 247.493 932.622 246.563L931.188 247.956C932.106 248.901 933.041 249.835 933.994 250.758L935.385 249.321ZM929.942 243.722C929.06 242.758 928.194 241.784 927.346 240.803L925.833 242.111C926.693 243.106 927.571 244.094 928.467 245.072L929.942 243.722ZM924.832 237.812C924.004 236.798 923.194 235.778 922.401 234.752L920.819 235.975C921.622 237.015 922.444 238.049 923.284 239.077L924.832 237.812ZM920.051 231.628C919.276 230.57 918.52 229.509 917.781 228.445L916.138 229.585C916.886 230.663 917.652 231.738 918.437 232.81L920.051 231.628ZM915.592 225.205C914.87 224.107 914.166 223.008 913.482 221.911L911.785 222.97C912.478 224.08 913.19 225.192 913.921 226.304L915.592 225.205ZM911.451 218.568C910.781 217.433 910.13 216.303 909.5 215.177L907.755 216.154C908.393 217.293 909.051 218.438 909.73 219.586L911.451 218.568ZM907.628 211.742C907.009 210.574 906.412 209.414 905.837 208.266L904.048 209.161C904.63 210.324 905.235 211.497 905.861 212.679L907.628 211.742ZM904.128 204.751C903.562 203.551 903.02 202.366 902.503 201.199L900.674 202.009C901.198 203.191 901.746 204.39 902.319 205.604L904.128 204.751ZM900.958 197.596C900.445 196.358 899.961 195.146 899.506 193.962L897.64 194.68C898.101 195.88 898.591 197.108 899.11 198.361L900.958 197.596ZM898.159 190.31C897.705 189.025 897.29 187.785 896.91 186.594L895.005 187.2C895.39 188.412 895.813 189.672 896.273 190.975L898.159 190.31ZM895.798 182.87C895.619 182.226 895.453 181.601 895.3 180.998L893.361 181.491C893.518 182.109 893.688 182.747 893.871 183.406L895.798 182.87ZM893.331 181.258L893.352 182.852L895.352 182.826L895.331 181.231L893.331 181.258ZM893.394 186.041L893.437 189.23L895.436 189.203L895.394 186.014L893.394 186.041ZM893.479 192.419L893.5 194.013L895.5 193.987L895.479 192.392L893.479 192.419ZM894.297 193.021L893.35 193.217L893.756 195.175L894.703 194.979L894.297 193.021ZM891.456 193.609L890.509 193.805L890.914 195.764L891.862 195.568L891.456 193.609ZM889.781 195.151L890.542 197.08L892.403 196.346L891.642 194.418L889.781 195.151ZM892.064 200.938L892.825 202.867L894.686 202.133L893.925 200.204L892.064 200.938ZM893.584 201.515L892.146 201.765L892.488 203.735L893.927 203.485L893.584 201.515ZM889.268 202.265L887.829 202.515L888.171 204.485L889.61 204.235L889.268 202.265ZM887.074 203.879L888.148 206.504L889.999 205.747L888.926 203.122L887.074 203.879ZM890.295 211.754L891.368 214.379L893.219 213.622L892.146 210.997L890.295 211.754ZM892.048 213.031L890.652 213.384L891.143 215.323L892.539 214.97L892.048 213.031ZM887.86 214.09L886.464 214.443L886.955 216.382L888.351 216.029L887.86 214.09ZM885.74 215.659C885.897 216.277 886.067 216.916 886.25 217.574L888.177 217.039C887.998 216.394 887.832 215.77 887.679 215.167L885.74 215.659ZM887.383 221.369C887.769 222.58 888.192 223.84 888.652 225.144L890.538 224.478C890.084 223.194 889.668 221.953 889.289 220.762L887.383 221.369ZM890.018 228.848C890.479 230.048 890.969 231.276 891.489 232.53L893.336 231.764C892.824 230.527 892.34 229.314 891.885 228.131L890.018 228.848ZM893.053 236.178C893.577 237.359 894.125 238.559 894.698 239.773L896.507 238.919C895.94 237.719 895.399 236.534 894.881 235.367L893.053 236.178ZM896.427 243.329C897.009 244.492 897.613 245.665 898.24 246.847L900.007 245.91C899.388 244.742 898.791 243.583 898.216 242.434L896.427 243.329ZM900.134 250.323C900.772 251.462 901.43 252.606 902.108 253.754L903.83 252.736C903.159 251.602 902.509 250.471 901.879 249.345L900.134 250.323ZM904.164 257.138C904.856 258.249 905.568 259.361 906.3 260.472L907.971 259.373C907.248 258.275 906.545 257.177 905.861 256.08L904.164 257.138ZM908.517 263.753C909.265 264.831 910.031 265.906 910.816 266.978L912.43 265.797C911.655 264.739 910.898 263.677 910.16 262.613L908.517 263.753ZM913.197 270.144C914.001 271.183 914.823 272.217 915.662 273.245L917.211 271.98C916.383 270.966 915.572 269.946 914.78 268.92L913.197 270.144ZM918.212 276.279C919.072 277.275 919.95 278.262 920.846 279.241L922.321 277.89C921.438 276.926 920.573 275.953 919.725 274.971L918.212 276.279ZM923.566 282.125C924.485 283.07 925.42 284.004 926.373 284.926L927.764 283.489C926.826 282.581 925.905 281.661 925.001 280.731L923.566 282.125ZM929.267 287.64C930.243 288.526 931.236 289.4 932.247 290.259L933.543 288.736C932.549 287.891 931.572 287.031 930.611 286.159L929.267 287.64ZM935.314 292.779C936.348 293.599 937.399 294.404 938.467 295.192L939.654 293.583C938.605 292.809 937.573 292.018 936.557 291.212L935.314 292.779ZM941.704 297.492C942.793 298.237 943.899 298.964 945.022 299.673L946.089 297.981C944.987 297.286 943.902 296.572 942.833 295.841L941.704 297.492ZM948.421 301.727C949.563 302.388 950.721 303.03 951.897 303.65L952.83 301.882C951.678 301.273 950.542 300.644 949.423 299.996L948.421 301.727ZM955.446 305.436C956.044 305.722 956.646 306.003 957.252 306.278L958.079 304.457C957.485 304.187 956.895 303.912 956.309 303.632L955.446 305.436ZM957.252 306.278C957.886 306.565 958.521 306.84 959.158 307.103L959.92 305.254C959.305 305 958.691 304.734 958.079 304.457L957.252 306.278ZM963.013 308.535C964.325 308.97 965.644 309.356 966.97 309.695L967.465 307.758C966.184 307.43 964.91 307.057 963.643 306.637L963.013 308.535ZM970.993 310.578C972.342 310.826 973.698 311.029 975.061 311.189L975.294 309.203C973.973 309.048 972.66 308.851 971.355 308.611L970.993 310.578ZM979.161 311.541C980.523 311.617 981.892 311.652 983.267 311.65L983.264 309.65C981.925 309.652 980.594 309.618 979.271 309.544L979.161 311.541ZM987.363 311.535C988.72 311.463 990.082 311.356 991.451 311.218L991.25 309.228C989.911 309.363 988.58 309.467 987.256 309.538L987.363 311.535ZM995.526 310.717C996.862 310.524 998.203 310.304 999.551 310.058L999.191 308.09C997.867 308.332 996.551 308.548 995.241 308.737L995.526 310.717ZM1003.55 309.255C1004.88 308.967 1006.21 308.657 1007.54 308.325L1007.06 306.384C1005.74 306.711 1004.43 307.018 1003.13 307.301L1003.55 309.255ZM1011.48 307.29C1012.78 306.932 1014.08 306.555 1015.39 306.162L1014.81 304.246C1013.52 304.636 1012.23 305.008 1010.94 305.363L1011.48 307.29ZM1019.29 304.947C1020.57 304.534 1021.85 304.108 1023.14 303.669L1022.5 301.776C1021.22 302.211 1019.94 302.634 1018.67 303.043L1019.29 304.947ZM1026.98 302.33C1028.25 301.876 1029.53 301.411 1030.81 300.937L1030.12 299.061C1028.84 299.533 1027.57 299.995 1026.31 300.446L1026.98 302.33ZM1034.6 299.512C1035.86 299.032 1037.13 298.543 1038.4 298.048L1037.67 296.185C1036.41 296.678 1035.15 297.165 1033.89 297.643L1034.6 299.512ZM1042.17 296.56C1043.42 296.064 1044.68 295.562 1045.94 295.055L1045.19 293.2C1043.93 293.705 1042.68 294.206 1041.44 294.702L1042.17 296.56ZM1049.71 293.532C1050.95 293.028 1052.2 292.52 1053.45 292.01L1052.7 290.158C1051.45 290.667 1050.2 291.175 1048.96 291.679L1049.71 293.532ZM1057.21 290.482C1058.46 289.975 1059.71 289.468 1060.96 288.96L1060.21 287.106C1058.96 287.614 1057.71 288.122 1056.46 288.629L1057.21 290.482ZM1064.72 287.447C1065.97 286.945 1067.23 286.445 1068.49 285.946L1067.75 284.087C1066.49 284.586 1065.23 285.088 1063.98 285.591L1064.72 287.447ZM1072.25 284.468C1073.5 283.979 1074.76 283.493 1076.03 283.011L1075.31 281.142C1074.05 281.626 1072.78 282.114 1071.52 282.605L1072.25 284.468ZM1079.81 281.585C1081.07 281.115 1082.34 280.65 1083.61 280.191L1082.93 278.31C1081.65 278.772 1080.38 279.239 1079.11 279.711L1079.81 281.585ZM1087.41 278.836C1088.68 278.392 1089.96 277.954 1091.24 277.524L1090.6 275.628C1089.31 276.061 1088.03 276.501 1086.75 276.948L1087.41 278.836ZM1095.07 276.259C1096.35 275.847 1097.64 275.443 1098.92 275.049L1098.34 273.136C1097.04 273.534 1095.75 273.941 1094.46 274.356L1095.07 276.259ZM1102.8 273.894C1104.09 273.52 1105.38 273.157 1106.68 272.804L1106.16 270.874C1104.85 271.23 1103.54 271.596 1102.24 271.973L1102.8 273.894ZM1110.58 271.781C1111.89 271.452 1113.19 271.135 1114.5 270.831L1114.05 268.883C1112.73 269.19 1111.41 269.51 1110.09 269.842L1110.58 271.781ZM1118.44 269.959C1119.75 269.682 1121.07 269.418 1122.39 269.169L1122.02 267.204C1120.69 267.456 1119.35 267.722 1118.03 268.002L1118.44 269.959ZM1126.36 268.469C1127.68 268.25 1129.01 268.047 1130.34 267.861L1130.07 265.88C1128.72 266.069 1127.37 266.275 1126.03 266.495L1126.36 268.469ZM1134.34 267.351C1135.67 267.198 1137.01 267.062 1138.35 266.944L1138.17 264.952C1136.81 265.072 1135.46 265.21 1134.11 265.364L1134.34 267.351ZM1142.35 266.645C1143.69 266.563 1145.03 266.5 1146.38 266.456L1146.31 264.457C1144.95 264.502 1143.59 264.566 1142.23 264.648L1142.35 266.645ZM1150.4 266.383C1151.73 266.378 1153.07 266.393 1154.42 266.428L1154.47 264.428C1153.11 264.393 1151.75 264.378 1150.39 264.383L1150.4 266.383ZM1158.44 266.594C1159.11 266.632 1159.78 266.675 1160.45 266.724L1160.6 264.729C1159.91 264.68 1159.23 264.636 1158.55 264.597L1158.44 266.594ZM1160.45 266.724C1161.12 266.772 1161.79 266.821 1162.46 266.869L1162.6 264.875C1161.94 264.826 1161.27 264.778 1160.6 264.729L1160.45 266.724ZM1166.43 267.159C1167.77 267.258 1169.11 267.356 1170.43 267.455L1170.58 265.461C1169.25 265.362 1167.92 265.263 1166.58 265.164L1166.43 267.159ZM1174.41 267.757C1175.75 267.859 1177.07 267.962 1178.39 268.066L1178.55 266.073C1177.23 265.968 1175.9 265.865 1174.57 265.763L1174.41 267.757ZM1182.37 268.389C1183.71 268.499 1185.04 268.611 1186.36 268.725L1186.53 266.732C1185.21 266.618 1183.88 266.506 1182.54 266.395L1182.37 268.389ZM1190.33 269.076C1191.66 269.197 1192.99 269.321 1194.3 269.448L1194.49 267.457C1193.17 267.33 1191.85 267.206 1190.51 267.085L1190.33 269.076ZM1198.28 269.843C1199.61 269.979 1200.93 270.119 1202.25 270.264L1202.47 268.275C1201.15 268.131 1199.82 267.99 1198.48 267.853L1198.28 269.843ZM1206.21 270.713C1207.53 270.869 1208.85 271.03 1210.16 271.196L1210.41 269.211C1209.1 269.045 1207.77 268.884 1206.44 268.727L1206.21 270.713ZM1214.12 271.716C1215.44 271.897 1216.76 272.084 1218.07 272.277L1218.36 270.298C1217.04 270.104 1215.72 269.916 1214.39 269.734L1214.12 271.716ZM1222.01 272.881C1223.32 273.091 1224.63 273.309 1225.94 273.534L1226.28 271.563C1224.97 271.336 1223.65 271.118 1222.32 270.906L1222.01 272.881ZM1229.85 274.238C1231.16 274.483 1232.47 274.737 1233.77 274.999L1234.16 273.039C1232.85 272.774 1231.54 272.519 1230.22 272.272L1229.85 274.238ZM1237.66 275.819C1238.96 276.103 1240.25 276.397 1241.54 276.701L1242 274.755C1240.7 274.448 1239.4 274.152 1238.09 273.865L1237.66 275.819ZM1245.41 277.649C1246.69 277.976 1247.98 278.315 1249.26 278.665L1249.78 276.736C1248.49 276.383 1247.2 276.041 1245.9 275.711L1245.41 277.649ZM1253.08 279.752C1254.35 280.126 1255.62 280.512 1256.89 280.911L1257.49 279.004C1256.21 278.601 1254.93 278.211 1253.65 277.833L1253.08 279.752ZM1260.67 282.145C1261.92 282.567 1263.17 283.003 1264.42 283.453L1265.1 281.572C1263.84 281.117 1262.57 280.677 1261.31 280.25L1260.67 282.145ZM1268.15 284.838C1269.39 285.311 1270.62 285.798 1271.85 286.3L1272.61 284.447C1271.36 283.94 1270.11 283.448 1268.87 282.97L1268.15 284.838ZM1275.52 287.834C1276.73 288.355 1277.94 288.891 1279.15 289.442L1279.98 287.622C1278.76 287.065 1277.53 286.523 1276.31 285.997L1275.52 287.834ZM1282.75 291.124C1283.94 291.694 1285.13 292.279 1286.33 292.88L1287.23 291.094C1286.02 290.487 1284.82 289.896 1283.62 289.321L1282.75 291.124ZM1289.87 294.706C1291.03 295.319 1292.19 295.948 1293.36 296.593L1294.33 294.842C1293.15 294.191 1291.97 293.557 1290.8 292.937L1289.87 294.706ZM1296.82 298.547C1297.96 299.205 1299.11 299.878 1300.26 300.567L1301.29 298.852C1300.13 298.157 1298.97 297.478 1297.82 296.814L1296.82 298.547ZM1303.66 302.647C1304.77 303.341 1305.89 304.051 1307.01 304.776L1308.09 303.097C1306.96 302.366 1305.84 301.65 1304.71 300.95L1303.66 302.647ZM1310.33 306.965C1311.43 307.7 1312.53 308.45 1313.64 309.215L1314.78 307.57C1313.66 306.799 1312.55 306.044 1311.45 305.303L1310.33 306.965ZM1316.88 311.495C1317.43 311.882 1317.97 312.273 1318.52 312.667L1319.69 311.048C1319.14 310.65 1318.59 310.256 1318.04 309.866L1316.88 311.495ZM1318.52 312.667C1319.05 313.052 1319.57 313.441 1320.1 313.833L1321.3 312.233C1320.76 311.834 1320.23 311.439 1319.69 311.048L1318.52 312.667ZM1323.19 316.23C1324.22 317.049 1325.23 317.882 1326.22 318.729L1327.52 317.206C1326.51 316.347 1325.48 315.5 1324.44 314.668L1323.19 316.23ZM1329.17 321.316C1330.14 322.194 1331.09 323.085 1332.03 323.988L1333.42 322.545C1332.46 321.629 1331.49 320.725 1330.51 319.833L1329.17 321.316ZM1334.83 326.747C1335.75 327.68 1336.65 328.624 1337.54 329.579L1339.01 328.214C1338.1 327.246 1337.18 326.289 1336.25 325.343L1334.83 326.747ZM1340.18 332.482C1341.05 333.463 1341.91 334.454 1342.75 335.454L1344.28 334.165C1343.43 333.152 1342.56 332.149 1341.68 331.155L1340.18 332.482ZM1345.25 338.487C1346.07 339.508 1346.88 340.538 1347.68 341.576L1349.26 340.358C1348.46 339.309 1347.64 338.267 1346.81 337.234L1345.25 338.487ZM1350.04 344.72C1350.81 345.777 1351.58 346.842 1352.33 347.912L1353.97 346.76C1353.21 345.679 1352.43 344.604 1351.65 343.536L1350.04 344.72ZM1354.57 351.147C1355.3 352.235 1356.03 353.328 1356.75 354.426L1358.42 353.333C1357.7 352.226 1356.97 351.124 1356.22 350.026L1354.57 351.147ZM1358.87 357.741C1359.57 358.853 1360.26 359.97 1360.94 361.089L1362.65 360.05C1361.96 358.922 1361.27 357.798 1360.56 356.677L1358.87 357.741ZM1362.96 364.468C1363.63 365.602 1364.29 366.739 1364.94 367.877L1366.67 366.884C1366.02 365.739 1365.35 364.595 1364.68 363.453L1362.96 364.468ZM1366.87 371.309C1367.51 372.459 1368.15 373.609 1368.77 374.76L1370.53 373.805C1369.9 372.649 1369.26 371.492 1368.62 370.336L1366.87 371.309ZM1370.64 378.237C1371.26 379.403 1371.87 380.567 1372.47 381.729L1374.25 380.805C1373.64 379.638 1373.03 378.47 1372.4 377.299L1370.64 378.237ZM1374.28 385.23C1374.88 386.407 1375.48 387.58 1376.07 388.749L1377.86 387.847C1377.27 386.675 1376.67 385.498 1376.06 384.318L1374.28 385.23ZM1377.85 392.28C1378.44 393.463 1379.03 394.641 1379.61 395.813L1381.4 394.923C1380.82 393.75 1380.23 392.57 1379.64 391.385L1377.85 392.28ZM1381.36 399.346C1381.95 400.536 1382.54 401.718 1383.12 402.892L1384.91 402.003C1384.33 400.83 1383.75 399.648 1383.16 398.457L1381.36 399.346ZM1384.89 406.436C1385.48 407.626 1386.07 408.805 1386.66 409.973L1388.44 409.072C1387.86 407.907 1387.27 406.731 1386.67 405.543L1384.89 406.436ZM1388.45 413.496C1389.06 414.681 1389.66 415.852 1390.27 417.008L1392.04 416.08C1391.44 414.93 1390.83 413.765 1390.23 412.584L1388.45 413.496ZM1392.13 420.516C1392.77 421.696 1393.4 422.858 1394.04 423.999L1395.79 423.024C1395.16 421.892 1394.52 420.739 1393.89 419.568L1392.13 420.516ZM1396.01 427.45C1396.69 428.611 1397.37 429.749 1398.05 430.861L1399.76 429.812C1399.08 428.715 1398.41 427.591 1397.74 426.442L1396.01 427.45ZM1400.19 434.22C1400.93 435.35 1401.68 436.449 1402.43 437.514L1404.07 436.356C1403.32 435.312 1402.59 434.233 1401.86 433.122L1400.19 434.22ZM1404.82 440.722C1405.65 441.796 1406.5 442.828 1407.36 443.816L1408.87 442.501C1408.04 441.544 1407.21 440.54 1406.39 439.492L1404.82 440.722ZM1410.1 446.756C1410.58 447.232 1411.06 447.694 1411.55 448.141L1412.9 446.672C1412.44 446.243 1411.98 445.799 1411.52 445.342L1410.1 446.756ZM1413.21 447.227L1412.78 444.875L1410.81 445.235L1411.24 447.587L1413.21 447.227ZM1411.91 440.171L1411.48 437.82L1409.52 438.18L1409.95 440.532L1411.91 440.171ZM1410.92 438.907L1411.99 438.411L1411.14 436.598L1410.08 437.093L1410.92 438.907ZM1414.12 437.42L1415.19 436.924L1414.34 435.111L1413.28 435.606L1414.12 437.42ZM1415.68 435.626L1414.62 433.121L1412.78 433.905L1413.84 436.409L1415.68 435.626ZM1412.49 428.113L1411.42 425.608L1409.58 426.392L1410.65 428.896L1412.49 428.113ZM1410.84 426.942L1412.6 426.314L1411.93 424.43L1410.16 425.058L1410.84 426.942ZM1416.13 425.059L1417.89 424.431L1417.22 422.547L1415.46 423.175L1416.13 425.059ZM1418.45 423.041L1417.39 420.919L1415.6 421.814L1416.66 423.937L1418.45 423.041ZM1415.27 416.675L1414.2 414.552L1412.42 415.448L1413.48 417.57L1415.27 416.675ZM1413.57 415.966L1415.2 415.525L1414.68 413.594L1413.05 414.035L1413.57 415.966ZM1418.47 414.644L1420.11 414.204L1419.58 412.273L1417.95 412.713L1418.47 414.644Z" fill="white"/>
<g opacity="0.42">
<path opacity="0.42" d="M854.792 382.763C856.089 381.058 857.639 379.56 859.388 378.323C861.136 377.082 862.993 376.005 864.938 375.104C866.861 374.211 868.85 373.469 870.888 372.884C871.898 372.573 872.942 372.362 873.963 372.107C874.984 371.852 876.05 371.729 877.093 371.596C876.105 371.985 875.106 372.296 874.118 372.706C873.13 373.117 872.153 373.417 871.177 373.816C870.2 374.216 869.223 374.549 868.279 374.993C867.336 375.437 866.37 375.814 865.438 376.258C863.539 377.135 861.686 378.11 859.887 379.178C858.095 380.233 856.391 381.432 854.792 382.763Z" fill="#5F841E"/>
</g>
<path d="M854.478 597.54C853.989 604.201 843.866 604.09 830.767 604.09C817.669 604.09 807.656 604.19 807.046 597.54C805.769 583.765 817.669 585.43 830.767 585.43C843.866 585.43 855.566 582.843 854.478 597.54Z" fill="white"/>
<path d="M788.686 530.338C788.686 530.338 784.712 546.822 790.539 554.448L806.935 586.296C806.935 586.296 811.675 599.561 829.135 599.561C846.596 599.561 854.345 588.283 854.345 588.283L870.718 550.796C870.718 550.796 874.814 544.602 871.539 529.706L788.686 530.338Z" fill="#D1DBEF"/>
<path d="M849.594 368.905C849.594 368.905 836.995 444.099 834.053 540.962C834.053 540.962 828.747 543.947 827.748 538.975C827.704 538.975 837.694 412.474 849.594 368.905Z" fill="#249660"/>
<path d="M857.442 365.741C857.442 365.741 846.574 440.758 842.578 537.576C842.578 537.576 838.493 540.484 837.816 535.5C837.816 535.5 847.596 409.144 857.442 365.741Z" fill="#249660"/>
<path d="M857.497 364.498C857.497 364.498 848.85 439.803 847.806 536.688C847.806 536.688 843.81 539.729 842.989 534.756C842.989 534.756 848.961 408.167 857.497 364.498Z" fill="#249660"/>
<path d="M799.175 411.897C799.175 411.897 816.148 467.621 819.434 539.174C819.434 539.174 826.849 541.472 828.314 537.809C828.292 537.831 815.493 444.288 799.175 411.897Z" fill="#249660"/>
<path d="M789.551 414.572C789.551 414.572 804.814 465.634 811.952 536.832C811.952 536.832 818.401 539.119 819.722 535.467C819.667 535.467 803.727 446.919 789.551 414.572Z" fill="#249660"/>
<path d="M827.226 400.43C827.226 400.43 826.849 457.042 840.391 538.819C840.391 538.819 838.083 542.271 836.673 537.465C836.673 537.465 819.467 443.145 827.226 400.43Z" fill="#249660"/>
<path d="M870.884 457.975C880.009 456.321 885.315 474.059 885.315 474.059C888.134 469.752 887.468 463.78 887.468 463.78C884.982 453.168 872.705 456.321 869.552 454.656C866.4 452.991 862.592 448.351 869.885 447.196C877.178 446.042 887.468 458.297 887.468 458.297C887.468 458.297 888.467 453.978 882.828 446.519C877.189 439.06 863.958 448.339 864.413 442.079C864.868 435.818 878.677 439.592 878.677 439.592C874.212 436.99 869.228 435.406 864.08 434.952C856.121 434.453 853.967 440.758 853.967 440.758C853.967 440.758 847.995 435.452 837.872 436.318C827.748 437.184 823.94 452.968 823.94 452.968L822.287 452.136C822.287 452.136 820.788 449.15 812.662 448.484C804.537 447.818 796.411 457.775 796.411 457.775C800.718 453.335 814.816 453.79 817.635 454.289C820.455 454.789 817.469 459.429 810.842 458.274C804.215 457.12 798.232 461.605 793.081 463.747C787.931 465.889 789.429 472.538 789.429 472.538C789.429 472.538 795.734 467.898 800.041 466.233C804.348 464.568 802.539 469.219 801.54 472.039C800.541 474.858 792.748 473.693 788.93 475.369C785.111 477.045 788.597 484.993 788.597 484.993C788.597 483.161 788.93 477.689 795.257 476.535C801.584 475.38 800.563 481.508 800.397 483.195C800.23 484.882 791.605 489.167 789.451 492.319C787.298 495.472 789.951 500.445 789.951 500.445C791.816 500.315 793.655 499.941 795.423 499.335C798.076 498.336 795.757 497.115 795.423 493.696C795.267 492.279 795.53 490.848 796.179 489.579C796.828 488.31 797.835 487.26 799.076 486.558C801.229 485.237 802.728 488.545 803.049 490.543C803.371 492.541 799.575 498.314 799.575 498.314C802.728 498.314 809.022 494.495 810.021 491.509C811.02 488.523 808.533 485.215 808.689 481.397C808.844 477.578 811.519 476.091 813.673 476.745C815.826 477.4 815.826 479.41 814.661 484.716C813.755 488.341 812.302 491.807 810.354 494.995C819.645 496.815 819.478 491.664 820.466 488.334C821.454 485.004 817.136 476.89 819.145 472.583C821.154 468.276 822.797 471.75 822.797 471.75C822.131 476.068 824.784 483.361 825.117 486.514C825.175 488.784 824.598 491.025 823.452 492.985C833.076 490.832 830.423 485.215 830.112 477.889C829.802 470.563 826.127 468.098 830.445 467.11C834.763 466.122 832.932 470.44 834.43 474.237C835.929 478.033 834.097 485.515 835.54 484.227C836.984 482.939 841.013 477.423 841.512 473.282C842.012 469.142 840.513 466.811 841.179 462.992C841.846 459.174 843.666 459.662 849.138 458.685C854.611 457.708 853.457 464.324 852.291 465.345C851.125 466.367 844.665 466.844 843.178 476.301C841.69 485.759 851.958 484.427 851.958 484.427C851.958 484.427 851.636 481.607 851.303 477.456C850.97 473.304 850.804 471.484 854.944 467.676C859.084 463.869 862.415 469.497 858.274 473.149C854.134 476.801 855.788 485.581 861.094 485.748C864.173 485.802 867.124 486.988 869.386 489.078C869.386 489.078 872.538 483.939 872.871 480.12C873.204 476.301 860.106 473.46 868.564 470.007C877.023 466.555 877.655 482.029 877.655 482.029C885.281 476.057 881.296 471.573 879.309 470.085C877.322 468.598 861.76 459.629 870.884 457.975ZM848.794 451.392C847.129 454.378 831.034 463.17 832.033 457.364C833.032 451.559 839.337 443.6 847.795 444.599C851.947 445.087 849.827 449.483 848.794 451.392Z" fill="#249660"/>
<path d="M786.465 530.338L786.821 549.598L873.837 548.488C873.837 548.488 875.868 539.496 873.704 529.617L786.465 530.338Z" fill="white"/>
<path d="M906.983 400.585C902.676 399.753 893.052 401.085 892.386 397.932C891.72 394.78 889.733 389.64 895.538 391.627C901.344 393.614 903.009 397.599 906.816 396.6C906.816 396.6 907.316 388.641 895.039 389.141C882.762 389.64 881.94 385.655 884.26 383.835C886.58 382.014 894.384 384.001 898.025 385.322L901.677 386.654C901.677 386.654 896.038 375.709 890.576 376.864C885.115 378.018 880.464 383.002 877.145 382.003C873.826 381.004 874.159 378.362 878.133 377.03C880.762 376.124 883.316 375.01 885.77 373.7C885.77 373.7 873.493 369.06 865.534 370.714C865.534 370.714 861.382 363.255 867.354 363.754C873.326 364.254 883.283 368.194 885.936 363.255C885.936 363.255 872.827 363.754 878.466 359.925C884.105 356.095 890.243 355.484 891.242 354.286C891.242 354.286 883.605 350.467 880.297 347.481C876.989 344.495 870.507 352.632 868.353 353.786C866.2 354.941 861.549 354.785 863.536 351.3C865.523 347.814 871.661 343.074 871.661 343.074C871.661 343.074 866.189 340.088 862.037 344.073C857.886 348.058 857.597 352.365 856.898 356.339C856.198 360.313 851.425 360.491 851.259 358.337C851.092 356.184 851.914 347.237 857.397 344.073C857.397 344.073 848.106 343.74 846.441 352.532C844.776 361.323 846.275 362.977 843.622 362.522C840.969 362.067 839.181 356.717 843.788 350.745C843.788 350.745 834.342 351.91 836.018 363.521C837.694 375.132 849.616 368.994 849.616 368.994C849.616 368.994 847.296 380.771 856.276 382.314C856.276 382.314 850.137 383.813 850.304 386.965C850.304 386.965 836.872 380.993 830.9 389.452C830.9 389.452 834.386 375.354 822.442 375.854C810.498 376.353 801.873 381.659 800.541 383.979C800.541 383.979 822.742 376.342 822.742 383.48C822.742 390.617 806.48 385.633 803.66 387.92C800.841 390.207 800.84 389.751 800.84 389.751C800.84 389.751 798.687 381.459 795.035 382.614C795.035 382.614 799.686 395.934 796.034 397.211C792.382 398.487 791.716 392.071 792.549 386.111C793.381 380.15 782.558 378.485 782.558 378.485C782.558 378.485 791.727 383.18 788.419 388.708C785.111 394.236 784.101 380.638 778.24 379.306C772.379 377.974 769.171 379.972 769.171 379.972C769.171 379.972 780.116 381.304 777.463 386.055C774.81 390.806 769.615 382.625 764.864 381.415C761.637 380.678 758.315 380.453 755.018 380.749C755.173 382.539 755.907 384.23 757.109 385.566C758.31 386.902 759.914 387.81 761.678 388.153C767.983 389.485 773.289 387.276 774.721 389.818C776.153 392.36 776.497 394.791 773.4 394.902C770.303 395.013 759.58 392.682 759.58 392.682C759.58 392.682 759.469 400.086 765.219 399.753C770.969 399.42 778.373 394.336 782.58 397.1C786.787 399.864 784.234 403.627 781.248 403.183C778.262 402.739 763.887 403.96 763.887 403.96C763.887 403.96 766.873 412.141 774.61 410.043C774.61 410.043 764.331 413.795 763.11 418.923C763.11 418.923 769.859 415.271 773.955 417.591C778.051 419.911 781.137 422.453 779.506 423.785C777.874 425.117 768.116 420.577 763.132 423.119C758.148 425.661 755.617 426.993 754.729 435.84C754.729 435.84 759.602 428.536 765.352 427.659C771.102 426.783 774.632 427.437 774.233 430.312C773.833 433.187 770.259 433.187 764.065 434.286C757.871 435.385 754.552 441.812 754.074 445.564C753.597 449.316 755.573 454.3 755.573 454.3C755.573 454.3 764.031 435.23 768.017 439.215C772.002 443.2 769.005 447.34 766.685 449.205C764.365 451.07 762.045 450.315 761.378 453.523C760.712 456.731 759.558 462.97 759.558 462.97C759.558 462.97 769.004 461.482 770.337 460.15C771.669 458.818 769.338 450.371 771.169 449.05C773.001 447.729 775.609 446.23 777.13 450.049C778.651 453.868 772.823 459.34 772.823 459.34C772.823 459.34 780.282 459.507 780.782 457.675C781.282 455.843 782.447 452.202 779.128 445.398C775.809 438.593 780.238 436.451 781.448 436.773C782.658 437.095 786.088 435.785 785.755 442.09C785.422 448.395 783.602 452.535 785.433 456.521C785.433 456.521 790.406 455.521 790.573 451.703C790.739 447.884 790.739 441.59 787.587 436.606C784.434 431.622 788.253 428.148 789.907 429.313C791.561 430.479 795.046 435.452 794.547 450.049C794.547 450.049 798.032 450.382 798.987 445.231C799.941 440.081 794.547 432.632 795.002 430.146C795.457 427.659 798.154 423.175 800.641 427.16C803.127 431.145 801.14 441.59 801.14 441.59C801.14 441.59 808.611 438.937 808.766 431.467C808.766 431.467 815.737 432.965 819.556 429.813C823.374 426.66 818.224 413.884 820.544 412.23C822.864 410.576 823.53 408.245 825.694 410.898C827.859 413.551 825.528 427.16 824.695 429.313C824.695 429.313 835.141 427.326 834.974 423.008C834.808 418.69 834.808 414.883 828.836 410.409C822.864 405.936 828.014 399.786 832.166 402.772C836.317 405.758 838.826 417.536 839.636 423.008C839.636 423.008 844.609 421.521 845.442 418.202C846.275 414.883 846.929 411.231 842.29 407.745C837.65 404.26 837.971 397.755 840.458 397.133C842.944 396.512 844.776 397.466 846.43 405.092C848.084 412.718 851.248 414.716 851.248 414.716C851.248 414.716 854.888 410.276 852.735 406.424C850.582 402.572 842.623 393.481 845.109 392.826C847.595 392.171 848.262 391.494 850.082 396.967C851.122 400.166 853.23 402.909 856.054 404.737C856.054 404.737 854.944 388.308 859.207 389.307C863.469 390.306 857.386 397.433 859.873 403.738C862.359 410.043 867.332 411.364 867.332 411.364C867.332 411.364 860.527 395.446 866.333 394.946C872.139 394.447 872.638 395.28 870.984 399.919C869.33 404.559 871.817 414.517 875.791 414.683C878.012 414.796 880.238 414.74 882.451 414.517C882.451 414.517 871.006 405.891 875.313 400.419C879.62 394.946 881.285 397.599 882.118 401.085C882.95 404.571 882.118 409.71 884.604 411.075C887.091 412.441 897.048 410.909 897.048 410.909C897.048 410.909 891.076 409.588 888.922 406.935C886.769 404.282 887.59 396.811 890.909 400.13C894.228 403.449 898.202 408.922 902.687 409.255C907.171 409.588 907.66 409.255 907.66 409.255C907.66 409.255 911.301 401.418 906.983 400.585ZM794.746 419.667C791.927 421.166 790.106 420.833 790.439 417.68C790.772 414.528 791.827 412.03 795.579 413.362C797.899 414.239 797.566 418.224 794.746 419.667ZM802.572 402.839C802.239 404.326 799.586 405.403 798.265 404.826C796.944 404.249 798.176 401.007 798.432 399.02C798.687 397.033 799.753 396.423 801.906 396.112C803.649 395.912 802.905 401.385 802.572 402.883V402.839ZM807.634 393.626C809.954 393.293 813.273 394.458 813.44 396.112C813.606 397.766 810.62 400.264 809.454 400.552C808.289 400.841 808.466 399.22 807.134 397.733C805.802 396.245 804.981 394.047 807.634 393.67V393.626ZM808.578 422.931C806.69 424.707 805.591 423.042 805.702 418.291C805.813 413.54 807.279 413.673 811.253 412.097C812.907 411.431 815.005 412.874 816.115 414.75C817.225 416.626 810.453 421.21 808.578 422.997V422.931ZM859.107 374.832C858.552 376.597 856.676 376.042 856.121 374.055C855.566 372.068 856.665 371.38 858.663 371.069C860.106 370.892 859.662 373.101 859.107 374.877V374.832Z" fill="#249660"/>
<g opacity="0.5">
<path opacity="0.5" d="M790.795 419.434C788.618 420.931 786.605 422.654 784.789 424.573C782.972 426.464 781.289 428.478 779.75 430.601C779.006 431.711 778.229 432.743 777.53 433.865C776.83 434.986 776.164 436.085 775.498 437.25C774.832 438.416 774.266 439.581 773.622 440.736C772.978 441.89 772.512 443.133 771.846 444.31C772.201 443.022 772.612 441.757 773.023 440.48C773.434 439.204 773.977 437.972 774.577 436.773C775.724 434.339 777.088 432.014 778.651 429.824C780.234 427.642 782.042 425.633 784.046 423.83C786.033 421.997 788.315 420.511 790.795 419.434Z" fill="#33F1A9"/>
</g>
<g opacity="0.5">
<path opacity="0.5" d="M797.411 411.186C796.272 408.802 794.892 406.54 793.292 404.437C791.718 402.342 790.001 400.357 788.153 398.499C787.209 397.588 786.288 396.656 785.278 395.812C784.268 394.969 783.28 394.114 782.27 393.27C781.259 392.427 780.16 391.683 779.117 390.861C778.074 390.04 776.897 389.352 775.876 388.53C777.086 389.085 778.284 389.696 779.472 390.306C780.66 390.917 781.792 391.65 782.88 392.438C785.102 393.952 787.18 395.669 789.085 397.566C790.983 399.481 792.68 401.587 794.147 403.849C795.632 406.098 796.735 408.577 797.411 411.186Z" fill="#33F1A9"/>
</g>
<g opacity="0.42">
<path opacity="0.42" d="M830.49 389.962C828.767 391.4 827.174 392.986 825.728 394.702C824.274 396.386 822.946 398.174 821.754 400.053C821.165 400.985 820.566 401.929 820.055 402.917L819.267 404.393L818.546 405.903C817.591 407.912 816.803 410.01 816.004 412.13C816.192 411.02 816.403 409.91 816.681 408.8C816.968 407.697 817.317 406.611 817.724 405.547C818.527 403.406 819.554 401.356 820.788 399.431C822.018 397.501 823.455 395.71 825.073 394.092C826.661 392.451 828.487 391.059 830.49 389.962Z" fill="#33F1A9"/>
</g>
<g opacity="0.5">
<path opacity="0.5" d="M825.639 459.051C823.291 460.263 821.078 461.718 819.034 463.392C816.988 465.031 815.063 466.815 813.273 468.731C812.385 469.697 811.486 470.651 810.675 471.684C809.865 472.716 809.044 473.748 808.233 474.781C807.423 475.813 806.713 476.934 805.936 478.011C805.159 479.088 804.493 480.231 803.716 481.341C804.226 480.109 804.826 478.899 805.369 477.689C805.913 476.479 806.624 475.314 807.379 474.204C808.827 471.936 810.476 469.803 812.307 467.832C814.152 465.868 816.198 464.104 818.412 462.57C820.607 461.001 823.05 459.812 825.639 459.051Z" fill="#33F1A9"/>
</g>
<g opacity="0.42">
<path opacity="0.42" d="M860.054 458.59C861.885 460.538 863.402 462.758 864.55 465.173C865.724 467.577 866.682 470.081 867.414 472.655C868.138 475.223 868.665 477.843 868.99 480.491C869.167 481.801 869.234 483.133 869.334 484.454C869.434 485.775 869.389 487.118 869.334 488.439C869.045 487.141 868.868 485.831 868.612 484.543C868.357 483.255 868.124 481.957 867.858 480.669C867.591 479.381 867.336 478.105 866.992 476.839C866.648 475.574 866.359 474.309 866.004 473.054C865.264 470.546 864.431 468.074 863.506 465.639C863.007 464.44 862.507 463.23 861.93 462.054C861.386 460.857 860.759 459.7 860.054 458.59Z" fill="#25996D"/>
</g>
<g opacity="0.42">
<path opacity="0.42" d="M867.68 394.086C870.329 394.469 872.902 395.263 875.306 396.439C877.724 397.581 880.034 398.937 882.21 400.491C884.375 402.048 886.42 403.766 888.327 405.63C889.293 406.54 890.169 407.539 891.08 408.516C891.99 409.493 892.778 410.559 893.566 411.613C892.534 410.781 891.579 409.871 890.569 409.016C889.559 408.161 888.582 407.306 887.561 406.474C886.54 405.641 885.563 404.787 884.497 404.021C883.431 403.255 882.432 402.433 881.356 401.678C879.241 400.154 877.047 398.743 874.784 397.449C873.674 396.816 872.498 396.184 871.31 395.629C870.136 395.033 868.923 394.518 867.68 394.086Z" fill="#25996D"/>
</g>

<path d="M1336.84 483.777C1322.41 491.37 1287.83 502.093 1276.71 498.829C1265.59 495.566 1223.96 494.778 1220.22 490.393C1216.48 486.008 1219.97 485.953 1219.97 485.953C1219.97 485.953 1215.68 485.531 1215.28 490.97C1214.88 496.409 1215.88 507.699 1215.88 507.699C1215.88 507.699 1222.22 526.492 1288.03 524.349C1353.85 522.207 1343.76 471.689 1343.76 471.689L1336.84 483.777Z" fill="#017AE3"/>
<path d="M1325.32 521.186C1326.66 520.575 1342.23 518.855 1347.52 509.874C1352.8 500.894 1354.08 429.074 1348.26 403.632C1342.45 378.19 1344.17 475.152 1342.09 487.995C1340.01 500.839 1325.93 518.277 1321.54 519.354C1317.16 520.431 1325.32 521.186 1325.32 521.186Z" fill="#017AE3"/>
<path d="M1334.76 481.013C1280.27 467.515 1268.85 472.133 1252.68 475.252C1236.5 478.371 1217.94 483.6 1217.42 489.05C1216.9 494.5 1259.88 506 1292.58 500.073C1322.53 494.644 1342.25 482.867 1334.76 481.013Z" fill="#94CDFF"/>
<path d="M1280.44 471.733C1285.9 456.936 1293.05 456.837 1299.31 456.193C1305.57 455.549 1317.07 454.217 1324.78 459.212C1332.5 464.207 1337.09 468.647 1334.77 481.058C1334.77 481.058 1327.56 514.237 1322.1 515.746C1316.64 517.256 1313.14 520.52 1309.58 521.419C1306.01 522.318 1321.45 523.461 1325.33 521.23C1329.2 518.999 1349.28 510.485 1349.58 455.571C1349.88 400.657 1347.9 392.787 1342.01 387.148C1336.13 381.509 1302.46 382.53 1294.7 386.982C1286.94 391.433 1281.73 395.174 1276.33 407.462C1270.94 419.75 1254.86 467.859 1252.69 475.297C1252.68 475.252 1279.57 474.076 1280.44 471.733Z" fill="#94CDFF"/>
<path d="M928.632 521.33H919.774V599.433H928.632V521.33Z" fill="#0E47A1"/>
<path d="M865.271 487.018C879.979 494.045 914.968 503.436 925.946 499.74C936.924 496.043 978.496 493.657 982.07 489.128C985.644 484.599 982.136 484.687 982.136 484.687C982.136 484.687 986.421 484.099 987.032 489.516C987.642 494.933 987.032 506.256 987.032 506.256C987.032 506.256 981.426 525.271 915.567 525.626C849.708 525.981 857.845 475.163 857.845 475.163L865.271 487.018Z" fill="#017AE3"/>
<path d="M878.236 523.972C876.871 523.406 861.242 522.285 855.647 513.515C850.053 504.746 845.968 433.037 850.796 407.384C855.625 381.731 857.645 478.693 860.221 491.436C862.796 504.18 877.537 521.063 881.966 521.985C886.395 522.906 878.236 523.972 878.236 523.972Z" fill="#017AE3"/>
<path d="M867.247 484.188C921.184 468.647 932.74 472.754 949.046 475.308C965.353 477.861 984.079 482.312 984.812 487.74C985.544 493.168 943.041 506.311 910.128 501.649C879.99 497.331 859.843 486.33 867.247 484.188Z" fill="#94CDFF"/>
<path d="M921.173 472.821C915.145 458.246 907.997 458.391 901.67 457.969C895.342 457.547 883.809 456.692 876.327 461.976C868.846 467.26 864.394 471.878 867.247 484.177C867.247 484.177 875.739 517.056 881.256 518.344C886.773 519.632 890.38 522.784 893.988 523.528C897.596 524.272 882.199 526.037 878.237 523.961C874.274 521.885 853.882 514.137 851.462 459.279C849.042 404.42 850.741 396.483 856.391 390.611C862.041 384.739 895.731 384.473 903.657 388.624C911.582 392.776 916.977 396.306 922.816 408.383C928.655 420.46 946.582 467.904 949.046 475.252C949.046 475.263 922.128 475.13 921.173 472.821Z" fill="#94CDFF"/>
<path d="M1365.28 616.461L1293.54 602.03V571.804C1293.58 570.305 1293.03 568.85 1292 567.758C1290.97 566.666 1289.55 566.025 1288.05 565.976H1284.26C1282.76 566.028 1281.34 566.67 1280.32 567.761C1279.29 568.853 1278.73 570.305 1278.77 571.804V603.318L1209.07 617.338V624.875L1280.02 617.804C1280.51 618.461 1281.15 618.995 1281.89 619.367C1282.62 619.738 1283.43 619.936 1284.26 619.946H1284.51V651.86L1288.89 652.148L1289.26 619.791C1290.06 619.589 1290.79 619.215 1291.43 618.695C1292.06 618.175 1292.57 617.522 1292.92 616.783L1365.28 624.009V616.461Z" fill="#1A3765"/>
<path d="M1003.89 616.461L932.151 602.03V571.804C932.193 570.305 931.64 568.85 930.612 567.758C929.585 566.666 928.166 566.025 926.668 565.976H922.86C921.362 566.028 919.946 566.67 918.919 567.761C917.892 568.853 917.338 570.305 917.377 571.804V603.318L847.677 617.338V624.875L918.62 617.804C919.116 618.461 919.756 618.995 920.492 619.367C921.227 619.738 922.037 619.936 922.86 619.946H923.116V651.86L927.489 652.148L927.878 619.791C928.668 619.588 929.405 619.213 930.034 618.693C930.663 618.173 931.17 617.521 931.519 616.783L1003.89 624.009V616.461Z" fill="#1A3765"/>
<path d="M852.328 634.899C855.069 634.899 857.29 632.677 857.29 629.937C857.29 627.196 855.069 624.975 852.328 624.975C849.588 624.975 847.366 627.196 847.366 629.937C847.366 632.677 849.588 634.899 852.328 634.899Z" fill="#0E47A1"/>
<path d="M925.78 662.383C928.52 662.383 930.742 660.162 930.742 657.421C930.742 654.681 928.52 652.459 925.78 652.459C923.039 652.459 920.818 654.681 920.818 657.421C920.818 660.162 923.039 662.383 925.78 662.383Z" fill="#0E47A1"/>
<path d="M999.686 633.544C1002.43 633.544 1004.65 631.323 1004.65 628.582C1004.65 625.842 1002.43 623.62 999.686 623.62C996.946 623.62 994.724 625.842 994.724 628.582C994.724 631.323 996.946 633.544 999.686 633.544Z" fill="#0E47A1"/>
<path d="M1214.48 637.152C1217.22 637.152 1219.44 634.93 1219.44 632.19C1219.44 629.45 1217.22 627.228 1214.48 627.228C1211.74 627.228 1209.52 629.45 1209.52 632.19C1209.52 634.93 1211.74 637.152 1214.48 637.152Z" fill="#0E47A1"/>
<path d="M1360.47 637.152C1363.21 637.152 1365.43 634.93 1365.43 632.19C1365.43 629.45 1363.21 627.228 1360.47 627.228C1357.73 627.228 1355.51 629.45 1355.51 632.19C1355.51 634.93 1357.73 637.152 1360.47 637.152Z" fill="#0E47A1"/>
<path d="M1287.78 665.38C1290.52 665.38 1292.74 663.159 1292.74 660.418C1292.74 657.678 1290.52 655.456 1287.78 655.456C1285.04 655.456 1282.81 657.678 1282.81 660.418C1282.81 663.159 1285.04 665.38 1287.78 665.38Z" fill="#0E47A1"/>
<path opacity="0.3" d="M734.051 601.258C747.201 598.154 755.346 584.978 752.242 571.827C749.138 558.677 735.962 550.532 722.811 553.636C709.661 556.74 701.516 569.917 704.62 583.067C707.724 596.218 720.9 604.362 734.051 601.258Z" stroke="white" stroke-width="2" stroke-miterlimit="10" stroke-dasharray="3.64 3.64"/>
<path opacity="0.2" d="M996.779 199.156C1000.82 198.202 1003.33 194.15 1002.37 190.106C1001.42 186.062 997.366 183.557 993.322 184.512C989.278 185.466 986.774 189.518 987.728 193.562C988.683 197.606 992.735 200.111 996.779 199.156Z" stroke="white" stroke-width="2" stroke-miterlimit="10" stroke-dasharray="3.64 3.64"/>
<path opacity="0.2" d="M917.995 342.597C926.248 340.65 931.358 332.381 929.411 324.129C927.463 315.876 919.194 310.766 910.942 312.713C902.69 314.661 897.579 322.93 899.527 331.182C901.474 339.434 909.743 344.545 917.995 342.597Z" stroke="white" stroke-width="2" stroke-miterlimit="10" stroke-dasharray="3.64 3.64"/>
<path opacity="0.2" d="M1427.08 250.867C1446.84 246.204 1459.08 226.407 1454.41 206.65C1449.75 186.892 1429.95 174.656 1410.2 179.319C1390.44 183.982 1378.2 203.779 1382.87 223.536C1387.53 243.294 1407.33 255.53 1427.08 250.867Z" stroke="white" stroke-width="2" stroke-miterlimit="10" stroke-dasharray="3.64 3.64"/>
<path d="M1117.44 472.666H1105.42V682.353H1117.44V472.666Z" fill="#1A3765"/>
<path d="M997.233 482.989C997.855 494.356 998.465 514.625 999.076 527.901C999.076 527.901 974.322 556.341 952.454 618.647L955.717 619.757C955.717 619.757 1009.54 556.196 1019.21 540.378C1029.57 523.461 1036.1 498.374 1039.08 484.876C1032.78 484.721 1026.46 484.687 1020.1 485.065C1011.4 485.542 1005.47 484.044 997.233 482.989Z" fill="#E2B7A4"/>
<path d="M1037.31 479.393C1043.87 493.224 1056.76 524.904 1065.84 548.404C1064.04 557.326 1063.85 566.498 1065.27 575.489C1067.49 588.166 1074.56 613.486 1077.4 632.656H1083.64C1083.64 632.656 1088.87 578.686 1087.7 549.958C1087.15 536.094 1081.5 496.099 1078.13 480.269C1073.6 480.447 1069.05 480.547 1064.48 480.525C1055.28 480.625 1046.27 479.981 1037.31 479.393Z" fill="#E2B7A4"/>
<path d="M1088.43 646.509C1082.34 645.399 1083.49 632.512 1083.49 632.512L1077.4 632.223C1069.55 642.88 1070.15 656.966 1070.15 656.966H1074.4C1074.87 655.979 1075.61 655.145 1076.54 654.561C1077.46 653.977 1078.53 653.667 1079.63 653.667C1080.72 653.667 1081.79 653.977 1082.71 654.561C1083.64 655.145 1084.38 655.979 1084.85 656.966H1099.75C1099.75 656.966 1099.75 655.223 1100.03 651.738C1100.32 648.252 1094.53 647.675 1088.43 646.509Z" fill="#253B59"/>
<path d="M955.995 632.223C951.233 628.249 957.593 617.604 957.593 617.604L953.941 614.762C941.909 620.257 934.949 632.523 934.949 632.523L938.667 634.588C939.56 633.96 940.612 633.596 941.702 633.539C942.792 633.481 943.876 633.732 944.83 634.263C945.784 634.794 946.569 635.583 947.095 636.54C947.62 637.496 947.866 638.582 947.803 639.672L960.813 646.909C960.813 646.909 961.656 645.388 963.61 642.469C965.564 639.549 960.757 636.197 955.995 632.223Z" fill="#253B59"/>
<path d="M1002.89 407.983C1002.89 407.983 990.351 427.909 995.934 507.954C1005.41 508.764 1030.35 508.12 1040.89 506.844C1046.12 506.333 1078.97 503.225 1084.13 502.404C1071.79 453.562 1055.44 408.55 1055.44 408.55L1002.89 407.983Z" fill="#017AE3"/>
<path d="M1012.19 329.559C1012.19 329.559 1026.72 313.008 1027.17 313.508C1048.07 336.819 1069.02 372.518 1071.03 371.163C1078.47 366.146 1111.76 356.6 1111.76 356.6L1114.1 360.129C1114.1 360.129 1085 380.454 1075.76 384.062C1073.87 384.859 1071.82 385.23 1069.77 385.15C1067.72 385.069 1065.71 384.539 1063.89 383.596C1049.52 376.314 1012.19 329.559 1012.19 329.559Z" fill="#E2B7A4"/>
<path d="M1109.67 362.982C1109.67 362.982 1132.72 359.264 1136.31 349.173C1139.9 339.083 1125.07 340.904 1122.63 342.513C1120.2 344.123 1107.24 358.054 1107.24 358.054L1109.67 362.982Z" fill="#E2B7A4"/>
<path d="M1056.73 407.662C1056.73 407.662 1074.29 423.047 1084.38 419.395C1094.47 415.743 1083.57 405.464 1080.81 404.609C1078.04 403.754 1057.5 404.276 1057.5 404.276L1056.73 407.662Z" fill="#E2B7A4"/>
<path d="M1008.33 256.773C1003.52 280.617 1001.02 297.279 987.509 310.266C974 323.254 966.019 330.958 983.491 347.642C1000.96 364.326 1029.68 360.019 1039.13 340.082C1048.57 320.146 1056.96 262.146 1052.45 248.437C1047.93 234.728 1008.33 256.773 1008.33 256.773Z" fill="#562928"/>
<path d="M1032.29 290.752C1032.29 290.752 1033.62 273.258 1035.91 273.89C1041.97 275.589 1050.34 279.041 1050.85 270.294C1051.36 261.547 1056.25 240.944 1039.75 234.95C1023.24 228.956 1017.76 238.402 1016.83 244.396C1015.89 250.391 1021.62 264.954 1021.84 271.593C1022.06 278.231 1018.16 289.964 1018.16 289.964L1032.29 290.752Z" fill="#E2B7A4"/>
<path d="M1032.23 256.296C1032.23 256.296 1027.23 250.579 1025.39 257.24C1024.11 261.924 1031.72 263.6 1031.72 263.6C1031.72 263.6 1025 286.09 1016.94 291.551C1016.94 291.551 1014.27 274.257 1009.17 261.957C1004.06 249.658 1021.12 215.202 1047.92 235.694C1071.32 253.599 1032.23 256.296 1032.23 256.296Z" fill="#562928"/>
<path d="M1028.54 252.111C1031.5 256.907 1038.2 259.271 1043.6 257.994C1048.51 256.818 1053.76 252.344 1054.07 247.072C1054.09 246.947 1054.06 246.82 1054 246.713C1053.93 246.606 1053.82 246.528 1053.7 246.494C1053.58 246.459 1053.45 246.471 1053.34 246.526C1053.23 246.582 1053.14 246.677 1053.09 246.794C1052.29 248.988 1051.11 251.021 1049.59 252.799C1047.91 254.569 1045.78 255.847 1043.43 256.496C1038 257.983 1032.78 255.73 1029 251.745C1028.95 251.688 1028.88 251.653 1028.8 251.645C1028.72 251.637 1028.65 251.657 1028.58 251.702C1028.52 251.746 1028.47 251.812 1028.46 251.887C1028.44 251.963 1028.45 252.042 1028.48 252.111H1028.54Z" fill="#562928"/>
<path d="M1012.16 245.562C1010.41 254.009 1008.49 262.546 1006.02 270.771C1003.94 278.174 1000.96 285.294 997.144 291.973C995.222 295.214 992.991 298.262 990.484 301.075C987.898 303.961 985.023 306.437 982.225 309.023C977.463 313.408 972.446 318.836 971.28 326.084C970.956 329.247 971.636 332.432 973.223 335.187C974.577 337.829 976.375 341.003 978.773 342.446C979.683 342.99 980.482 341.858 979.883 340.892C977.319 336.53 972.39 332.068 973.534 326.029C974.966 318.436 980.693 313.363 985.644 308.812C990.796 304.209 995.18 298.813 998.632 292.828C1002.08 286.605 1004.82 280.014 1006.79 273.18C1009.45 264.211 1010.88 254.986 1012.5 245.728C1012.5 245.395 1012.12 245.207 1012.05 245.562H1012.16Z" fill="#562928"/>
<path d="M1000.45 307.935C998.909 323.998 1009.4 342.613 1009.93 352.825C1011.04 374.86 1004.15 389.59 1000.07 410.87H1055.21C1055.21 410.87 1041.81 374.749 1055.68 344.067C1061.14 332.001 1060.28 323.32 1048.85 313.197C1042.19 307.336 1032.2 289.076 1032.2 289.076L1016.89 289.22C1016.89 289.22 1002.26 289.198 1000.45 307.935Z" fill="white"/>
<path d="M1019.79 289.364C1019.79 289.364 1028.86 308.324 1040.66 302.885C1040.66 302.885 1034.11 292.095 1032.38 289.031L1019.79 289.364Z" fill="#E2B7A4"/>
<path d="M1075.34 413.478H1004.25V469.757H1075.34V413.478Z" fill="#0E47A1"/>
<path d="M1039.79 455.615C1021.32 455.615 1006.3 440.996 1006.3 423.036C1006.3 405.075 1021.32 390.467 1039.79 390.467C1058.26 390.467 1073.27 405.086 1073.27 423.036C1073.27 440.985 1058.29 455.615 1039.79 455.615ZM1039.79 394.419C1023.5 394.419 1010.25 407.262 1010.25 423.036C1010.25 438.809 1023.5 451.664 1039.79 451.664C1056.09 451.664 1069.39 438.821 1069.39 423.036C1069.39 407.251 1056.07 394.419 1039.79 394.419Z" fill="#0E47A1"/>
<path d="M1002.51 317.138C1002.51 317.138 1024.38 314.64 1024.38 315.317C1024.22 346.609 1015.73 387.148 1018.12 387.47C1027 388.746 1058.09 404.043 1058.09 404.043L1057.44 408.239C1057.44 408.239 1022.23 403.743 1012.96 400.202C1011.03 399.519 1009.27 398.419 1007.8 396.981C1006.34 395.542 1005.21 393.8 1004.49 391.877C998.732 376.858 1002.51 317.138 1002.51 317.138Z" fill="#E2B7A4"/>
<path d="M1238.5 299.133C1238.5 299.133 1244.82 348.763 1230.8 355.745C1216.78 362.727 1206.7 357.41 1195.14 353.591C1183.59 349.773 1159.16 336.608 1159.16 336.608L1163.95 330.836C1163.95 330.836 1188.02 334.976 1195.51 337.496C1204.54 340.515 1215.7 344.511 1218.21 338.084C1220.72 331.657 1220.3 327.75 1219.8 319.691C1219.54 313.604 1219.63 307.507 1220.06 301.43C1220.06 301.43 1238.81 298.567 1238.5 299.133Z" fill="#D18E7C"/>
<path d="M1251.99 420.594C1251.99 420.594 1215.67 410.981 1216.88 413.045C1218.09 415.11 1191.12 495.988 1183.72 528.612C1176.32 561.236 1186.76 654.968 1186.76 654.968L1196.1 655.9C1196.1 655.9 1203.87 617.782 1207.62 583.392C1211.37 549.003 1204.9 555.519 1212.83 536.471C1220.75 517.423 1237.16 488.617 1246.68 453.662C1256.21 418.706 1259.04 422.103 1259.04 422.103L1251.99 420.594Z" fill="#0E47A1"/>
<path d="M1262.26 403.854C1262.26 403.854 1224.91 407.917 1226.73 409.404C1228.55 410.892 1239.32 499.884 1242.79 533.207C1246.25 566.531 1267.95 651.16 1267.95 651.16L1276.41 650.605C1276.41 650.605 1280.12 606.037 1272.59 572.458C1265.06 538.88 1275.85 472.122 1273.63 435.923C1271.41 399.725 1269.38 402.722 1269.38 402.722L1262.26 403.854Z" fill="#0E47A1"/>
<path d="M1211.47 247.871C1211.47 247.871 1207.64 274.812 1217.87 275.289C1228.09 275.766 1235.87 266.275 1237.27 262.279C1238.67 258.283 1245.83 242.221 1239.07 235.971C1234.23 231.542 1216.63 222.562 1211.47 247.871Z" fill="#DF9E88"/>
<path d="M1247.37 282.016C1247.37 282.016 1239.03 272.791 1236.53 257.095C1235.77 252.367 1225.71 266.664 1225.71 266.664L1225.27 272.902C1225.27 272.902 1232.84 271.57 1227.83 283.548C1227.63 283.97 1247.37 282.016 1247.37 282.016Z" fill="#DF9E88"/>
<path d="M1237.32 262.013L1236.21 258.683C1236.21 258.683 1241.53 255.575 1239.41 251.567C1237.29 247.56 1233.07 253.787 1233.07 253.787H1231.4L1229.71 243.442C1234.95 243.964 1239.53 246.772 1244.21 249.292C1241.73 254.398 1238.59 260.659 1237.32 262.013Z" fill="#563736"/>
<path d="M1218.85 228.467C1238.38 215.147 1247.38 242.709 1247.38 242.709C1247.63 242.842 1245.47 247.938 1243.17 251.323C1238.5 248.837 1229.25 244.141 1229.25 244.141C1229.25 244.141 1218.15 239.046 1212.1 245.251C1211.08 246.372 1213.07 232.464 1218.85 228.467Z" fill="#281814"/>
<path d="M1211.88 244.818C1211.88 244.818 1206.58 210.107 1238.15 227.058C1238.11 227.113 1211.75 216.312 1211.88 244.818Z" fill="#281814"/>
<path d="M1232.75 255.83C1231.75 261.815 1229.88 267.622 1227.2 273.069C1224.37 278.486 1221.65 279.996 1218.02 279.996C1214.39 279.996 1210.52 281.45 1210.83 274.123C1211.12 267.463 1210.98 264.133 1210.98 264.133C1210.98 264.133 1228.19 266.719 1231.12 256.529L1232.75 255.83Z" fill="#281814"/>
<path d="M1222.51 260.148C1211.93 264.377 1210.29 257.262 1210.41 260.47C1210.81 269.661 1222.51 260.148 1222.51 260.148Z" fill="#281814"/>
<path d="M1247.65 281.15L1226.33 282.715C1226.33 282.715 1196.42 335.442 1212.5 425.444L1273.56 424.456C1273.56 424.456 1274.4 387.414 1271.87 345.643C1270.3 319.491 1264.75 294.515 1247.65 281.15Z" fill="#D1DBEF"/>
<path d="M1235.45 314.562C1235.45 314.562 1218.32 325.663 1207.77 333.122C1197.23 340.582 1197.84 337.474 1185.42 338.672C1173 339.871 1138.86 349.229 1138.86 349.229L1138.93 356.811C1138.93 356.811 1161.83 362.261 1178.59 358.531C1195.35 354.801 1225.21 355.545 1249.41 327.55C1249.41 327.594 1235.45 313.63 1235.45 314.562Z" fill="#DF9E88"/>
<path d="M1141.29 350.028C1141.29 350.028 1132.8 343.645 1123.8 343.035C1114.8 342.424 1113.6 361.051 1122.6 361.051C1131.6 361.051 1141.47 356.466 1141.47 356.466L1141.29 350.028Z" fill="#DF9E88"/>
<path d="M1164.23 331.069C1164.23 331.069 1156.88 323.476 1148.01 321.844C1139.14 320.212 1135.8 338.55 1144.68 339.605C1153.56 340.659 1163.99 337.252 1163.99 337.252L1164.23 331.069Z" fill="#D18E7C"/>
<path d="M1246.27 341.126C1246.27 341.126 1233.28 319.48 1222.04 317.004C1222.04 317.004 1235.17 287.488 1253.99 303.617C1272.8 319.746 1246.27 341.126 1246.27 341.126Z" fill="white"/>
<path d="M1268.72 649.917L1276.85 649.562C1276.85 649.562 1280.25 659.264 1276.15 661.573H1242.65C1242.65 661.573 1240.08 655.678 1251.37 655.423C1262.66 655.168 1268.72 649.917 1268.72 649.917Z" fill="#601B13"/>
<path d="M1187.94 651.471L1196.08 651.127C1196.08 651.127 1199.47 660.829 1195.36 663.138H1161.86C1161.86 663.138 1159.3 657.244 1170.59 656.977C1181.88 656.711 1187.94 651.471 1187.94 651.471Z" fill="#601B13"/>
<path d="M1161.2 331.479C1160.48 324.142 1159.09 315.173 1156.92 316.061C1154.76 316.949 1155.57 327.738 1157.88 330.07C1160.19 332.401 1161.2 331.479 1161.2 331.479Z" fill="#D18E7C"/>
<path d="M1314.03 397.86H1219.41V454.716H1314.03V397.86Z" fill="#1A3765"/>
<path d="M1314.03 456.182H1219.41V461.587H1314.03V456.182Z" fill="#1A3765"/>
<path d="M1264.94 429.707C1268.59 429.707 1271.55 426.75 1271.55 423.102C1271.55 419.455 1268.59 416.498 1264.94 416.498C1261.29 416.498 1258.34 419.455 1258.34 423.102C1258.34 426.75 1261.29 429.707 1264.94 429.707Z" fill="white"/>
<path d="M1494 462H1068V479H1494V462Z" fill="#987155"/>
<path d="M1357.69 357.299H1336.04V462.198H1357.69V357.299Z" fill="#1A3765"/>
<path d="M1346.86 375.914C1348.7 375.914 1350.19 374.423 1350.19 372.584C1350.19 370.745 1348.7 369.254 1346.86 369.254C1345.02 369.254 1343.53 370.745 1343.53 372.584C1343.53 374.423 1345.02 375.914 1346.86 375.914Z" fill="white"/>
<path d="M1377.21 365.746H1357.31V462.198H1377.21V365.746Z" fill="#017AE3"/>
<path d="M1367.25 382.02C1369.09 382.02 1370.58 380.529 1370.58 378.689C1370.58 376.85 1369.09 375.359 1367.25 375.359C1365.42 375.359 1363.92 376.85 1363.92 378.689C1363.92 380.529 1365.42 382.02 1367.25 382.02Z" fill="white"/>
<path d="M1397.19 359.541H1377.29V461.909H1397.19V359.541Z" fill="#0E47A1"/>
<path d="M1387.24 374.527C1389.07 374.527 1390.57 373.036 1390.57 371.197C1390.57 369.357 1389.07 367.866 1387.24 367.866C1385.4 367.866 1383.91 369.357 1383.91 371.197C1383.91 373.036 1385.4 374.527 1387.24 374.527Z" fill="white"/>
<path d="M1120.9 437.704C1120.9 433.838 1124.03 430.704 1127.9 430.704H1144.68L1185.12 437.261C1188.51 437.811 1191 440.738 1191 444.171V462H1120.9V437.704Z" fill="#1A3765"/>
<path d="M1120.9 443.222L1191 450.733" stroke="black"/>
<path d="M1133.41 405.041C1138.03 414.274 1140.3 429.035 1140.3 433.207H1130.29C1128.82 428.409 1127.57 416.298 1123.4 410.048C1118.39 402.537 1110.26 400.659 1106.5 399.407L1109.63 397.53V393.774L1112.76 392.522L1112.13 388.767C1119.44 391.062 1128.41 395.026 1133.41 405.041Z" fill="white"/>
<path d="M1114.64 399.407L1117.77 394.4M1119.02 401.911L1122.77 398.156M1123.4 405.667L1125.28 404.415M1125.28 409.422L1127.16 408.17M1129.03 420.063L1135.92 418.185M1130.29 425.07L1136.54 423.819" stroke="black" stroke-opacity="0.1"/>


</g>

</svg>