<svg width="827" height="710" viewBox="0 -200 827 710" fill="none" xmlns="http://www.w3.org/2000/svg">
<path d="M39.5355 176.533C110.894 126.126 180.908 206.703 243.742 178.64C306.575 150.576 258.294 69.2504 332.975 29.0171C407.661 -11.2069 510.756 -9.71906 600.522 43.8945C690.289 97.508 751.29 218.587 816.134 233.538C880.987 248.489 1096.26 216.267 1136.94 461.474C1177.61 706.681 799.642 540.444 810.555 602.845C821.469 665.237 803.852 734.301 682.324 701.598C560.796 668.896 377.732 600.775 392.352 527.322C406.982 453.869 187.298 431.156 114.526 400.348C33.0298 365.853 -51.6693 240.986 39.5355 176.533Z" fill="#E9EAEC"/>
<path d="M215.765 73.5843C165.161 57.8569 131.934 117.421 143.291 138.582C164.906 178.834 233.276 170.924 250.794 150.392C268.31 129.859 269.432 90.2634 215.765 73.5843Z" fill="#E9EAEC"/>
<path d="M776.989 52.9779C737.825 18.6401 681.606 59.6681 682.712 83.407C684.807 128.575 750.436 148.46 775.34 136.706C800.233 124.943 818.52 89.404 776.989 52.9779Z" fill="#E9EAEC"/>
<path d="M678.977 146.871C693.286 146.871 704.899 135.819 704.899 122.18C704.899 108.541 693.286 97.4803 678.977 97.4803C664.658 97.4803 653.045 108.541 653.045 122.18C653.045 135.819 664.658 146.871 678.977 146.871Z" stroke="#A8B4C6" stroke-width="1.875" stroke-miterlimit="10" stroke-dasharray="4.42 4.42"/>
<path d="M192.695 293.564C207.014 293.564 218.621 282.513 218.621 268.874C218.621 255.235 207.014 244.174 192.695 244.174C178.376 244.174 166.768 255.235 166.768 268.874C166.768 282.513 178.376 293.564 192.695 293.564Z" stroke="#A8B4C6" stroke-width="1.875" stroke-miterlimit="10" stroke-dasharray="4.42 4.42"/>
<path opacity="0.11" d="M574.319 52.3958C573.941 52.2756 573.553 52.2017 573.165 52.1647C572.893 52.1278 572.631 52.1093 572.36 52.0909C574.717 46.3894 575.755 40.1335 574.736 35.7166C574.048 32.7041 572.515 31.0686 570.565 30.7914L568.576 30.5789C567.004 30.431 565.161 31.1517 563.25 32.7134C562.94 32.2514 562.523 31.8541 562.037 31.5492C561.552 31.2442 560.999 31.0409 560.427 30.9485L558.448 30.7268C556.071 30.5142 553.103 32.2422 550.202 35.8922C546.7 40.2814 544.139 46.3987 543.178 51.9892H540.404C542.586 46.4541 543.508 40.494 542.538 36.2433C541.849 33.2217 540.316 31.5861 538.357 31.3182L536.368 31.0963C534.913 30.9762 533.244 31.5676 531.517 32.8798C530.877 32.1313 529.975 31.6323 528.975 31.4844L526.987 31.2627C524.62 31.0501 521.651 32.7688 518.741 36.4188C515.364 40.651 512.871 46.491 511.824 51.9152H511.503L511.542 51.8783H508.409C510.427 46.5188 511.242 40.845 510.3 36.7515C509.612 33.7298 508.089 32.085 506.129 31.8171L504.14 31.5953C502.811 31.4752 501.298 31.9649 499.707 33.0645C499.095 32.3992 498.251 31.9649 497.33 31.8263L495.341 31.6138C492.964 31.4013 489.996 33.12 487.095 36.77C483.796 40.9005 481.362 46.5465 480.265 51.8413H479.964H476.365C478.228 46.6482 478.965 41.2055 478.063 37.2505C477.365 34.2289 475.841 32.5933 473.872 32.3161L471.883 32.1036C470.486 31.9742 468.856 32.5286 467.188 33.7576C466.606 33.2309 465.869 32.889 465.073 32.7781L463.084 32.5656C460.717 32.3438 457.749 34.0625 454.838 37.7125C451.646 41.917 449.396 46.7035 448.232 51.7673H446.815H444.322C446.039 46.7497 446.689 41.5566 445.816 37.7403C445.127 34.7186 443.604 33.0831 441.635 32.8151L439.656 32.5932C438.074 32.4546 436.231 33.1755 434.32 34.7371C434.009 34.2658 433.592 33.8685 433.107 33.5635C432.612 33.2679 432.069 33.0645 431.497 32.9721L429.508 32.7504C427.141 32.5378 424.172 34.2565 421.262 37.9066C418.128 42.0371 415.907 46.722 414.723 51.6842H412.676C414.229 46.8699 414.791 41.954 413.947 38.3039C413.258 35.2823 411.735 33.6375 409.776 33.3695L407.787 33.1478C406.293 33.1016 404.828 33.5544 403.635 34.423C403.111 34.0256 402.48 33.7668 401.821 33.6744L399.832 33.4527C397.465 33.2401 394.496 34.9681 391.586 38.6181C388.617 42.5176 386.463 46.9254 385.251 51.6011H383.98H380.255C381.69 46.9439 382.195 42.2404 381.39 38.7197C380.691 35.6981 379.168 34.0533 377.208 33.7853L375.225 33.5635C373.648 33.4249 371.805 34.1458 369.896 35.7074C369.576 35.2454 369.16 34.8572 368.672 34.5615C368.184 34.2565 367.636 34.0625 367.064 33.9793L365.075 33.7576C362.71 33.5358 359.739 35.2546 356.829 38.9139C353.884 42.7856 351.744 47.1563 350.529 51.7858C349.417 52.0723 348.375 52.5714 347.464 53.2459C346.554 53.9205 345.793 54.7521 345.223 55.7131C344.01 56.6002 343.031 57.7552 342.363 59.0674C341.697 60.3888 341.359 61.8304 341.38 63.2904L341.343 92.8601L341.191 201.002C335.643 202.286 321.182 209.208 316.059 227.291C313.749 227.513 311.467 227.938 309.238 228.557L280.207 248.064H278.994C277.071 248.166 275.222 248.803 273.676 249.903L271.258 251.649C270.865 251.899 270.579 252.278 270.451 252.703V254.477L264.387 258.561H259.603C257.679 258.663 255.828 259.3 254.28 260.4L251.855 262.304C251.463 262.553 251.176 262.923 251.042 263.357V267.543L247.95 269.622H243.469C241.546 269.724 239.696 270.361 238.152 271.461L235.727 273.355C235.331 273.605 235.042 273.984 234.914 274.418V278.401L233.222 279.556C233.222 279.556 223.836 283.492 223.836 298.24C223.836 312.988 224.879 312.008 224.879 312.008H316.556C316.569 312.018 316.583 312.018 316.599 312.018C316.614 312.018 316.629 312.018 316.641 312.008H422.902V250.965L569.343 251.391C570.497 251.391 571.642 251.15 572.699 250.688C573.747 250.235 574.688 249.57 575.454 248.748L577.88 246.133C579.529 244.349 580.431 242.058 580.412 239.683L580.615 90.8271L580.654 61.2574C580.703 57.016 577.996 53.4492 574.319 52.3958ZM359.339 61.2389C359.34 60.9062 359.384 60.5736 359.473 60.241H359.551C359.584 61.0356 359.673 61.8211 359.818 62.5973L359.63 62.7636C359.434 62.2831 359.335 61.7656 359.339 61.2389ZM391.867 64.0203C391.169 63.2811 390.79 62.3201 390.81 61.3314C390.81 60.9987 390.848 60.666 390.936 60.3333C391.256 60.2317 391.595 60.1856 391.945 60.1856H392.139C392.178 61.0357 392.294 61.8766 392.478 62.699C392.556 63.0224 392.643 63.3273 392.73 63.6138C392.449 63.7709 392.158 63.9094 391.867 64.0203ZM373.812 64.9075C373.487 65.0091 373.147 65.0645 372.806 65.0552H372.593C373.036 64.6302 373.472 64.1497 373.915 63.623C373.925 63.7709 373.925 63.9187 373.915 64.0758C373.914 64.353 373.879 64.6395 373.812 64.9075ZM405.992 38.535C405.924 38.2115 405.837 37.9159 405.74 37.6294C406.303 37.3152 406.923 37.1026 407.564 37.001C408.728 37.4907 409.62 38.7383 410.067 40.6696C410.746 43.645 410.261 47.6831 408.932 51.6011H404.818C406.283 46.8514 406.807 42.0833 405.992 38.535ZM405.391 64.4454C405.371 64.6395 405.332 64.8335 405.284 65.0276C405.09 65.083 404.886 65.1292 404.682 65.1477C404.896 64.9075 405.158 64.6764 405.381 64.4177L405.391 64.4454ZM403.751 60.8509C402.985 61.7195 402.092 62.4864 401.103 63.1147C400.841 62.5696 400.705 61.9782 400.705 61.3775C400.705 61.0449 400.753 60.7122 400.841 60.3796C401.171 60.2779 401.51 60.2317 401.85 60.2317C402.296 60.2317 402.733 60.3241 403.13 60.4905C403.344 60.5921 403.547 60.703 403.741 60.8231L403.751 60.8509ZM401.927 41.0299C401.976 40.9652 402.034 40.9098 402.082 40.8451L402.112 40.9745C402.781 43.8668 402.325 47.7662 401.083 51.5826H396.863C397.795 47.7662 399.512 44.1717 401.918 41.0022L401.927 41.0299ZM393.972 41.3349C395.922 38.8861 397.911 37.5555 399.609 37.2875C399.774 37.3707 399.939 37.4539 400.094 37.5555L399.541 38.2208C396.514 42.222 394.331 46.7405 393.128 51.5363H388.995C389.946 47.8586 391.634 44.3842 393.963 41.3071L393.972 41.3349ZM371.351 39.3389C372.338 38.3686 373.603 37.6941 374.989 37.4076C376.161 37.8974 377.053 39.1356 377.499 41.0761C378.149 43.9222 377.723 47.7478 376.52 51.5087H371.254H370.18C371.502 47.101 371.981 42.7116 371.344 39.3111L371.351 39.3389ZM369.379 60.2687C369.705 60.1763 370.045 60.1208 370.386 60.1208C370.803 60.1208 371.215 60.204 371.599 60.3611C371.678 60.3888 371.745 60.435 371.817 60.472C371.144 61.3221 370.38 62.0891 369.538 62.7821C369.337 62.3016 369.234 61.7841 369.234 61.2666C369.239 60.934 369.288 60.5921 369.379 60.2687ZM367.664 43.876C367.659 46.4449 367.251 48.9952 366.452 51.4532H364.439C365.155 48.8012 366.234 46.2601 367.652 43.876H367.664ZM359.23 41.5659C361.182 39.1171 363.165 37.7865 364.863 37.5185C365.608 37.8697 366.213 38.4333 366.585 39.1356C363.864 42.8595 361.872 47.0178 360.704 51.4163H354.349C355.308 47.868 356.96 44.5228 359.217 41.5566L359.23 41.5659ZM422.552 62.8745C422.378 62.4125 422.281 61.9228 422.281 61.433C422.281 61.1004 422.329 60.7584 422.416 60.435C422.737 60.3333 423.076 60.278 423.425 60.2872C423.648 60.2872 423.881 60.3056 424.104 60.3518C424.153 60.7954 424.211 61.2204 424.289 61.627C423.755 62.0983 423.173 62.5141 422.543 62.8745H422.552ZM418.497 51.6011C419.419 47.6461 421.184 43.913 423.678 40.6326C425.628 38.1838 427.616 36.844 429.314 36.5852C430.051 36.9364 430.653 37.5 431.031 38.2023C428.072 42.2589 425.977 46.8145 424.852 51.6288L418.497 51.6011ZM430.517 51.6381H428.596C429.295 48.5795 430.488 45.6502 432.108 42.9242C432.089 45.8997 431.555 48.8382 430.517 51.6381ZM432.438 62.856C432.273 62.4124 432.186 61.932 432.186 61.4515C432.186 61.1189 432.224 60.7861 432.312 60.4535C432.632 60.3518 432.971 60.3057 433.321 60.3057C433.767 60.3057 434.223 60.398 434.63 60.5736C434.795 60.666 434.941 60.7585 435.077 60.8601C434.31 61.6548 433.427 62.3293 432.438 62.856ZM436.871 64.4916C436.852 64.6949 436.813 64.8982 436.755 65.0922C436.444 65.1846 436.115 65.2401 435.794 65.2401C436.153 64.9537 436.512 64.6302 436.881 64.2791C436.862 64.3992 436.862 64.4639 436.862 64.4916H436.871ZM440.597 51.6657H434.262C435.843 46.9346 436.474 42.074 435.775 38.3871C436.765 37.4168 438.035 36.7515 439.413 36.4558C440.587 36.9456 441.48 38.1653 441.926 40.1243C442.682 43.2291 442.081 47.5444 440.587 51.6657H440.597ZM454.208 63.3735C453.907 62.8006 453.752 62.1722 453.761 61.5347C453.761 61.202 453.8 60.8601 453.887 60.5367C454.217 60.4351 454.557 60.3796 454.896 60.3888C455.362 60.3888 455.818 60.4812 456.245 60.666L456.458 60.8046C456.507 61.1096 456.555 61.4145 456.623 61.7009C456.681 61.9966 456.72 62.1168 456.778 62.3108C456.022 62.856 455.139 63.2164 454.208 63.3735ZM452.005 51.712C452.908 47.6461 454.693 43.8021 457.254 40.4293C459.204 37.9806 461.183 36.6499 462.881 36.3912C463.22 36.5298 463.54 36.7239 463.812 36.9641L463.666 37.1396C460.484 41.1223 458.098 46.528 456.963 51.675L452.005 51.712ZM465.5 40.7065C466.024 43.802 465.413 47.8679 463.986 51.749H460.698C461.513 47.794 463.142 44.0423 465.5 40.6972V40.7065ZM463.812 62.736C463.695 62.3571 463.637 61.969 463.637 61.5809C463.637 61.239 463.676 60.9063 463.763 60.5736C464.093 60.472 464.433 60.4258 464.772 60.4258C465.238 60.4258 465.704 60.5274 466.13 60.7122C466.305 60.8139 466.47 60.9155 466.625 61.0356C465.82 61.7749 464.86 62.3478 463.812 62.7175V62.736ZM468.313 64.6395C468.294 64.8427 468.255 65.0276 468.216 65.2216C467.896 65.314 467.576 65.3695 467.246 65.3695C467.624 65.1108 467.983 64.8335 468.323 64.5378C468.323 64.5563 468.313 64.5932 468.313 64.6302V64.6395ZM472.611 51.7766H470.06H467.751C469.487 46.722 470.176 41.492 469.283 37.6572C469.235 37.4446 469.177 37.2413 469.119 37.0472C469.875 36.5021 470.748 36.1416 471.68 35.9753C472.844 36.4651 473.746 37.7033 474.192 39.6438C474.939 42.8964 474.28 47.4797 472.611 51.7673V51.7766ZM486.435 62.4587C485.96 62.2462 485.543 61.932 485.223 61.5347C485.223 61.2297 485.271 60.9248 485.349 60.6198C485.669 60.5274 486.008 60.472 486.358 60.472C486.93 60.472 487.493 60.6198 487.988 60.897C488.279 61.0818 488.54 61.2944 488.773 61.5347C488.075 61.9967 487.27 62.3108 486.435 62.4402V62.4587ZM484.01 51.8043C484.835 47.3689 486.697 43.1645 489.462 39.5053C491.412 37.0565 493.401 35.7351 495.098 35.4672C495.535 35.652 495.913 35.9292 496.234 36.2711L495.884 36.6869C492.586 40.8266 490.141 46.5095 489.055 51.7951L484.01 51.8043ZM497.786 40.1428C498.242 43.4694 497.446 47.8125 495.816 51.8413H492.78C493.575 47.6461 495.283 43.6542 497.795 40.1243L497.786 40.1428ZM495.215 62.4402L495.166 62.4125C495.118 62.163 495.089 61.9043 495.089 61.6548C495.089 61.3129 495.137 60.9803 495.225 60.6568C495.622 60.5275 496.04 60.472 496.457 60.4997C496.874 60.5274 497.272 60.6383 497.65 60.8139C497.815 60.9063 497.97 61.0171 498.125 61.128C497.291 61.7933 496.292 62.2369 495.234 62.431L495.215 62.4402ZM499.775 64.7503C499.745 64.9444 499.716 65.1384 499.668 65.3325C499.338 65.4341 498.998 65.4896 498.659 65.4896H498.562C498.989 65.2494 499.387 64.9814 499.775 64.695C499.775 64.7042 499.784 64.7133 499.784 64.7226L499.775 64.7503ZM504.596 51.8598H499.6C501.618 46.5003 502.433 40.8174 501.492 36.7238C501.492 36.6407 501.453 36.5668 501.433 36.4836C502.161 35.9754 503.005 35.6334 503.898 35.4855C505.062 35.9753 505.954 37.2136 506.401 39.1541C507.206 42.5824 506.41 47.4059 504.596 51.8598ZM521.108 39.1541C523.058 36.7054 525.046 35.3655 526.744 35.1068C527.297 35.3563 527.773 35.7443 528.122 36.2248C524.707 40.5124 522.194 46.4263 521.176 51.8967H515.588C516.373 47.3042 518.265 42.9427 521.117 39.1726L521.108 39.1541ZM518.081 62.0983C517.538 61.8673 517.072 61.5162 516.723 61.0634C516.732 60.9432 516.761 60.8324 516.791 60.7122C517.12 60.6106 517.46 60.5644 517.8 60.5644C518.285 60.5644 518.77 60.6753 519.216 60.8786C519.497 61.0449 519.759 61.239 519.992 61.4515C519.4 61.7842 518.75 62.0059 518.081 62.1168V62.0983ZM521.244 65.3232C521.079 65.3694 520.914 65.4064 520.749 65.4341C520.923 65.351 521.098 65.2585 521.282 65.1661L521.244 65.3232ZM527.452 61.9319C527.132 61.7933 526.841 61.5993 526.579 61.359C526.608 61.1372 526.647 60.9155 526.696 60.703C527.026 60.6013 527.365 60.5459 527.705 60.5459C528.199 60.5459 528.694 60.6568 529.14 60.8694C529.276 60.9525 529.422 61.0356 529.558 61.128C528.927 61.5438 528.209 61.8211 527.452 61.9504V61.9319ZM527.297 51.906H524.949C525.638 47.8124 527.181 43.8945 529.499 40.3831C529.8 43.7374 528.946 48.0157 527.297 51.9245V51.906ZM531.226 64.9906C531.226 65.1107 531.178 65.2309 531.139 65.351C530.819 65.4526 530.479 65.4989 530.14 65.5081C529.984 65.4989 529.819 65.4896 529.674 65.4619C530.217 65.2493 530.741 64.9814 531.236 64.6672C531.246 64.7781 531.246 64.8797 531.236 64.9906H531.226ZM536.601 51.9337H533.128H531.1C533.225 46.4541 534.137 40.5771 533.147 36.3727C534.001 35.6704 535.029 35.1992 536.135 34.9959C537.299 35.4764 538.201 36.6961 538.648 38.6551C539.472 42.2312 538.58 47.3504 536.601 51.9522V51.9337ZM548.378 60.7492C548.669 60.6661 548.97 60.6291 549.28 60.6198C549.794 60.6291 550.299 60.7492 550.755 60.971C550.842 61.0264 550.92 61.0726 550.997 61.128C550.532 61.3498 550.047 61.4977 549.532 61.5809C549.086 61.3868 548.698 61.1096 548.378 60.7585V60.7492ZM552.792 64.9998C552.773 65.1385 552.744 65.277 552.714 65.4156C552.385 65.5173 552.045 65.5635 551.706 65.5635C551.366 65.5635 551.036 65.508 550.716 65.4156C551.453 65.2493 552.162 64.9721 552.821 64.6025C552.821 64.7411 552.812 64.8797 552.792 65.0091V64.9998ZM546.952 51.9615C547.67 47.1564 549.6 42.5823 552.579 38.6366C554.529 36.1878 556.508 34.8572 558.205 34.5985C558.952 34.9404 559.554 35.504 559.932 36.1971C556.498 40.919 554.228 46.297 553.258 51.9615H546.952ZM557.051 51.9892C557.623 48.099 558.972 44.3472 561.009 40.9375C560.961 44.7446 560.107 48.5147 558.487 51.9984L557.051 51.9892ZM558.613 60.703C558.797 60.6753 558.982 60.6568 559.176 60.6568C559.68 60.6568 560.175 60.7677 560.621 60.9895C560.689 61.0265 560.747 61.0727 560.815 61.1004C560.446 61.2575 560.058 61.3591 559.661 61.4238C559.273 61.2574 558.914 61.0172 558.613 60.7215V60.703ZM562.707 64.9628C562.678 65.1292 562.649 65.2863 562.61 65.4434C561.863 65.6836 561.048 65.6467 560.33 65.3325C561.164 65.2309 561.979 64.9722 562.717 64.5656C562.717 64.7042 562.717 64.8427 562.707 64.9813V64.9628ZM568.528 52.0261H564.608H562.309C564.521 46.5927 565.52 40.7065 564.705 36.3912C565.695 35.4209 566.956 34.7556 568.343 34.4691C569.507 34.9681 570.4 36.2063 570.856 38.1376C571.71 41.88 570.681 47.295 568.528 52.0446V52.0261Z" fill="black"/>
<path d="M588.26 93.8117L588.056 242.677C588.056 247.731 584.176 251.816 579.393 251.797L359.835 251.159C355.057 251.159 351.19 247.038 351.195 241.984L351.402 93.1279L588.26 93.8117Z" fill="#396CAA"/>
<path d="M351.445 63.5582L351.408 93.1279L588.27 93.8117L588.309 64.2513C588.309 59.1967 584.447 55.094 579.665 55.0755L360.103 54.4286C355.331 54.4193 351.45 58.5037 351.445 63.5582ZM565.656 64.8427C565.656 62.7543 567.257 61.0726 569.236 61.0726C571.205 61.0818 572.806 62.8098 572.796 64.8612C572.796 66.9218 571.195 68.6405 569.216 68.6313C567.247 68.6313 565.646 66.931 565.656 64.8427ZM555.751 64.815C555.751 62.7267 557.361 61.0356 559.331 61.0448C561.3 61.0541 562.901 62.7451 562.901 64.8334C562.901 66.9218 561.3 68.6129 559.321 68.6036C557.352 68.6036 555.751 66.9034 555.751 64.815ZM534.185 64.7503C534.185 62.6712 535.795 60.9802 537.765 60.9802C539.734 60.9894 541.335 62.6897 541.335 64.778C541.335 66.8664 539.763 68.5666 537.755 68.5666C535.747 68.5666 534.185 66.8386 534.185 64.7503ZM524.29 64.7225C524.29 62.6434 525.89 60.9432 527.869 60.9524C529.849 60.9617 531.44 62.6527 531.43 64.7503C531.43 66.8386 529.829 68.5205 527.86 68.5112C525.89 68.5112 524.29 66.8386 524.29 64.7225ZM502.714 64.6579C502.714 62.5788 504.324 60.8878 506.304 60.8878C508.283 60.897 509.864 62.5973 509.864 64.6857C509.864 66.774 508.263 68.4557 506.294 68.4465C504.315 68.4465 502.714 66.7463 502.714 64.6579ZM492.819 64.6302C492.819 62.551 494.419 60.8508 496.399 60.8601C498.378 60.8693 499.969 62.5973 499.969 64.6579C499.959 66.7185 498.368 68.428 496.389 68.4188C494.41 68.4188 492.819 66.7185 492.819 64.6302ZM471.243 64.5655C471.243 62.4864 472.844 60.7953 474.823 60.8046C476.802 60.8046 478.393 62.5048 478.383 64.5932C478.383 66.6815 476.783 68.3634 474.813 68.3541C472.834 68.3541 471.243 66.6631 471.243 64.5655ZM461.357 64.5285C461.357 62.4402 462.958 60.7584 464.927 60.7584C466.907 60.7677 468.507 62.4587 468.507 64.547C468.507 66.6446 466.897 68.3264 464.927 68.3171C462.958 68.3079 461.357 66.6261 461.357 64.5285ZM439.791 64.4639C439.791 62.3755 441.392 60.6937 443.362 60.7029C445.331 60.7029 446.932 62.3939 446.932 64.4915C446.932 66.5799 445.331 68.2617 443.352 68.2525C441.373 68.2432 439.791 66.5706 439.791 64.473V64.4639ZM429.896 64.4361C429.896 62.3478 431.497 60.6659 433.466 60.6659C435.445 60.6752 437.036 62.3663 437.036 64.4546C437.027 66.5522 435.426 68.234 433.457 68.2247C431.487 68.2155 429.886 66.5337 429.896 64.4454V64.4361ZM408.32 64.3714C408.32 62.283 409.921 60.6013 411.9 60.6105C413.879 60.6105 415.47 62.3108 415.47 64.3991C415.47 66.4783 413.86 68.1693 411.89 68.1601C409.921 68.1509 408.32 66.4782 408.32 64.3806V64.3714ZM398.425 64.3438C398.425 62.2554 400.026 60.5735 402.005 60.5735C403.974 60.5828 405.575 62.2738 405.565 64.3621C405.556 66.4597 403.965 68.1416 401.985 68.1324C400.016 68.1231 398.415 66.4414 398.425 64.353V64.3438ZM376.859 64.279C376.859 62.1907 378.46 60.5089 380.429 60.5182C382.408 60.5182 384.009 62.2184 383.999 64.3068C383.99 66.3859 382.399 68.0769 380.42 68.0769C378.44 68.0676 376.849 66.3859 376.859 64.2883V64.279ZM366.954 64.279C366.954 62.1907 368.561 60.5089 370.532 60.5182C372.502 60.5182 374.103 62.2461 374.103 64.3068C374.103 66.3582 372.497 68.0769 370.525 68.0769C368.555 68.0769 366.954 66.3489 366.954 64.2605V64.279Z" fill="#396CAA"/>
<path d="M387.414 83.1667L552.288 83.6471C553.588 83.6471 554.655 82.3536 554.655 80.7549C554.655 79.1563 553.597 77.8718 552.288 77.8718L387.434 77.3821C386.124 77.3821 385.057 78.6758 385.057 80.2744C385.057 81.8545 386.114 83.1575 387.414 83.1667Z" fill="#E83B1F"/>
<path d="M383.99 136.059L400.85 136.106L400.87 123.03L384.009 122.975L383.99 136.059Z" fill="#5793CE"/>
<path d="M409.776 136.133L426.637 136.18L426.656 123.104L409.795 123.049L409.776 136.133Z" fill="#5793CE"/>
<path d="M383.961 157.405L400.821 157.46L400.841 144.376L383.98 144.33L383.961 157.405Z" fill="#5793CE"/>
<path d="M409.747 157.488L426.607 157.534L426.627 144.45L409.756 144.404L409.747 157.488Z" fill="#5793CE"/>
<path d="M435.533 157.562L452.403 157.608L452.413 144.533L435.552 144.478L435.533 157.562Z" fill="#E2E2E2"/>
<path d="M461.319 157.636L478.189 157.682L478.199 144.607L461.338 144.561L461.319 157.636Z" fill="#E2E2E2"/>
<path d="M487.095 157.71L503.965 157.756L503.985 144.681L487.114 144.635L487.095 157.71Z" fill="#E2E2E2"/>
<path d="M512.881 157.784L529.752 157.83L529.771 144.755L512.9 144.709L512.881 157.784Z" fill="#E2E2E2"/>
<path d="M538.677 157.867L555.538 157.913L555.557 144.838L538.686 144.782L538.677 157.867Z" fill="#E2E2E2"/>
<path d="M383.931 178.76L400.802 178.806L400.821 165.731L383.951 165.685L383.931 178.76Z" fill="#5793CE"/>
<path d="M409.717 178.843L426.578 178.889L426.598 165.814L409.737 165.768L409.717 178.843Z" fill="#5793CE"/>
<path d="M435.504 178.917L452.364 178.963L452.384 165.888L435.523 165.842L435.504 178.917Z" fill="#E2E2E2"/>
<path d="M461.289 178.991L478.16 179.037L478.17 165.962L461.309 165.916L461.289 178.991Z" fill="#E2E2E2"/>
<path d="M487.076 179.065L503.936 179.12L503.956 166.036L487.095 165.99L487.076 179.065Z" fill="#E2E2E2"/>
<path d="M512.852 179.139L529.722 179.194L529.742 166.11L512.871 166.063L512.852 179.139Z" fill="#E2E2E2"/>
<path d="M538.648 179.213L555.508 179.268L555.528 166.184L538.657 166.137L538.648 179.213Z" fill="#E2E2E2"/>
<path d="M383.902 200.115L400.773 200.17L400.792 187.086L383.922 187.039L383.902 200.115Z" fill="#5793CE"/>
<path d="M409.688 200.189L426.549 200.244L426.569 187.169L409.708 187.113L409.688 200.189Z" fill="#5793CE"/>
<path d="M435.474 200.263L452.335 200.318L452.355 187.243L435.484 187.187L435.474 200.263Z" fill="#E2E2E2"/>
<path d="M461.26 200.346L478.121 200.392L478.141 187.317L461.27 187.261L461.26 200.346Z" fill="#E2E2E2"/>
<path d="M487.046 200.42L503.917 200.466L503.927 187.391L487.066 187.344L487.046 200.42Z" fill="#E2E2E2"/>
<path d="M512.833 200.494L529.693 200.54L529.713 187.465L512.852 187.418L512.833 200.494Z" fill="#E2E2E2"/>
<path d="M538.609 200.568L555.479 200.614L555.499 187.538L538.628 187.492L538.609 200.568Z" fill="#E2E2E2"/>
<path d="M383.873 221.47L400.734 221.516L400.753 208.44L383.893 208.394L383.873 221.47Z" fill="#5793CE"/>
<path d="M409.659 221.544L426.53 221.599L426.539 208.514L409.679 208.468L409.659 221.544Z" fill="#5793CE"/>
<path d="M435.445 221.627L452.306 221.673L452.326 208.598L435.465 208.551L435.445 221.627Z" fill="#E2E2E2"/>
<path d="M461.222 221.701L478.092 221.747L478.111 208.671L461.241 208.625L461.222 221.701Z" fill="#E2E2E2"/>
<path d="M487.017 221.775L503.878 221.821L503.898 208.745L487.027 208.699L487.017 221.775Z" fill="#E2E2E2"/>
<path d="M512.803 221.849L529.664 221.904L529.684 208.819L512.823 208.773L512.803 221.849Z" fill="#E2E2E2"/>
<path d="M538.58 221.922L555.45 221.978L555.47 208.893L538.599 208.847L538.58 221.922Z" fill="#E2E2E2"/>
<path d="M583.07 251.769L585.534 249.127L582.983 249.986L583.07 251.769Z" fill="#E2E2E2"/>
<path d="M585.835 96.436L585.631 245.292C585.631 250.355 581.741 254.44 576.958 254.431L357.398 253.784C352.621 253.784 348.752 249.662 348.757 244.608L348.964 95.7523L585.835 96.436Z" fill="#D4ECFF"/>
<path d="M565.316 64.0295C565.064 64.5562 564.928 65.1292 564.928 65.7021C564.928 67.7997 566.519 69.4907 568.508 69.4999C569.013 69.4999 569.527 69.3798 569.983 69.158C569.721 69.7679 569.275 70.2946 568.712 70.6642C568.139 71.0431 567.47 71.2464 566.781 71.2649C564.802 71.2649 563.202 69.5277 563.202 67.4578C563.192 66.7555 563.376 66.0717 563.755 65.4618C564.123 64.8519 564.666 64.3621 565.316 64.0295Z" fill="#396CAA"/>
<path d="M555.421 63.9926C555.169 64.5193 555.043 65.0922 555.033 65.6743C555.033 67.7627 556.634 69.4629 558.613 69.4629C559.127 69.4629 559.631 69.3428 560.087 69.121C559.826 69.7309 559.389 70.2576 558.817 70.6272C558.244 71.0061 557.575 71.2094 556.886 71.2279C554.907 71.2279 553.306 69.4907 553.316 67.43C553.297 66.7278 553.491 66.0347 553.859 65.4248C554.228 64.8242 554.771 64.3253 555.421 63.9926Z" fill="#396CAA"/>
<path d="M533.846 63.9464C533.593 64.4731 533.457 65.0459 533.457 65.6281C533.457 67.7165 535.058 69.4168 537.037 69.426C537.551 69.426 538.056 69.3059 538.512 69.0842C538.25 69.694 537.813 70.2115 537.241 70.5904C536.678 70.96 535.999 71.1632 535.31 71.1817C533.341 71.1817 531.74 69.4814 531.74 67.3838C531.721 66.6815 531.915 65.9886 532.284 65.3879C532.652 64.7781 533.196 64.279 533.846 63.9464Z" fill="#396CAA"/>
<path d="M523.96 63.9001C523.698 64.4268 523.572 64.9998 523.572 65.5727C523.572 67.6611 525.163 69.3705 527.152 69.3705C527.656 69.3705 528.161 69.2504 528.617 69.0286C528.364 69.6385 527.918 70.156 527.355 70.5349C526.783 70.9045 526.114 71.117 525.425 71.1263C523.446 71.1263 521.845 69.426 521.845 67.3377C521.835 66.6354 522.02 65.9423 522.388 65.3324C522.767 64.7226 523.31 64.2328 523.96 63.9001Z" fill="#396CAA"/>
<path d="M502.374 63.8355C502.132 64.3622 501.996 64.9351 501.986 65.5081C501.986 67.6057 503.587 69.3059 505.566 69.3151C506.08 69.3059 506.585 69.195 507.051 68.9733C506.789 69.5739 506.342 70.1006 505.77 70.4702C505.207 70.8491 504.538 71.0523 503.849 71.0708C501.87 71.0708 500.269 69.3428 500.269 67.2729C500.26 66.5706 500.444 65.8777 500.822 65.2678C501.191 64.6672 501.734 64.1681 502.374 63.8355Z" fill="#396CAA"/>
<path d="M492.469 63.7985C492.217 64.3252 492.081 64.8982 492.081 65.4803C492.081 67.5687 493.682 69.2689 495.652 69.2782C496.166 69.2689 496.67 69.158 497.136 68.9363C496.874 69.5461 496.428 70.0636 495.865 70.4425C495.293 70.8121 494.623 71.0154 493.934 71.0339C491.955 71.0339 490.355 69.3059 490.355 67.236C490.345 66.5338 490.529 65.8407 490.908 65.2401C491.276 64.6302 491.819 64.1311 492.469 63.7985Z" fill="#396CAA"/>
<path d="M470.913 63.7338C470.661 64.2605 470.525 64.8334 470.525 65.4156C470.525 67.5039 472.126 69.2042 474.105 69.2134C474.619 69.2134 475.124 69.1025 475.58 68.8715C475.318 69.4814 474.881 70.0081 474.309 70.3777C473.746 70.7473 473.077 70.9599 472.378 70.9691C470.409 70.9691 468.808 69.2412 468.808 67.1713C468.789 66.469 468.983 65.7759 469.351 65.1753C469.72 64.5654 470.263 64.0665 470.913 63.7338Z" fill="#396CAA"/>
<path d="M461.028 63.7061C460.775 64.2328 460.639 64.8058 460.639 65.3787C460.639 67.4763 462.231 69.1673 464.21 69.1765C464.724 69.1765 465.228 69.0564 465.684 68.8346C465.432 69.4445 464.986 69.9712 464.423 70.3408C463.851 70.7105 463.181 70.9229 462.492 70.9414C460.513 70.9414 458.913 69.2042 458.913 67.1343C458.903 66.432 459.087 65.7483 459.466 65.1384C459.834 64.5285 460.378 64.0387 461.028 63.7061Z" fill="#396CAA"/>
<path d="M439.452 63.6414C439.2 64.1682 439.064 64.741 439.064 65.3232C439.064 67.4115 440.665 69.1118 442.634 69.121C443.148 69.121 443.653 69.0009 444.118 68.7791C443.856 69.389 443.42 69.9065 442.847 70.2853C442.285 70.655 441.615 70.8675 440.926 70.8767C438.947 70.8767 437.347 69.1765 437.347 67.0881C437.337 66.3859 437.521 65.6928 437.89 65.0829C438.259 64.473 438.802 63.9833 439.452 63.6414Z" fill="#396CAA"/>
<path d="M429.557 63.6137C429.304 64.1312 429.169 64.704 429.169 65.2862C429.169 67.3745 430.769 69.0749 432.748 69.0841C433.262 69.0841 433.767 68.964 434.223 68.7422C433.961 69.3521 433.515 69.8787 432.952 70.2483C432.38 70.618 431.71 70.8213 431.021 70.8398C429.052 70.8398 427.451 69.1395 427.451 67.0419C427.432 66.3396 427.616 65.6467 427.995 65.046C428.363 64.4362 428.907 63.9371 429.557 63.6137Z" fill="#396CAA"/>
<path d="M407.981 63.549C407.729 64.0757 407.603 64.6394 407.593 65.2216C407.593 67.3192 409.194 69.0194 411.163 69.0194C411.677 69.0194 412.191 68.8993 412.647 68.6775C412.385 69.2874 411.939 69.8141 411.376 70.1837C410.804 70.5533 410.135 70.7659 409.446 70.7844C407.467 70.7844 405.866 69.0472 405.876 66.9865C405.856 66.2842 406.05 65.5912 406.419 64.9813C406.788 64.3807 407.331 63.8816 407.981 63.549Z" fill="#396CAA"/>
<path d="M398.086 63.5121C397.833 64.0388 397.707 64.6116 397.698 65.1845C397.698 67.2821 399.298 68.9824 401.277 68.9824C401.791 68.9824 402.296 68.8715 402.762 68.6497C402.5 69.2504 402.053 69.7771 401.481 70.1467C400.918 70.5256 400.249 70.7289 399.56 70.7473C397.581 70.7473 395.98 69.0194 395.98 66.9495C395.971 66.2472 396.155 65.5541 396.533 64.9443C396.902 64.3436 397.445 63.8447 398.086 63.5121Z" fill="#396CAA"/>
<path d="M376.52 63.4473C376.258 63.974 376.132 64.547 376.132 65.1292C376.132 67.2175 377.723 68.9178 379.702 68.927C380.216 68.927 380.72 68.8069 381.176 68.5851C380.924 69.195 380.478 69.7125 379.915 70.0913C379.343 70.4609 378.673 70.6735 377.985 70.6827C376.005 70.6827 374.407 68.9548 374.407 66.8849C374.391 66.1826 374.58 65.4895 374.953 64.8797C375.325 64.279 375.87 63.78 376.52 63.4473Z" fill="#396CAA"/>
<path d="M366.627 63.4104C366.372 63.9371 366.24 64.51 366.239 65.0922C366.239 67.1898 367.833 68.8808 369.81 68.89C370.325 68.89 370.833 68.7791 371.29 68.5481C371.03 69.158 370.588 69.6755 370.021 70.0543C369.453 70.4239 368.784 70.6365 368.094 70.655C366.111 70.655 364.51 68.9178 364.517 66.8479C364.502 66.1456 364.691 65.4525 365.063 64.8519C365.436 64.242 365.977 63.7431 366.627 63.4104Z" fill="#396CAA"/>
<path d="M349.007 66.1826L348.965 95.7431L585.825 96.4361L585.874 66.8757C585.874 61.8211 582.012 57.709 577.23 57.6998L357.672 57.053C352.894 57.016 349.014 61.128 349.007 66.1826ZM563.211 67.4578C563.211 65.3787 564.822 63.6876 566.791 63.6969C568.76 63.7061 570.361 65.3971 570.361 67.4854C570.361 69.5738 568.751 71.2556 566.781 71.2464C564.812 71.2464 563.211 69.5554 563.211 67.4578ZM553.316 67.4116C553.316 65.3324 554.917 63.6415 556.896 63.6507C558.875 63.66 560.466 65.351 560.456 67.4393C560.456 69.5277 558.855 71.2094 556.886 71.2002C554.907 71.2002 553.306 69.5276 553.316 67.4116ZM531.75 67.3562C531.75 65.2678 533.351 63.5767 535.33 63.586C537.299 63.5952 538.9 65.3232 538.89 67.3746C538.89 69.4352 537.289 71.154 535.31 71.1448C533.341 71.1448 531.74 69.4629 531.75 67.3653V67.3562ZM521.845 67.3192C521.845 65.2401 523.455 63.549 525.425 63.5582C527.394 63.5675 528.995 65.2586 528.995 67.3469C528.995 69.4353 527.394 71.1263 525.415 71.117C523.446 71.1078 521.845 69.4353 521.845 67.3377V67.3192ZM500.279 67.2637C500.279 65.1753 501.889 63.4843 503.859 63.4936C505.828 63.5028 507.429 65.1938 507.429 67.2822C507.429 69.3705 505.818 71.0616 503.849 71.0524C501.87 71.0524 500.279 69.3705 500.279 67.2729V67.2637ZM490.384 67.2268C490.384 65.1477 491.984 63.4566 493.964 63.4658C495.943 63.4751 497.524 65.1661 497.524 67.2544C497.524 69.3428 495.923 71.0339 493.954 71.0246C491.984 71.0154 490.384 69.3428 490.384 67.2452V67.2268ZM468.808 67.1713C468.808 65.0829 470.418 63.392 472.388 63.4012C474.357 63.4104 475.958 65.1014 475.958 67.1898C475.958 69.2782 474.357 70.9691 472.388 70.9599C470.409 70.9599 468.818 69.2782 468.818 67.1898L468.808 67.1713ZM458.913 67.1436C458.913 65.0552 460.513 63.3642 462.492 63.3735C464.472 63.3827 466.063 65.1014 466.063 67.1621C466.053 69.2134 464.462 70.9415 462.483 70.9323C460.504 70.923 458.913 69.2504 458.913 67.1621V67.1436ZM437.347 67.0789C437.347 64.9906 438.947 63.2996 440.926 63.3088C442.906 63.3181 444.497 65.0091 444.497 67.0974C444.487 69.1858 442.886 70.8768 440.926 70.8768C438.967 70.8768 437.347 69.1858 437.347 67.0974V67.0789ZM427.451 67.0512C427.451 64.9628 429.052 63.2718 431.022 63.2811C433.001 63.2903 434.601 64.9813 434.601 67.0697C434.601 69.158 432.991 70.849 431.022 70.8398C429.052 70.8305 427.451 69.1488 427.451 67.0697V67.0512ZM405.885 66.9865C405.885 64.8982 407.486 63.2071 409.456 63.2163C411.425 63.2256 413.026 64.9167 413.026 67.005C413.026 69.0934 411.425 70.7844 409.446 70.7751C407.467 70.7751 405.876 69.0934 405.885 67.005V66.9865ZM395.98 66.9588C395.98 64.8704 397.591 63.1795 399.56 63.1887C401.539 63.1979 403.13 64.9166 403.13 66.9773C403.121 69.0287 401.52 70.7566 399.55 70.7474C397.581 70.7381 395.98 69.0656 395.98 66.9773V66.9588ZM374.412 66.8942C374.412 64.8058 376.015 63.1147 377.994 63.1239C379.964 63.1332 381.564 64.8242 381.564 66.9125C381.564 69.0009 379.954 70.692 377.985 70.6827C376.015 70.6827 374.412 69.0009 374.412 66.9125V66.8942ZM364.529 66.8849C364.529 64.7965 366.13 63.1055 368.107 63.1147C370.083 63.1147 371.678 64.8149 371.672 66.9033C371.666 68.9824 370.071 70.6827 368.094 70.6735C366.118 70.6643 364.529 68.9733 364.529 66.8849Z" fill="#5793CE"/>
<path d="M384.979 85.7817L549.843 86.2622C551.153 86.2622 552.21 84.9778 552.21 83.3792C552.21 81.7806 551.162 80.4869 549.853 80.4869L384.989 80.0156C383.679 80.0156 382.612 81.3001 382.612 82.8987C382.612 84.4788 383.669 85.7817 384.979 85.7817Z" fill="#396CAA"/>
<path d="M381.545 138.674L398.415 138.721L398.435 125.645L381.564 125.599L381.545 138.674Z" fill="#5793CE"/>
<path d="M407.341 138.748L424.201 138.804L424.221 125.719L407.35 125.673L407.341 138.748Z" fill="#5793CE"/>
<path d="M381.516 160.029L398.386 160.076L398.406 147L381.535 146.945L381.516 160.029Z" fill="#5793CE"/>
<path d="M407.302 160.103L424.172 160.149L424.192 147.074L407.321 147.019L407.302 160.103Z" fill="#5793CE"/>
<path d="M433.098 160.177L449.958 160.233L449.978 147.148L433.107 147.102L433.098 160.177Z" fill="white"/>
<path d="M458.874 160.251L475.744 160.307L475.764 147.222L458.893 147.176L458.874 160.251Z" fill="white"/>
<path d="M484.66 160.334L501.53 160.38L501.55 147.305L484.679 147.259L484.66 160.334Z" fill="white"/>
<path d="M510.446 160.408L527.307 160.455L527.326 147.379L510.465 147.333L510.446 160.408Z" fill="white"/>
<path d="M536.232 160.482L553.093 160.528L553.112 147.453L536.251 147.407L536.232 160.482Z" fill="white"/>
<path d="M381.496 181.384L398.357 181.43L398.377 168.355L381.506 168.309L381.496 181.384Z" fill="#5793CE"/>
<path d="M407.273 181.458L424.143 181.504L424.163 168.429L407.292 168.383L407.273 181.458Z" fill="#5793CE"/>
<path d="M433.059 181.532L449.929 181.578L449.949 168.503L433.078 168.457L433.059 181.532Z" fill="white"/>
<path d="M458.845 181.615L475.715 181.661L475.735 168.586L458.864 168.531L458.845 181.615Z" fill="white"/>
<path d="M484.631 181.689L501.501 181.735L501.521 168.66L484.65 168.605L484.631 181.689Z" fill="white"/>
<path d="M510.417 181.763L527.287 181.809L527.307 168.734L510.436 168.678L510.417 181.763Z" fill="white"/>
<path d="M536.203 181.837L553.064 181.883L553.083 168.808L536.222 168.752L536.203 181.837Z" fill="white"/>
<path d="M381.467 202.739L398.328 202.785L398.348 189.71L381.477 189.655L381.467 202.739Z" fill="#5793CE"/>
<path d="M407.244 202.813L424.114 202.859L424.133 189.784L407.263 189.728L407.244 202.813Z" fill="#5793CE"/>
<path d="M433.03 202.887L449.9 202.933L449.92 189.858L433.049 189.802L433.03 202.887Z" fill="white"/>
<path d="M458.816 202.961L475.686 203.016L475.696 189.932L458.835 189.886L458.816 202.961Z" fill="white"/>
<path d="M484.602 203.035L501.472 203.09L501.492 190.006L484.621 189.959L484.602 203.035Z" fill="white"/>
<path d="M510.388 203.109L527.258 203.164L527.278 190.08L510.407 190.033L510.388 203.109Z" fill="white"/>
<path d="M536.174 203.192L553.035 203.238L553.054 190.163L536.193 190.117L536.174 203.192Z" fill="white"/>
<path d="M381.428 224.085L398.299 224.14L398.309 211.056L381.448 211.009L381.428 224.085Z" fill="#5793CE"/>
<path d="M407.215 224.168L424.085 224.214L424.104 211.139L407.234 211.093L407.215 224.168Z" fill="#5793CE"/>
<path d="M433.001 224.242L449.871 224.288L449.891 211.213L433.02 211.166L433.001 224.242Z" fill="white"/>
<path d="M458.787 224.316L475.647 224.362L475.667 211.287L458.806 211.24L458.787 224.316Z" fill="white"/>
<path d="M484.573 224.39L501.433 224.445L501.453 211.37L484.592 211.314L484.573 224.39Z" fill="white"/>
<path d="M510.359 224.473L527.229 224.519L527.239 211.444L510.378 211.388L510.359 224.473Z" fill="white"/>
<path d="M536.145 224.547L553.015 224.593L553.035 211.518L536.164 211.462L536.145 224.547Z" fill="white"/>
<path d="M550.755 63.3734C552.288 70.082 557.944 69.9896 563.376 63.1701C568.809 56.3506 571.972 45.3728 570.439 38.6642C568.906 31.9556 563.25 32.048 557.817 38.8767C552.385 45.6962 549.222 56.6832 550.755 63.3734ZM552.85 60.7399C551.638 55.4635 554.131 46.8329 558.409 41.4641C562.687 36.0861 567.131 36.0307 568.343 41.307C569.556 46.5833 567.043 55.2325 562.804 60.592C558.555 65.9607 554.063 66.0347 552.85 60.7584V60.7399Z" fill="#D4ECFF"/>
<path d="M556.847 68.5389L555.411 68.3634L556.527 68.0122L556.847 68.5389Z" fill="#D4ECFF"/>
<path d="M566.063 33.7299L568.052 33.9516L566.723 35.1252L566.063 33.7299Z" fill="#D4ECFF"/>
<path d="M552.54 63.5859C554.073 70.2945 559.729 70.2022 565.161 63.3826C570.594 56.5631 573.766 45.5946 572.224 38.8767C570.691 32.1681 565.035 32.2605 559.602 39.0893C554.17 45.918 551.007 56.8773 552.54 63.5859ZM554.635 60.9524C553.423 55.676 555.916 47.0454 560.194 41.6766C564.482 36.3079 568.916 36.2432 570.128 41.5195C571.331 46.7959 568.848 55.4265 564.569 60.7952C560.291 66.1548 555.848 66.2657 554.635 60.9524Z" fill="#396CAA"/>
<path d="M565.093 57.8569L566.937 55.0385L572.224 55.057L568.828 58.4205L565.093 57.8569Z" fill="#396CAA"/>
<path d="M565.026 57.6536H569.808L566.519 62.3663L560.408 68.0768C560.505 67.2729 560.369 66.4598 560 65.7298C559.632 64.9998 559.049 64.3899 558.332 63.9649L565.026 57.6536Z" fill="#5793CE"/>
<path d="M519.294 63.9093C520.826 70.618 526.482 70.5256 531.915 63.7061C537.357 56.8866 540.52 45.918 538.977 39.2002C537.435 32.4916 531.789 32.584 526.356 39.4036C520.923 46.2231 517.761 57.2007 519.294 63.9093ZM521.389 61.2758C520.176 55.9995 522.67 47.3596 526.948 42.0001C531.226 36.6313 535.669 36.5574 536.882 41.8337C538.085 47.1193 535.601 55.7501 531.323 61.1188C527.055 66.4783 522.602 66.5522 521.389 61.2758Z" fill="#D4ECFF"/>
<path d="M525.396 69.0564L523.95 68.8808L525.066 68.5204L525.396 69.0564Z" fill="#D4ECFF"/>
<path d="M534.602 34.2473L536.591 34.469L535.262 35.6426L534.602 34.2473Z" fill="#D4ECFF"/>
<path d="M521.088 64.1035C522.621 70.8213 528.267 70.7288 533.71 63.9001C539.142 57.0806 542.305 46.1122 540.763 39.4035C539.23 32.6857 533.584 32.778 528.141 39.5976C522.699 46.4263 519.546 57.3948 521.088 64.1035ZM523.184 61.4698C521.971 56.1935 524.464 47.5628 528.733 42.1941C533.011 36.8253 537.464 36.7515 538.667 42.0371C539.87 47.3134 537.387 55.944 533.118 61.3128C528.84 66.6815 524.387 66.7554 523.184 61.4698Z" fill="#396CAA"/>
<path d="M533.613 57.7645L535.446 54.9368L540.743 54.9646L537.348 58.3281L533.613 57.7645Z" fill="#396CAA"/>
<path d="M533.545 57.5611H538.327L535.039 62.2739L528.927 67.9937C529.024 67.1898 528.888 66.3766 528.519 65.6466C528.151 64.9166 527.569 64.3068 526.841 63.891L533.545 57.5611Z" fill="#5793CE"/>
<path d="M528.684 63.7523C530.217 70.4609 535.863 70.3777 541.306 63.5489C546.738 56.7202 549.901 45.7518 548.359 39.0524C546.826 32.3438 541.18 32.4269 535.737 39.2464C530.295 46.0752 527.142 57.0252 528.684 63.7523ZM530.78 61.1188C529.567 55.8332 532.06 47.2117 536.329 41.8337C540.607 36.4649 545.06 36.4003 546.263 41.6859C547.466 46.9623 544.983 55.5929 540.714 60.9617C536.436 66.3304 531.983 66.3951 530.78 61.1188Z" fill="#D4ECFF"/>
<path d="M534.777 68.89L533.341 68.7237L534.457 68.3726L534.777 68.89Z" fill="#D4ECFF"/>
<path d="M543.983 34.0903L545.972 34.3028L544.653 35.4947L543.983 34.0903Z" fill="#D4ECFF"/>
<path d="M530.469 63.9463C532.002 70.6642 537.658 70.5718 543.091 63.7523C548.533 56.9236 551.686 45.955 550.153 39.2464C548.621 32.5286 542.965 32.6209 537.532 39.4497C532.09 46.2784 528.927 57.2377 530.469 63.9463ZM532.565 61.3128C531.352 56.0365 533.845 47.4058 538.124 42.0371C542.392 36.6683 546.845 36.6036 548.058 41.88C549.261 47.1655 546.777 55.7869 542.499 61.1557C538.221 66.5244 533.778 66.5892 532.565 61.3128Z" fill="#396CAA"/>
<path d="M543.518 57.8014L545.361 54.9738L550.658 54.9923L547.253 58.365L543.518 57.8014Z" fill="#396CAA"/>
<path d="M543.45 57.5981H548.232L544.953 62.3015L538.832 68.0122C538.939 67.2175 538.793 66.4043 538.424 65.6743C538.056 64.9443 537.483 64.3344 536.756 63.9094L543.45 57.5981Z" fill="#5793CE"/>
<path d="M487.648 64.242C489.191 70.9506 494.837 70.8582 500.269 64.0387C505.702 57.2192 508.874 46.2414 507.342 39.5328C505.799 32.8242 500.143 32.9167 494.71 39.7362C489.278 46.5557 486.115 57.5241 487.648 64.242ZM489.743 61.6085C488.531 56.3229 491.024 47.6922 495.312 42.3235C499.59 36.964 504.024 36.8901 505.236 42.1665C506.449 47.4428 503.956 56.0827 499.678 61.4422C495.399 66.8109 490.956 66.8848 489.743 61.6085Z" fill="#D4ECFF"/>
<path d="M493.75 69.389L492.305 69.2134L493.42 68.8531L493.75 69.389Z" fill="#D4ECFF"/>
<path d="M502.957 34.5799L504.945 34.7924L503.616 35.9753L502.957 34.5799Z" fill="#D4ECFF"/>
<path d="M489.433 64.4362C490.966 71.1448 496.622 71.0524 502.054 64.2329C507.487 57.4134 510.659 46.4356 509.117 39.727C507.584 33.0184 501.928 33.1108 496.496 39.9303C491.063 46.7498 487.91 57.7276 489.433 64.4362ZM491.529 61.8027C490.316 56.5263 492.809 47.8863 497.087 42.5268C501.375 37.1581 505.809 37.0842 507.021 42.3605C508.234 47.6369 505.741 56.2768 501.463 61.6363C497.184 67.005 492.751 67.079 491.538 61.8027H491.529Z" fill="#396CAA"/>
<path d="M502.113 57.6351L503.898 54.8537L509.214 54.8722L505.857 58.1988L502.113 57.6351Z" fill="#396CAA"/>
<path d="M502.015 57.4965H506.808L503.548 62.1629L497.485 67.8182C497.563 67.0235 497.407 66.2196 497.029 65.5081C496.651 64.7873 496.069 64.1958 495.351 63.78L502.015 57.4965Z" fill="#5793CE"/>
<path d="M496.447 64.2236C497.98 70.9415 503.636 70.849 509.068 64.0295C514.501 57.2008 517.673 46.2322 516.112 39.5236C514.55 32.8058 508.923 32.8982 503.49 39.727C498.057 46.5557 494.885 57.515 496.447 64.2236ZM498.542 61.59C497.33 56.3137 499.823 47.683 504.101 42.3143C508.389 36.9455 512.823 36.8809 514.035 42.1573C515.248 47.4428 512.755 56.0642 508.477 61.433C504.198 66.8017 499.736 66.8756 498.523 61.59H498.542Z" fill="#D4ECFF"/>
<path d="M502.549 69.3705L501.104 69.2043L502.219 68.8439L502.549 69.3705Z" fill="#D4ECFF"/>
<path d="M511.756 34.5707L513.744 34.7833L512.415 35.966L511.756 34.5707Z" fill="#D4ECFF"/>
<path d="M498.242 64.4268C499.775 71.1354 505.43 71.0431 510.863 64.2236C516.296 57.404 519.458 46.4263 517.935 39.6899C516.403 32.9628 510.737 33.0737 505.304 39.8932C499.872 46.7127 496.709 57.709 498.242 64.4268ZM500.337 61.7933C499.125 56.5077 501.618 47.8771 505.896 42.5083C510.174 37.1488 514.618 37.0748 515.82 42.3512C517.023 47.6275 514.55 56.2674 510.271 61.6269C505.983 66.9957 501.56 67.0696 500.347 61.7933H500.337Z" fill="#396CAA"/>
<path d="M512.027 57.6627L513.87 54.8445L519.158 54.863L515.762 58.2357L512.027 57.6627Z" fill="#396CAA"/>
<path d="M511.969 57.4595H516.752L513.453 62.2184L507.39 67.8828C507.477 67.0881 507.332 66.2842 506.954 65.5634C506.575 64.8519 505.993 64.2513 505.275 63.8447L511.969 57.4595Z" fill="#5793CE"/>
<path d="M455.42 65.1661C456.963 71.8654 462.609 71.7823 468.051 64.9535C473.484 58.1248 476.647 47.1655 475.104 40.4569C473.562 33.7483 467.925 33.8408 462.483 40.6603C457.04 47.4798 453.887 58.4482 455.42 65.1661ZM457.525 62.5233C456.313 57.2469 458.806 48.6163 463.074 43.2476C467.353 37.888 471.806 37.8142 473.009 43.0905C474.212 48.3669 471.728 56.9975 467.45 62.3663C463.181 67.735 458.728 67.7996 457.525 62.5233Z" fill="#D4ECFF"/>
<path d="M461.522 70.3038L460.077 70.1283L461.193 69.7772L461.522 70.3038Z" fill="#D4ECFF"/>
<path d="M470.729 35.504L472.718 35.7165L471.398 36.8993L470.729 35.504Z" fill="#D4ECFF"/>
<path d="M457.215 65.3509C458.748 72.0688 464.394 71.9764 469.836 65.1476C475.279 58.3281 478.432 47.3596 476.889 40.651C475.356 33.9516 469.71 34.0255 464.268 40.8543C458.835 47.683 455.673 58.6515 457.215 65.3509ZM459.31 62.7174C458.098 57.441 460.591 48.8104 464.86 43.4417C469.138 38.0729 473.591 38.0082 474.794 43.2845C476.006 48.5609 473.513 57.1915 469.245 62.5603C464.966 67.9382 460.513 67.9937 459.31 62.7174Z" fill="#396CAA"/>
<path d="M470.632 57.4965L472.417 54.7613L477.675 54.7797L474.367 58.0601L470.632 57.4965Z" fill="#396CAA"/>
<path d="M470.467 57.3856H475.318L472.048 62.0059L466.024 67.6333C466.082 66.8386 465.907 66.044 465.519 65.3417C465.131 64.6394 464.539 64.0573 463.822 63.6507L470.467 57.3856Z" fill="#5793CE"/>
<path d="M464.219 64.7041C465.752 71.4219 471.408 71.3295 476.85 64.51C482.283 57.6813 485.446 46.7128 483.903 40.0041C482.361 33.2863 476.715 33.3788 471.282 40.2075C465.839 47.027 462.687 57.9954 464.219 64.7041ZM466.325 62.0705C465.112 56.7942 467.595 48.1635 471.874 42.7948C476.152 37.4353 480.595 37.3522 481.808 42.6378C483.011 47.9141 480.527 56.5448 476.249 61.9135C471.98 67.2823 467.528 67.3561 466.325 62.0705Z" fill="#D4ECFF"/>
<path d="M470.321 69.8511L468.876 69.6754L469.992 69.3243L470.321 69.8511Z" fill="#D4ECFF"/>
<path d="M479.528 35.0419L481.517 35.2637L480.197 36.4465L479.528 35.0419Z" fill="#D4ECFF"/>
<path d="M466.014 64.9074C467.547 71.6161 473.193 71.5236 478.635 64.7041C484.068 57.8846 487.221 46.9069 485.688 40.1983C484.155 33.4897 478.519 33.582 473.057 40.4015C467.605 47.2211 464.472 58.1711 466.014 64.9074ZM468.11 62.2739C466.897 56.9883 469.39 48.3576 473.659 42.9888C477.937 37.6293 482.39 37.5555 483.593 42.8318C484.796 48.1082 482.312 56.7388 478.044 62.1075C473.765 67.4763 469.312 67.5503 468.11 62.2739Z" fill="#396CAA"/>
<path d="M480.537 57.5335L482.322 54.789H487.609L484.282 58.0972L480.537 57.5335Z" fill="#396CAA"/>
<path d="M480.382 57.4133H485.203L481.973 62.0336L475.909 67.7072C475.977 66.9033 475.812 66.0994 475.424 65.3879C475.036 64.6672 474.445 64.0758 473.727 63.66L480.382 57.4133Z" fill="#5793CE"/>
<path d="M421.854 65.3416C423.387 72.0503 429.033 71.9579 434.475 65.1384C439.918 58.3189 443.071 47.3503 441.538 40.6325C439.995 33.9238 434.349 34.0162 428.907 40.845C423.474 47.6737 420.311 58.633 421.854 65.3416ZM423.949 62.7081C422.737 57.4318 425.23 48.8011 429.508 43.4324C433.777 38.0636 438.23 37.9896 439.433 43.266C440.645 48.5516 438.152 57.1822 433.883 62.551C429.605 67.9105 425.162 67.9937 423.949 62.7081Z" fill="#D4ECFF"/>
<path d="M427.946 70.4886L426.51 70.3131L427.626 69.9619L427.946 70.4886Z" fill="#D4ECFF"/>
<path d="M437.153 35.6796L439.141 35.9014L437.822 37.0749L437.153 35.6796Z" fill="#D4ECFF"/>
<path d="M423.639 65.5357C425.172 72.2535 430.827 72.1612 436.26 65.3416C441.703 58.5129 444.865 47.5444 443.352 40.8542C441.838 34.1549 436.163 34.2287 430.73 41.0483C425.288 47.877 422.125 58.827 423.639 65.5357ZM425.734 62.9021C424.522 57.6258 427.015 48.9951 431.293 43.6264C435.562 38.2669 440.015 38.1837 441.227 43.4693C442.43 48.7456 439.947 57.3763 435.668 62.745C431.39 68.1137 426.947 68.1877 425.763 62.9021H425.734Z" fill="#396CAA"/>
<path d="M439.141 57.3578L440.897 54.6688L446.146 54.6873L442.876 57.9308L439.141 57.3578Z" fill="#396CAA"/>
<path d="M438.928 57.2932H443.779L440.548 61.8672L434.543 67.4762C434.592 66.6907 434.407 65.9053 434.019 65.2123C433.621 64.5193 433.03 63.9463 432.312 63.5582L438.928 57.2932Z" fill="#5793CE"/>
<path d="M431.992 65.1845C433.524 71.9024 439.18 71.81 444.613 64.9813C450.046 58.1617 453.208 47.1932 451.676 40.4846C450.143 33.7667 444.487 33.8591 439.054 40.6786C433.621 47.5074 430.459 58.4759 431.992 65.1845ZM434.087 62.551C432.874 57.2747 435.368 48.644 439.646 43.2753C443.924 37.9065 448.367 37.8326 449.58 43.1181C450.793 48.3945 448.299 57.0251 444.021 62.3939C439.743 67.7626 435.3 67.8366 434.087 62.551Z" fill="#D4ECFF"/>
<path d="M438.084 70.3316L436.648 70.156L437.764 69.8048L438.084 70.3316Z" fill="#D4ECFF"/>
<path d="M447.3 35.5225L449.289 35.7442L447.96 36.9271L447.3 35.5225Z" fill="#D4ECFF"/>
<path d="M433.777 65.3787C435.309 72.0873 440.965 72.0041 446.398 65.1753C451.831 58.3466 455.003 47.3873 453.461 40.6787C451.928 33.9608 446.272 34.0533 440.839 40.8821C435.407 47.7016 432.244 58.6701 433.777 65.3787ZM435.872 62.7451C434.66 57.4687 437.153 48.8381 441.431 43.4693C445.719 38.1098 450.152 38.0267 451.365 43.3123C452.568 48.5887 450.085 57.2193 445.806 62.5881C441.528 67.9568 437.085 68.0214 435.872 62.7451Z" fill="#396CAA"/>
<path d="M449.056 57.3949L450.812 54.6966L456.06 54.7151L452.791 57.9585L449.056 57.3949Z" fill="#396CAA"/>
<path d="M448.853 57.3208H453.703L450.473 61.9042L444.458 67.5132C444.506 66.7277 444.312 65.9423 443.914 65.2493C443.517 64.547 442.935 63.974 442.217 63.5767L448.853 57.3208Z" fill="#5793CE"/>
<path d="M392.139 66.044C393.672 72.7527 399.327 72.6603 404.76 65.8408C410.193 59.0213 413.355 48.0435 411.823 41.3349C410.29 34.6262 404.634 34.7186 399.201 41.5381C393.759 48.3669 390.596 59.3262 392.139 66.044ZM394.244 63.4105C393.031 58.1249 395.515 49.5035 399.793 44.1255C404.071 38.7568 408.514 38.6921 409.727 43.9776C410.93 49.254 408.447 57.8846 404.168 63.2441C399.9 68.6129 395.457 68.6868 394.244 63.4105Z" fill="#D4ECFF"/>
<path d="M398.231 71.1909L396.795 71.0154L397.911 70.6642L398.231 71.1909Z" fill="#D4ECFF"/>
<path d="M407.447 36.3819L409.436 36.5944L408.107 37.7772L407.447 36.3819Z" fill="#D4ECFF"/>
<path d="M393.933 66.2565C395.466 72.9744 401.112 72.882 406.545 66.0625C411.978 59.2338 415.15 48.2375 413.646 41.5289C412.143 34.8202 406.458 34.9126 401.015 41.7321C395.583 48.5516 392.42 59.5294 393.933 66.2565ZM396.058 63.6045C394.845 58.3282 397.339 49.6975 401.617 44.3288C405.885 38.9508 410.338 38.8861 411.541 44.1716C412.754 49.4572 410.261 58.0786 405.992 63.4381C401.714 68.8069 397.232 68.8808 396.058 63.6045Z" fill="#396CAA"/>
<path d="M407.651 57.2192L409.378 54.5764L414.607 54.5949L411.386 57.7921L407.651 57.2192Z" fill="#396CAA"/>
<path d="M407.37 57.2007H412.249L409.087 61.7378L403.121 67.3099C403.169 66.5245 402.975 65.739 402.568 65.0552C402.16 64.3621 401.559 63.8077 400.821 63.4473L407.37 57.2007Z" fill="#5793CE"/>
<path d="M400.094 65.7391C401.627 72.4477 407.282 72.3552 412.725 65.5357C418.158 58.7162 421.32 47.7384 419.787 41.0298C418.255 34.3212 412.589 34.4137 407.156 41.2332C401.724 48.0619 398.561 59.0212 400.094 65.7391ZM402.199 63.1054C400.986 57.8199 403.47 49.1984 407.758 43.8205C412.036 38.4517 416.47 38.3871 417.682 43.6634C418.885 48.949 416.402 57.5704 412.123 62.9392C407.855 68.3079 403.412 68.3818 402.199 63.1054Z" fill="#D4ECFF"/>
<path d="M406.196 70.8768L404.75 70.7104L405.866 70.3593L406.196 70.8768Z" fill="#D4ECFF"/>
<path d="M415.402 36.0769L417.391 36.2894L416.072 37.4722L415.402 36.0769Z" fill="#D4ECFF"/>
<path d="M401.889 65.933C403.421 72.6417 409.067 72.5493 414.51 65.7298C419.943 58.9103 423.105 47.9325 421.572 41.2239C420.04 34.5152 414.384 34.6076 408.951 41.4364C403.518 48.2559 400.346 59.2244 401.889 65.933ZM403.984 63.2995C402.771 58.0232 405.265 49.3925 409.543 44.0238C413.821 38.6458 418.264 38.581 419.467 43.8574C420.67 49.1337 418.187 57.7736 413.918 63.1331C409.64 68.5019 405.197 68.5666 403.984 63.2995Z" fill="#396CAA"/>
<path d="M417.566 57.2562L419.293 54.6042L424.522 54.6227L421.301 57.8199L417.566 57.2562Z" fill="#396CAA"/>
<path d="M417.314 57.2285H422.164L418.992 61.7749L413.035 67.3653C413.113 66.5706 412.938 65.776 412.531 65.0829C412.123 64.3899 411.493 63.8262 410.746 63.4843L417.314 57.2285Z" fill="#5793CE"/>
<path d="M357.393 66.3028C358.926 73.0114 364.577 72.9189 370.016 66.0901C375.452 59.2706 378.615 48.3022 377.073 41.5936C375.53 34.885 369.889 34.9774 364.45 41.7969C359.012 48.6164 355.859 59.5941 357.393 66.3028ZM359.49 63.66C358.277 58.3837 360.77 49.7529 365.044 44.3934C369.319 39.0247 373.769 38.9508 374.976 44.2271C376.18 49.5035 373.697 58.1341 369.422 63.5029C365.148 68.8809 360.697 68.9456 359.49 63.66Z" fill="#D4ECFF"/>
<path d="M363.493 71.4497L362.049 71.2742L363.165 70.9138L363.493 71.4497Z" fill="#D4ECFF"/>
<path d="M372.702 36.6405L374.685 36.8624L373.364 38.0359L372.702 36.6405Z" fill="#D4ECFF"/>
<path d="M359.181 66.4968C360.715 73.1962 366.348 73.113 371.805 66.2935C377.267 59.4648 380.4 48.5055 378.867 41.7876C377.325 35.079 371.678 35.1714 366.239 41.9909C360.8 48.8104 357.641 59.7882 359.181 66.4968ZM361.279 63.8633C360.066 58.5777 362.558 49.9563 366.833 44.5875C371.107 39.2188 375.559 39.1448 376.762 44.4212C377.975 49.7067 375.482 58.3282 371.211 63.7061C366.936 69.0749 362.486 69.1489 361.279 63.8633Z" fill="#396CAA"/>
<path d="M376.161 57.0898L377.858 54.484L383.087 54.5025L379.896 57.6536L376.161 57.0898Z" fill="#396CAA"/>
<path d="M375.889 57.1083H380.74L377.596 61.6362L371.653 67.1898C371.7 66.4043 371.499 65.6188 371.077 64.935C370.655 64.2512 370.03 63.7061 369.282 63.3642L375.889 57.1083Z" fill="#5793CE"/>
<path d="M367.561 66.1363C369.095 72.8542 374.752 72.7618 380.187 65.9423C385.619 59.1136 388.782 48.145 387.22 41.4272C385.658 34.7093 380.032 34.8109 374.594 41.6397C369.161 48.4592 365.997 59.4277 367.561 66.1363ZM369.659 63.5028C368.446 58.2264 370.938 49.5958 375.219 44.2271C379.498 38.8583 383.941 38.7936 385.154 44.0699C386.366 49.3555 383.873 57.9769 379.595 63.3457C375.31 68.7144 370.841 68.7884 369.629 63.5028H369.659Z" fill="#D4ECFF"/>
<path d="M373.63 71.2834L372.187 71.1078L373.303 70.7566L373.63 71.2834Z" fill="#D4ECFF"/>
<path d="M382.835 36.4743L384.824 36.696L383.505 37.8789L382.835 36.4743Z" fill="#D4ECFF"/>
<path d="M369.318 66.3396C370.853 73.0482 376.51 72.9558 381.943 66.1363C387.375 59.3168 390.538 48.3575 389.005 41.6304C387.472 34.9033 381.816 35.0142 376.384 41.8337C370.95 48.6532 367.785 59.6217 369.318 66.3396ZM371.417 63.706C370.204 58.4205 372.696 49.799 376.976 44.4211C381.254 39.0523 385.697 38.9876 386.91 44.2639C388.122 49.5403 385.629 58.171 381.351 63.5398C377.063 68.9085 372.629 68.9824 371.417 63.706Z" fill="#396CAA"/>
<path d="M386.075 57.1268L387.773 54.5118L392.992 54.5303L389.81 57.6905L386.075 57.1268Z" fill="#396CAA"/>
<path d="M385.784 57.1361H390.635L387.501 61.6362L381.545 67.2637C381.593 66.469 381.399 65.6651 380.982 64.972C380.565 64.279 379.944 63.7153 379.187 63.355L385.784 57.1361Z" fill="#5793CE"/>
<path d="M560.883 63.2349C562.416 69.9435 568.072 69.8511 573.504 63.0316C578.947 56.2121 582.109 45.2436 580.567 38.5257C579.034 31.8171 573.378 31.9095 567.946 38.729C562.513 45.5485 559.35 56.5262 560.883 63.2349ZM562.979 60.6013C561.766 55.325 564.259 46.6851 568.537 41.3256C572.825 35.9569 577.259 35.8829 578.471 41.1592C579.674 46.4448 577.191 55.0755 572.913 60.4442C568.634 65.8037 564.191 65.8777 562.979 60.6013Z" fill="#D4ECFF"/>
<path d="M566.985 68.3818L565.54 68.2062L566.655 67.8458L566.985 68.3818Z" fill="#D4ECFF"/>
<path d="M576.192 33.5727L578.18 33.7945L576.851 34.9681L576.192 33.5727Z" fill="#D4ECFF"/>
<path d="M562.668 63.4289C564.201 70.1376 569.857 70.0451 575.299 63.2256C580.732 56.4061 583.895 45.4375 582.362 38.7197C580.829 32.011 575.163 32.1035 569.731 38.923C564.298 45.7426 561.135 56.7203 562.668 63.4289ZM564.773 60.7953C563.561 55.519 566.044 46.8883 570.332 41.5196C574.61 36.1508 579.044 36.077 580.257 41.3533C581.459 46.6389 578.976 55.2695 574.698 60.6383C570.429 65.9978 565.986 66.0716 564.773 60.7953Z" fill="#396CAA"/>
<path d="M585.825 96.4361L588.27 93.8117L588.279 89.9492L585.835 92.6566L585.825 96.4361Z" fill="#396CAA"/>
<path d="M574.989 57.8937L576.812 55.0662C576.812 55.0662 580.644 54.9091 581.925 55.3988L578.704 58.4575L574.989 57.8937Z" fill="#396CAA"/>
<path d="M574.921 57.6905C574.921 57.6905 578.937 57.4595 580.8 58.513C582.653 59.5756 570.303 68.1231 570.303 68.1231C570.41 67.3284 570.264 66.506 569.895 65.7852C569.527 65.0552 568.954 64.4453 568.227 64.0203L574.921 57.6905Z" fill="#5793CE"/>
<path d="M527.549 213.43C534.534 215.546 539.375 219.372 543.547 225.073C543.673 225.277 543.857 225.425 544.09 225.508C544.313 225.591 544.565 225.609 544.798 225.545C545.031 225.489 545.235 225.36 545.39 225.175C545.536 224.99 545.623 224.769 545.633 224.538C546.38 217.45 549.969 210.704 555.877 206.324C556.449 205.899 555.722 205.095 555.12 205.4C547.709 209.18 544.003 216.822 543.401 224.538L545.487 224.001C541.296 218.614 534.748 214.123 527.743 212.802C527.656 212.784 527.569 212.802 527.501 212.848C527.433 212.894 527.384 212.959 527.355 213.033C527.336 213.116 527.346 213.199 527.384 213.264C527.423 213.338 527.481 213.393 527.559 213.43H527.549Z" fill="#F91515"/>
<path d="M233.24 313.635H339.596V238.906C339.596 238.906 339.597 224.149 317.702 230.045L241.583 281.191C241.583 281.191 232.197 285.146 232.197 299.875C232.197 314.596 233.24 313.635 233.24 313.635Z" fill="#1A3765"/>
<path d="M327.652 228.696H417.343L415.063 272.949C415.063 272.949 350.419 304.422 347.291 303.433C344.162 302.454 269.074 301.465 269.074 301.465L245.087 291.651L327.652 228.696Z" fill="#1A3765"/>
<path d="M325.002 313.635H431.361V238.906C431.361 238.906 431.361 224.149 409.465 230.045L333.345 281.191C333.345 281.191 323.959 285.146 323.959 299.875C323.959 314.596 325.002 313.635 325.002 313.635Z" fill="#223244"/>
<path d="M323.044 239.147H380.662L369.058 246.65H311.966L323.044 239.147Z" fill="#223244"/>
<path d="M296.335 250.208L278.903 254.347V258.58C278.939 258.968 279.406 259.226 280.297 259.226H287.737C289.66 259.125 291.509 258.487 293.055 257.388L295.48 255.493C295.688 255.364 295.868 255.198 296.008 255.004C296.147 254.809 296.244 254.597 296.293 254.366L296.335 250.208Z" fill="#B9C4D6"/>
<path d="M287.749 255.114H280.31C278.685 255.114 278.418 254.292 279.704 253.285L282.129 251.381C283.673 250.282 285.522 249.644 287.446 249.542H294.886C296.511 249.542 296.778 250.365 295.492 251.381L293.067 253.285C291.52 254.375 289.672 255.013 287.749 255.114Z" fill="#D1DBEF"/>
<path d="M317.841 250.208L300.403 254.347V258.58C300.446 258.968 300.913 259.226 301.804 259.226H309.243C311.167 259.125 313.015 258.487 314.561 257.388L316.987 255.493C317.203 255.364 317.39 255.207 317.538 255.013C317.684 254.819 317.788 254.597 317.841 254.366V250.208Z" fill="#B9C4D6"/>
<path d="M309.243 255.114H301.804C300.179 255.114 299.912 254.292 301.198 253.285L303.623 251.381C305.169 250.282 307.018 249.644 308.94 249.542H316.386C318.011 249.542 318.272 250.365 316.992 251.381L314.567 253.285C313.018 254.375 311.168 255.013 309.243 255.114Z" fill="#D1DBEF"/>
<path d="M339.324 250.208L321.886 254.347V258.58C321.922 258.968 322.389 259.226 323.28 259.226H330.72C332.644 259.125 334.493 258.487 336.037 257.388L338.493 255.493C338.7 255.364 338.879 255.198 339.017 255.004C339.156 254.809 339.252 254.597 339.3 254.366L339.324 250.208Z" fill="#B9C4D6"/>
<path d="M330.732 255.114H323.298C321.673 255.114 321.407 254.292 322.692 253.285L325.117 251.381C326.663 250.282 328.512 249.644 330.436 249.542H337.911C339.536 249.542 339.803 250.365 338.518 251.381L336.062 253.285C334.511 254.375 332.658 255.013 330.732 255.114Z" fill="#D1DBEF"/>
<path d="M360.812 250.208L343.374 254.347V258.58C343.417 258.968 343.883 259.226 344.775 259.226H352.214C354.138 259.125 355.987 258.487 357.532 257.388L359.958 255.493C360.166 255.364 360.346 255.198 360.485 255.004C360.625 254.809 360.721 254.597 360.77 254.366L360.812 250.208Z" fill="#B9C4D6"/>
<path d="M352.227 255.114H344.787C343.162 255.114 342.895 254.292 344.18 253.285L346.606 251.381C348.154 250.282 350.005 249.644 351.93 249.542H359.369C360.994 249.542 361.26 250.365 359.975 251.381L357.55 253.285C356.001 254.375 354.15 255.013 352.227 255.114Z" fill="#D1DBEF"/>
<path d="M276.872 260.89L259.434 265.02V269.262C259.475 269.641 259.943 269.899 260.834 269.899H268.274C270.195 269.798 272.044 269.16 273.591 268.07L276.016 266.166C276.225 266.037 276.403 265.87 276.543 265.686C276.683 265.491 276.78 265.27 276.829 265.039L276.872 260.89Z" fill="#B9C4D6"/>
<path d="M268.286 265.778H260.846C259.221 265.778 258.954 264.956 260.24 263.948L262.695 262.045C264.241 260.945 266.09 260.308 268.014 260.206H275.453C277.078 260.206 277.344 261.038 276.059 262.045L273.634 263.948C272.08 265.048 270.22 265.686 268.286 265.778Z" fill="#D1DBEF"/>
<path d="M298.366 260.89L280.928 265.02V269.262C280.971 269.641 281.431 269.899 282.323 269.899H289.769C291.691 269.798 293.539 269.16 295.086 268.07L297.511 266.166C297.719 266.037 297.898 265.88 298.037 265.686C298.176 265.491 298.272 265.27 298.317 265.039L298.366 260.89Z" fill="#B9C4D6"/>
<path d="M289.78 265.778H282.335C280.71 265.778 280.449 264.956 281.728 263.948L284.154 262.045C285.699 260.954 287.548 260.308 289.471 260.206H296.911C298.536 260.206 298.803 261.038 297.517 262.045L295.092 263.948C293.548 265.039 291.701 265.676 289.78 265.778Z" fill="#D1DBEF"/>
<path d="M319.854 260.89L302.422 265.02V269.262C302.459 269.641 302.926 269.899 303.817 269.899H311.257C313.179 269.798 315.027 269.16 316.574 268.07L319 266.166C319.207 266.037 319.387 265.87 319.526 265.686C319.666 265.491 319.763 265.27 319.812 265.039L319.854 260.89Z" fill="#B9C4D6"/>
<path d="M311.269 265.778H303.829C302.204 265.778 301.937 264.956 303.222 263.948L305.648 262.045C307.193 260.945 309.042 260.308 310.966 260.206H318.448C320.073 260.206 320.339 261.038 319.054 262.045L316.629 263.948C315.072 265.048 313.207 265.686 311.269 265.778Z" fill="#D1DBEF"/>
<path d="M341.35 260.89L323.905 265.002V269.234C323.947 269.622 324.408 269.872 325.306 269.872H332.745C334.667 269.77 336.515 269.132 338.063 268.042L340.488 266.138C340.697 266.018 340.875 265.852 341.014 265.658C341.153 265.464 341.249 265.251 341.294 265.02L341.35 260.89Z" fill="#B9C4D6"/>
<path d="M332.763 265.778H325.323C323.698 265.778 323.431 264.956 324.717 263.948L327.142 262.045C328.688 260.954 330.536 260.308 332.46 260.206H339.906C341.531 260.206 341.791 261.038 340.512 262.045L338.087 263.948C336.54 265.039 334.689 265.676 332.763 265.778Z" fill="#D1DBEF"/>
<path d="M260.713 271.923L243.263 276.063V280.304C243.299 280.692 243.766 280.951 244.657 280.951H252.097C254.02 280.849 255.869 280.202 257.414 279.112L259.84 277.209C260.051 277.079 260.231 276.913 260.37 276.71C260.509 276.515 260.603 276.294 260.646 276.053L260.713 271.923Z" fill="#B9C4D6"/>
<path d="M252.121 276.839H244.682C243.057 276.839 242.79 276.017 244.076 275.009L246.501 273.106C248.047 272.015 249.896 271.378 251.818 271.276H259.258C260.883 271.276 261.15 272.098 259.864 273.106L257.439 275.009C255.894 276.1 254.044 276.737 252.121 276.839Z" fill="#D1DBEF"/>
<path d="M282.201 271.923L264.763 276.063V280.304C264.805 280.692 265.272 280.951 266.164 280.951H273.603C275.526 280.849 277.375 280.202 278.921 279.112L281.346 277.209C281.557 277.079 281.74 276.913 281.88 276.71C282.019 276.515 282.114 276.294 282.159 276.053L282.201 271.923Z" fill="#9B2727"/>
<path d="M273.615 276.839H266.176C264.551 276.839 264.284 276.017 265.57 275.009L268.025 273.106C269.573 272.015 271.421 271.378 273.342 271.276H280.795C282.42 271.276 282.687 272.098 281.401 273.106L278.976 275.009C277.418 276.109 275.552 276.747 273.615 276.839Z" fill="#F98282"/>
<path d="M325.117 278.373C325.12 278.354 325.12 278.336 325.117 278.317V272.44L287.756 276.479V282.374H287.804C287.847 282.947 289.229 283.317 291.696 283.317H308.94C312.706 283.317 317.611 282.439 319.854 281.348L324.044 279.315C324.718 278.983 325.063 278.678 325.13 278.41L325.117 278.373Z" fill="#46896F"/>
<path d="M308.953 277.421H291.709C287.943 277.421 286.682 276.534 288.907 275.453L293.103 273.401C295.323 272.32 300.228 271.433 304.017 271.433H321.237C325.002 271.433 326.263 272.32 324.039 273.401L319.849 275.453C317.623 276.534 312.718 277.421 308.953 277.421Z" fill="#89D3BC"/>
<path d="M416.353 142.777L413.656 140.236H413.637L410.949 142.777L408.252 140.236L405.556 142.777L402.888 140.264L400.22 142.777L397.542 140.264L394.845 142.777L392.148 140.236H392.003L389.306 142.777L386.609 140.236H386.463L383.766 142.777L381.069 140.236H380.992L378.295 142.777L375.598 140.236L372.902 142.777L370.204 140.236V182.844C370.204 200.549 359.29 201.843 351.087 202.268C346.393 202.517 322.674 211.693 322.674 242.834H370.119C370.119 242.834 369.434 207.175 396.281 207.175C412.443 207.175 416.353 190.708 416.353 185.81C416.353 181.384 416.353 142.777 416.353 142.777Z" fill="#EBF2FC"/>
<path d="M302.058 295.606H240.886V302.823H302.058V295.606Z" fill="#223244" stroke="#596084" stroke-width="2.1375" stroke-miterlimit="10"/>
<path d="M635.554 155.631C635.554 155.631 624.756 157.488 624.863 157.793C629.432 171.987 639.299 189.248 638.202 189.728C634.147 191.53 621.526 202.73 621.526 202.73L622.428 204.541C622.428 204.541 638.581 197.685 642.49 194.811C643.325 194.238 644.004 193.499 644.498 192.639C644.993 191.789 645.275 190.847 645.342 189.867C645.915 182.244 635.554 155.631 635.554 155.631Z" fill="#E2B7A4"/>
<path d="M632.905 135.681C635.331 146.991 636.543 154.901 643.286 161.064C650.018 167.228 653.986 170.878 645.284 178.797C636.572 186.716 622.244 184.674 617.567 175.202C612.891 165.74 608.681 138.24 610.903 131.726C613.115 125.202 632.905 135.681 632.905 135.681Z" fill="#22233D"/>
<path d="M620.953 151.805C620.953 151.805 620.294 143.498 619.129 143.803C616.103 144.607 611.931 146.243 611.689 142.075C611.446 137.908 608.992 128.15 617.218 125.322C625.445 122.504 628.171 126.967 628.637 129.804C629.093 132.65 626.25 139.562 626.134 142.713C626.027 145.864 627.958 151.426 627.958 151.426L620.953 151.805Z" fill="#E2B7A4"/>
<path d="M621.012 135.45C621.012 135.45 623.505 132.742 624.417 135.902C625.018 138.129 621.264 138.924 621.264 138.924C621.264 138.924 624.611 149.597 628.627 152.203C628.627 152.203 629.956 144.006 632.508 138.166C635.059 132.326 626.551 115.971 613.202 125.701C601.512 134.174 621.012 135.45 621.012 135.45Z" fill="#22233D"/>
<path d="M621.128 135.228C618.916 136.882 615.385 136.845 613.066 135.385C610.971 134.073 609.283 131.217 610.039 128.815C610.059 128.759 610.088 128.713 610.137 128.676C610.195 128.649 610.253 128.63 610.311 128.639C610.369 128.639 610.428 128.667 610.466 128.704C610.515 128.741 610.544 128.796 610.544 128.852C610.544 129.961 610.748 131.06 611.155 132.095C611.63 133.158 612.407 134.082 613.396 134.747C615.686 136.3 618.518 136.143 620.944 134.978C620.973 134.96 621.012 134.96 621.05 134.969C621.089 134.978 621.118 134.997 621.147 135.034C621.167 135.062 621.177 135.099 621.167 135.135C621.167 135.172 621.147 135.2 621.118 135.228H621.128Z" fill="#22233D"/>
<path d="M630.975 130.367C631.848 134.378 632.789 138.453 634.002 142.324C635.04 145.845 636.524 149.218 638.425 152.387C639.376 153.931 640.482 155.372 641.724 156.712C643.014 158.08 644.44 159.253 645.837 160.482C648.204 162.561 650.688 165.13 651.289 168.568C651.454 170.065 651.124 171.58 650.329 172.883C649.66 174.14 648.748 175.637 647.554 176.348C647.108 176.607 646.701 176.071 646.992 175.618C648.263 173.539 650.717 171.423 650.145 168.558C649.436 164.955 646.584 162.552 644.11 160.39C641.549 158.209 639.367 155.649 637.64 152.813C635.923 149.856 634.564 146.732 633.584 143.48C632.246 139.229 631.538 134.849 630.742 130.46C630.742 130.293 630.917 130.21 630.955 130.377L630.975 130.367Z" fill="#22233D"/>
<path d="M638.406 243.019C638.096 248.415 637.795 258.034 637.484 264.327C637.484 264.327 649.825 277.828 660.719 307.388L659.089 307.896C659.089 307.896 632.275 277.726 627.463 270.232C622.302 262.202 619.052 250.3 617.568 243.906C620.701 243.832 623.844 243.813 627.017 243.998C631.353 244.229 634.312 243.518 638.406 243.019Z" fill="#E2B7A4"/>
<path d="M618.45 241.309C615.181 247.879 608.749 262.886 604.228 274.067C605.131 278.299 605.228 282.651 604.519 286.911C603.413 292.927 599.892 304.939 598.456 314.06H595.342C595.342 314.06 592.742 288.445 593.324 274.815C593.596 268.236 596.419 249.265 598.097 241.753C600.348 241.827 602.618 241.882 604.898 241.873C609.486 241.9 613.978 241.596 618.45 241.309Z" fill="#E2B7A4"/>
<path d="M636.805 159.955C637.581 167.579 632.352 176.413 632.081 181.255C631.518 191.715 634.972 198.71 636.999 208.801H609.525C609.525 208.801 616.2 191.66 609.302 177.097C606.576 171.367 607.003 167.255 612.698 162.45C615.996 159.678 620.992 151.011 620.992 151.011L628.617 151.075C628.617 151.075 635.903 151.066 636.805 159.955Z" fill="white"/>
<path d="M636.495 207.433C636.495 207.433 644.518 215.306 641.908 247.805C637.494 248.138 623.689 248.082 618.79 247.583C616.365 247.371 599.222 246.197 596.817 245.846C602.56 226.016 610.001 207.406 610.001 207.406L636.495 207.433Z" fill="#2575B9"/>
<path d="M627.269 151.057C627.269 151.057 622.923 160.131 616.995 157.645C616.995 157.645 620.158 152.452 620.992 151.011L627.269 151.057Z" fill="#E2B7A4"/>
<path d="M628.763 172.218C628.763 172.218 621.312 164.539 621.099 164.779C610.98 176.071 600.988 193.258 599.969 192.639C596.205 190.329 579.509 186.217 579.509 186.217L578.384 187.917C578.384 187.917 593.13 197.213 597.787 198.821C598.747 199.172 599.766 199.329 600.784 199.265C601.803 199.2 602.802 198.923 603.695 198.461C610.748 194.838 628.763 172.218 628.763 172.218Z" fill="#E2B7A4"/>
<path d="M592.985 320.621C596.011 320.038 595.41 313.967 595.41 313.967L598.437 313.829C602.346 318.893 602.075 325.573 602.075 325.573H599.96C599.717 325.102 599.349 324.714 598.893 324.437C598.427 324.16 597.893 324.012 597.35 324.012C596.807 324.012 596.273 324.16 595.817 324.437C595.361 324.714 594.993 325.102 594.75 325.573H587.329C587.329 325.573 587.329 324.751 587.183 323.097C587.038 321.443 589.948 321.166 592.985 320.621Z" fill="#253B59"/>
<path d="M658.953 313.829C661.33 311.953 658.168 306.898 658.168 306.898L659.982 305.54C665.977 308.146 669.45 313.949 669.45 313.949L667.597 314.938C667.151 314.633 666.627 314.466 666.084 314.439C665.54 314.411 665.007 314.531 664.532 314.78C664.056 315.03 663.658 315.4 663.396 315.862C663.135 316.314 663.008 316.823 663.047 317.34L656.567 320.805C656.567 320.805 656.14 320.085 655.17 318.708C654.2 317.34 656.586 315.723 658.953 313.829Z" fill="#253B59"/>
<path d="M592.509 165.786C592.17 165.472 591.714 165.297 591.248 165.297C590.773 165.297 590.317 165.472 589.977 165.786L567.645 187.021C567.528 187.141 567.431 187.289 567.354 187.437L563.648 193.748L570.167 189.424L592.509 168.189C592.839 167.865 593.014 167.44 593.014 166.987C593.014 166.544 592.839 166.11 592.509 165.786Z" fill="#F91515"/>
<path d="M579.51 186.217C579.51 186.217 576.822 183.574 570.497 182.04C564.182 180.506 565.501 183.574 566.539 184.415C568.683 185.977 571.205 186.993 573.873 187.354C575.367 187.631 576.871 187.825 578.384 187.936L579.51 186.217Z" fill="#E2B7A4"/>
</svg>
