<svg width="100" height="100" viewBox="0 0 100 100" fill="none" xmlns="http://www.w3.org/2000/svg">
<path d="M99 50C99 22.938 77.062 1 50 1C22.938 1 1 22.938 1 50C1 77.062 22.938 99 50 99C77.062 99 99 77.062 99 50Z" fill="white" stroke="#EAEDF3" stroke-width="2"/>
<path fill-rule="evenodd" clip-rule="evenodd" d="M26 22.586L27.707 24.293L28.5 25.086L30.293 23.293L31 22.586L31.707 23.293L33.5 25.086L35.293 23.293L36 22.586L36.707 23.293L38.5 25.086L40.293 23.293L41 22.586L41.707 23.293L43.5 25.086L45.293 23.293L46 22.586L46.707 23.293L48.5 25.086L50.293 23.293L51 22.586L51.707 23.293L53.5 25.086L55.293 23.293L56 22.586L56.707 23.293L58.5 25.086L59.293 24.293L61 22.586V25V47.51C60.386 47.01 59.716 46.57 59 46.2V27.41L58.5 27.91L57.793 27.21L56 25.414L54.207 27.21L53.5 27.91L52.793 27.21L51 25.414L49.207 27.21L48.5 27.91L47.793 27.21L46 25.414L44.207 27.21L43.5 27.91L42.793 27.21L41 25.414L39.207 27.21L38.5 27.91L37.793 27.21L36 25.414L34.207 27.21L33.5 27.91L32.793 27.21L31 25.414L29.207 27.21L28.5 27.91L28 27.41V68.59L28.5 68.09L29.207 68.79L31 70.59L32.793 68.79L33.5 68.09L34.207 68.79L36 70.59L37.793 68.79L38.5 68.09L39.207 68.79L41 70.59L42.793 68.79L43.5 68.09L44.207 68.79L46 70.59L47.793 68.79L48.5 68.09L49.207 68.79L50.749 70.33L49.537 71.95L48.5 70.91L46.707 72.71L46 73.41L45.293 72.71L43.5 70.91L41.707 72.71L41 73.41L40.293 72.71L38.5 70.91L36.707 72.71L36 73.41L35.293 72.71L33.5 70.91L31.707 72.71L31 73.41L30.293 72.71L28.5 70.91L27.707 71.71L26 73.41V71V25V22.586ZM45.514 63C46.141 63.76 46.868 64.43 47.674 65H39V63H45.514ZM43.181 58C43.308 58.69 43.5 59.36 43.75 60H39V58H43.181ZM45.514 49C45.007 49.61 44.565 50.28 44.199 51H39V49H45.514ZM54 45V44H39V46H49.411C50.808 45.36 52.362 45 54 45ZM33 32H45V34H33V32ZM33 39H37V41H33V39ZM37 44H33V46H37V44ZM33 49H37V51H33V49ZM37 58H33V60H37V58ZM33 63H37V65H33V63ZM54 39H39V41H54V39Z" fill="#8894AA"/>
<path fill-rule="evenodd" clip-rule="evenodd" d="M52.8 77.6L73.8 49.6L72.2 48.4L51.2 76.4L52.8 77.6ZM54 61C56.761 61 59 58.76 59 56C59 53.24 56.761 51 54 51C51.239 51 49 53.24 49 56C49 58.76 51.239 61 54 61ZM54 63C57.866 63 61 59.87 61 56C61 52.13 57.866 49 54 49C50.134 49 47 52.13 47 56C47 59.87 50.134 63 54 63ZM71 75C73.761 75 76 72.76 76 70C76 67.24 73.761 65 71 65C68.239 65 66 67.24 66 70C66 72.76 68.239 75 71 75ZM71 77C74.866 77 78 73.87 78 70C78 66.13 74.866 63 71 63C67.134 63 64 66.13 64 70C64 73.87 67.134 77 71 77Z" fill="#8894AA"/>
</svg>
